<?xml version="1.0" standalone="no"?>
<!DOCTYPE svg PUBLIC "-//W3C//DTD SVG 1.1//EN" "http://www.w3.org/Graphics/SVG/1.1/DTD/svg11.dtd" >
<svg>
<metadata>
Created by FontForge 20090914 at Wed Jun 10 00:06:01 2020
 By www-data
Copyright 2020 The Spartan Project Authors (https://github.com/bghryct/Spartan-MB)
</metadata>
<defs>
<font id="Spartan-Regular" horiz-adv-x="1437" >
  <font-face 
    font-family="Spartan"
    font-weight="400"
    font-stretch="normal"
    units-per-em="2000"
    panose-1="0 0 0 0 0 0 0 0 0 0"
    ascent="1600"
    descent="-400"
    x-height="1024"
    cap-height="1650"
    bbox="-583 -591.998 2968 2312"
    underline-thickness="100"
    underline-position="-100"
    unicode-range="U+000D-U+FB02"
  />
<missing-glyph horiz-adv-x="684" 
 />
    <glyph glyph-name="fi" unicode="fi" horiz-adv-x="1015" 
d="M231 0v913.999h-102v110h102v367c0 81.333 11.833 148.5 35.5 201.5s56.834 92.5 99.501 118.5s92.667 39 150 39c39.333 0 77.166 -6 113.499 -18s68.833 -28 97.5 -48s51.667 -43.333 69 -70l-68 -88c-16 28 -41.167 51.167 -75.5 69.5s-68.5 27.5 -102.5 27.5
c-57.333 0 -100.5 -17.667 -129.5 -53s-43.5 -93.666 -43.5 -174.999v-371h469v-1024h-146v914h-323v-914h-146z" />
    <glyph glyph-name="fl" unicode="fl" horiz-adv-x="1160" 
d="M257 0l0.000976562 914.002h-104v110h104v367c0 81.333 11.5 148.5 34.5 201.5s55.667 92.5 98 118.5s92.166 39 149.499 39c36 0 66.833 -3.83301 92.5 -11.5s46.5 -15.834 62.5 -24.501l-33 -116c-12.667 7.33301 -27.5 13.166 -44.5 17.499s-35.5 6.5 -55.5 6.5
c-54 0 -94 -17.5 -120 -52.5s-39 -93.167 -39 -174.5v-371h260v-110h-260v-914h-145zM767.001 0.00195312v1720h143v-1720h-143z" />
    <glyph glyph-name="f_f" unicode="ff" horiz-adv-x="1337" 
d="M265 0l0.000976562 914.001h-103v110h103v367c0 81.333 11.667 148.5 35 201.5s56.333 92.5 99 118.5s92.667 39 150 39c40 0 74.667 -5 104 -15s53 -21 71 -33l-54 -104c-12 7.33301 -26.333 13.166 -43 17.499s-35.667 6.5 -57 6.5
c-53.333 0 -93.166 -17.5 -119.499 -52.5s-39.5 -93.167 -39.5 -174.5v-371h339v367c0 81.333 11.667 148.5 35 201.5s56.166 92.5 98.499 118.5s92.166 39 149.499 39c48 0 87.667 -6.5 119 -19.5s56 -26.5 74 -40.5l-52 -104c-12.667 10 -28.834 18.5 -48.501 25.5
s-43.167 10.5 -70.5 10.5c-53.333 0 -93.166 -17.5 -119.499 -52.5s-39.5 -93.167 -39.5 -174.5v-371h261v-110h-261v-914h-146v914h-339v-914h-146z" />
    <glyph glyph-name="f_f_i" unicode="ffi" horiz-adv-x="1571" 
d="M267 0v914h-103v110h103v367c0 81.333 11.667 148.5 35 201.5s56.333 92.5 99 118.5s92.334 39 149.001 39c40.667 0 75.5 -5 104.5 -15s52.833 -21 71.5 -33l-54 -104c-12.667 7.33301 -27.334 13.166 -44.001 17.499s-35.334 6.5 -56.001 6.5
c-53.333 0 -93.166 -17.5 -119.499 -52.5s-39.5 -93.167 -39.5 -174.5v-371h339v367c0 81.333 11.667 148.5 35 201.5s56.333 92.5 99 118.5s92.667 39 150 39c39.333 0 77.166 -6 113.499 -18s68.833 -28 97.5 -48s52 -43.333 70 -70l-69 -88
c-16 28 -41.167 51.167 -75.5 69.5s-68.166 27.5 -101.499 27.5c-58 0 -101.333 -17.667 -130 -53s-43 -93.666 -43 -174.999v-371h466v-1024h-146v914h-320v-914h-146v914h-339v-914h-146z" />
    <glyph glyph-name="f_f_l" unicode="ffl" horiz-adv-x="1647" 
d="M257 0l-0.000976562 914.003h-103v110h103v367c0 81.333 11.667 148.5 35 201.5s56.333 92.5 99 118.5s92.334 39 149.001 39c40.667 0 75.5 -5 104.5 -15s52.833 -21 71.5 -33l-54 -104c-12 7.33301 -26.5 13.166 -43.5 17.499s-35.833 6.5 -56.5 6.5
c-53.333 0 -93.166 -17.5 -119.499 -52.5s-39.5 -93.167 -39.5 -174.5v-371h338v367c0 81.333 11.833 148.5 35.5 201.5s56.667 92.5 99 118.5s92.166 39 149.499 39c36 0 66.833 -3.83301 92.5 -11.5s46.5 -15.834 62.5 -24.501l-33 -116
c-12.667 7.33301 -27.5 13.166 -44.5 17.499s-35.5 6.5 -55.5 6.5c-53.333 0 -93.333 -17.5 -120 -52.5s-40 -93.167 -40 -174.5v-371h261v-110h-261v-914h-146v914h-338v-914h-146zM1251 0.00292969v1720h146v-1720h-146z" />
    <glyph glyph-name=".notdef" horiz-adv-x="684" 
 />
    <glyph glyph-name="NULL" horiz-adv-x="0" 
 />
    <glyph glyph-name="NULL" horiz-adv-x="0" 
 />
    <glyph glyph-name="CR" unicode="&#xd;" horiz-adv-x="514" 
 />
    <glyph glyph-name="space" unicode=" " horiz-adv-x="514" 
 />
    <glyph glyph-name="exclam" unicode="!" horiz-adv-x="734" 
d="M310 397l-14 1323h142l-14 -1323h-114zM367 -32c-18.667 0 -35.834 4.66699 -51.501 14s-28.167 21.833 -37.5 37.5s-14 32.834 -14 51.501s4.66699 35.667 14 51s21.833 27.666 37.5 36.999s32.834 14 51.501 14s35.667 -4.66699 51 -14s27.666 -21.666 36.999 -36.999
s14 -32.333 14 -51s-4.66699 -35.834 -14 -51.501s-21.666 -28.167 -36.999 -37.5s-32.333 -14 -51 -14z" />
    <glyph glyph-name="quotedbl" unicode="&#x22;" horiz-adv-x="874" 
d="M503 1243l-28 416h154l-28 -416h-98zM272 1243l-27 416h153l-27 -416h-99z" />
    <glyph glyph-name="numbersign" unicode="#" horiz-adv-x="1442" 
d="M324 0l56 421h-185v99h198l57 411h-255v99h267l56 423h100l-58 -423h401l57 423h99l-56 -423h186v-99h-199l-57 -411h256v-99h-268l-56 -421h-99l56 421h-401l-56 -421h-99zM491 520h402l56 411h-401z" />
    <glyph glyph-name="dollar" unicode="$" horiz-adv-x="1485" 
d="M724 -276v245.997c-54 0.666992 -108.667 9.83398 -164 27.501s-107.666 41.334 -156.999 71.001s-92.833 63.167 -130.5 100.5s-64.834 76.333 -81.501 117l87 110c30 -56.667 70.333 -106.334 121 -149.001s107.334 -76 170.001 -100s126 -36 190 -36
c67.333 0 127.666 13 180.999 39s95.333 63 126 111s46 104.667 46 170c0 57.333 -11.833 105.833 -35.5 145.5s-55.667 73.834 -96 102.501s-86.666 54.334 -138.999 77.001l-164.5 69c-68 28 -130.333 59.167 -187 93.5s-102 76.833 -136 127.5s-51 114.334 -51 191.001
c0 77.333 17.833 148.166 53.5 212.499s85.167 116.833 148.5 157.5s136.333 63.667 219 69v250h97v-249c76 -6.66699 147.833 -29.667 215.5 -69s118.5 -87 152.5 -143l-78 -107c-31.333 54 -78.833 98 -142.5 132s-131.5 51 -203.5 51c-62 0 -116.833 -13.333 -164.5 -40
s-85 -62.667 -112 -108s-40.5 -95.333 -40.5 -150c0 -60.667 15.667 -109.834 47 -147.501s72.166 -68.667 122.499 -93s102.833 -47.5 157.5 -69.5c71.333 -27.333 137 -55.666 197 -84.999s112.5 -62.5 157.5 -99.5s80 -80.667 105 -131s37.5 -110.5 37.5 -180.5
c0 -86 -18.5 -162.333 -55.5 -229s-89.333 -120.167 -157 -160.5s-147.167 -64.5 -238.5 -72.5v-251h-97z" />
    <glyph glyph-name="percent" unicode="%" horiz-adv-x="2190" 
d="M599 892c-78 0 -148.001 16.667 -210.001 50s-111.167 79.666 -147.5 138.999s-54.5 127.666 -54.5 204.999s18.333 145.666 55 204.999s85.834 105.666 147.501 138.999s131.5 50 209.5 50c76.667 0 145.834 -16.667 207.501 -50s110.667 -79.666 147 -138.999
s54.5 -127.666 54.5 -204.999s-18.167 -145.666 -54.5 -204.999s-85.333 -105.666 -147 -138.999s-130.834 -50 -207.501 -50zM555.999 0l960 1650h113l-960 -1650h-113zM598.999 993c55.333 0 104.832 12.5 148.499 37.5s78.334 59.5 104.001 103.5s38.5 94.667 38.5 152
c0.666992 58 -11.833 109 -37.5 153s-60.5 78.333 -104.5 103s-94 37 -150 37c-55.333 0 -105 -12.5 -149 -37.5s-78.667 -59.5 -104 -103.5s-38 -94.667 -38 -152s12.667 -108 38 -152s60 -78.5 104 -103.5s94 -37.5 150 -37.5zM1592 -31c-77.333 0 -147 16.667 -209 50
s-111.167 79.666 -147.5 138.999s-54.5 127.666 -54.5 204.999s18.167 145.666 54.5 204.999s85.5 105.666 147.5 138.999s131.667 50 209 50c78 0 147.833 -16.667 209.5 -50s110.667 -79.666 147 -138.999s54.5 -127.666 54.5 -204.999s-18.167 -145.666 -54.5 -204.999
s-85.5 -105.666 -147.5 -138.999s-131.667 -50 -209 -50zM1592 69c56 0 105.833 12.667 149.5 38s78.167 60 103.5 104s38 94.667 38 152s-12.667 108 -38 152s-59.833 78.5 -103.5 103.5s-93.5 37.5 -149.5 37.5c-55.333 0 -104.833 -12.5 -148.5 -37.5
s-78.334 -59.5 -104.001 -103.5s-38.5 -94.667 -38.5 -152s12.833 -108 38.5 -152s60.334 -78.667 104.001 -104s93.167 -38 148.5 -38z" />
    <glyph glyph-name="ampersand" unicode="&#x26;" horiz-adv-x="1797" 
d="M683 -32c-90 0 -171.832 17.501 -245.499 52.501s-132.5 85.667 -176.5 152s-66 146.5 -66 240.5c0 110.667 33.167 208.667 99.5 294s164.833 158.333 295.5 219c-55.333 55.333 -99.333 104.666 -132 147.999s-56.167 84.5 -70.5 123.5s-21.5 79.167 -21.5 120.5
c0 72 17.667 135.167 53 189.5s82.833 96.833 142.5 127.5s126.5 46 200.5 46c60 0 114 -9.5 162 -28.5s89 -45.5 123 -79.5s60.167 -73.333 78.5 -118s27.5 -92.667 27.5 -144c0 -90.667 -29.333 -167.167 -88 -229.5s-145 -121.5 -259 -177.5l444 -482
c14.667 14.667 31.667 34.167 51 58.5l59.5 76.5l54.5 73c16 22 27.333 38.333 34 49l96 -80c-26.667 -42.667 -58.334 -89.667 -95.001 -141s-71.667 -96 -105 -134l297 -324h-189l-215 237c-81.333 -86.667 -169 -153.167 -263 -199.5s-191.333 -69.5 -292 -69.5z
M697.001 109.001c77.333 0 153.667 19.832 229 59.499s147 96.834 215 171.501l-468 501c-102.667 -48 -181 -107.167 -235 -177.5s-81 -148.5 -81 -234.5c0 -68 15.5 -126 46.5 -174s72.5 -84.333 124.5 -109s108.333 -37 169 -37zM723.002 991
c63.333 31.333 117.169 62 161.502 92s78.166 63.333 101.499 100s35 80.334 35 131.001s-11.333 95 -34 133s-53.167 67.333 -91.5 88s-81.166 31 -128.499 31c-48 0 -91 -10.5 -129 -31.5s-68 -50.167 -90 -87.5s-33 -80 -33 -128c0 -32.667 6.16699 -64.5 18.5 -95.5
s33.666 -64.833 63.999 -101.5s72.166 -80.334 125.499 -131.001z" />
    <glyph glyph-name="quotesingle" unicode="'" horiz-adv-x="643" 
d="M272 1243l-27 416h153l-27 -416h-99z" />
    <glyph glyph-name="parenleft" unicode="(" horiz-adv-x="752" 
d="M537 -520c-40.667 51.333 -82.667 114.997 -126 190.997s-83.5 162.5 -120.5 259.5s-66.833 202.833 -89.5 317.5s-34 236.667 -34 366s11.5 251.5 34.5 366.5s52.833 221 89.5 318s76.667 183.5 120 259.5s85.333 140 126 192l95 -41
c-49.333 -73.333 -98.833 -164.166 -148.5 -272.499s-90.834 -231.666 -123.501 -369.999s-49 -289.166 -49 -452.499c0 -162.667 16.333 -313.167 49 -451.5s73.834 -261.5 123.501 -369.5s99.167 -198.667 148.5 -272z" />
    <glyph glyph-name="parenright" unicode=")" horiz-adv-x="752" 
d="M215 -520l-95.999 40.998c69.333 102 127.666 212.333 174.999 331s83.5 242.334 108.5 371.001s37.5 259 37.5 391c0 126.667 -11.833 253.667 -35.5 381s-59 251.333 -106 372s-106.833 234.667 -179.5 342l96 41c118.667 -154 209.5 -329 272.5 -525
s94.5 -399.333 94.5 -610c0 -203.333 -30.5 -403.166 -91.5 -599.499s-152.833 -374.833 -275.5 -535.5z" />
    <glyph glyph-name="asterisk" unicode="*" horiz-adv-x="919" 
d="M352 1284l-54 38l104 149l-173 58l21 65l173 -55v181h72v-181l174 55l21 -65l-174 -58l104 -149l-53 -38l-109 144z" />
    <glyph glyph-name="plus" unicode="+" horiz-adv-x="1432" 
d="M652 316v450h-448v126h448v449h127v-449h449v-126h-449v-450h-127z" />
    <glyph glyph-name="comma" unicode="," horiz-adv-x="726" 
d="M313 -243l-38 32c12 14 23 31 33 51s18.5 41.5 25.5 64.5s11.167 46.167 12.5 69.5c-24.667 4 -45 15.167 -61 33.5s-24 39.833 -24 64.5c0 30 9.66699 54.333 29 73s44.333 28 75 28c32 0 58 -10.5 78 -31.5s30 -50.833 30 -89.5c0 -50 -15.333 -102.667 -46 -158
s-68.667 -101 -114 -137z" />
    <glyph glyph-name="hyphen" unicode="-" horiz-adv-x="1075" 
d="M215 517v125h644v-125h-644z" />
    <glyph glyph-name="period" unicode="." horiz-adv-x="763" 
d="M382 -32c-19.333 0 -36.832 4.66699 -52.499 14s-28 21.833 -37 37.5s-13.5 32.834 -13.5 51.501s4.5 35.667 13.5 51s21.5 27.666 37.5 36.999s33 14 51 14c19.333 0 36.666 -4.66699 51.999 -14s27.5 -21.666 36.5 -36.999s13.5 -32.333 13.5 -51
s-4.5 -35.834 -13.5 -51.501s-21.167 -28.167 -36.5 -37.5s-32.333 -14 -51 -14z" />
    <glyph glyph-name="slash" unicode="/" horiz-adv-x="1041" 
d="M49 -240l824 1960h119l-824 -1960h-119z" />
    <glyph glyph-name="zero" unicode="0" horiz-adv-x="1687" 
d="M844 -32c-134.667 0 -252.5 35.833 -353.5 107.5s-179.5 171.834 -235.5 300.501s-84 278 -84 448c0 170.667 28 320.167 84 448.5s134.5 228.333 235.5 300s218.833 107.5 353.5 107.5s252.334 -35.833 353.001 -107.5s179.167 -171.667 235.5 -300
s84.5 -277.833 84.5 -448.5c0 -170 -28.167 -319.333 -84.5 -448s-134.833 -228.834 -235.5 -300.501s-218.334 -107.5 -353.001 -107.5zM844 105c102.667 0 192.334 29.667 269.001 89s136.334 143 179.001 251s64 234.333 64 379c0 145.333 -21.333 271.833 -64 379.5
s-102.334 191.167 -179.001 250.5s-166.334 89 -269.001 89s-192.5 -29.667 -269.5 -89s-136.667 -142.833 -179 -250.5s-63.5 -234.167 -63.5 -379.5c0 -144.667 21.167 -271 63.5 -379s102 -191.667 179 -251s166.833 -89 269.5 -89z" />
    <glyph glyph-name="one" unicode="1" horiz-adv-x="701" 
d="M291 0v1500h-156v150h308v-1650h-152z" />
    <glyph glyph-name="two" unicode="2" horiz-adv-x="1453" 
d="M126 0l-0.00292969 70.998l396 319.5c110.667 93 203.334 175.5 278.001 247.5s134 136.667 178 194s75.333 110.333 94 159s28 96.667 28 144c0 74.667 -17.833 142.334 -53.5 203.001s-83.5 109 -143.5 145s-126.667 54 -200 54s-140 -18 -200 -54
s-109.333 -85.333 -148 -148s-61.667 -134.667 -69 -216l-137 46c7.33301 73.333 26.5 141.333 57.5 204s71.667 117.334 122 164.001s107.833 83 172.5 109s134.334 39 209.001 39c103.333 0 197 -23.833 281 -71.5s150.667 -112.5 200 -194.5s74 -174.667 74 -278
c0 -53.333 -8 -105.666 -24 -156.999s-42.833 -105 -80.5 -161s-88.167 -116.833 -151.5 -182.5s-142.166 -138.834 -236.499 -219.501s-206.833 -172 -337.5 -274h860v-143h-1169z" />
    <glyph glyph-name="three" unicode="3" horiz-adv-x="1338" 
d="M648 -32c-97.333 0 -184.332 17.833 -260.999 53.5s-138.334 85.667 -185.001 150s-74.334 138.833 -83.001 223.5l146 51c1.33301 -67.333 18.5 -126.333 51.5 -177s78.167 -90.167 135.5 -118.5s122.666 -42.5 195.999 -42.5c108 0 194 29.833 258 89.5
s96 137.167 96 232.5c0 68 -15.667 129.5 -47 184.5s-73.333 98.667 -126 131s-111 48.5 -175 48.5c-24.667 0 -45.667 -2.66699 -63 -8v115h55c64.667 0 122.667 15.167 174 45.5s92.166 70.833 122.499 121.5s45.5 106 45.5 166c0 59.333 -14.667 113 -44 161
s-68.166 85.833 -116.499 113.5s-101.833 41.5 -160.5 41.5s-112.667 -14.167 -162 -42.5s-89.166 -66.5 -119.499 -114.5s-46.5 -102 -48.5 -162l-128 43c6.66699 78.667 31.334 148.667 74.001 210s97.667 109.333 165 144s141 52 221 52c87.333 0 166 -19.667 236 -59
s125.333 -92.333 166 -159s61 -141.667 61 -225c0 -57.333 -10.667 -111.5 -32 -162.5s-51.333 -95.833 -90 -134.5s-83.667 -68 -135 -88c54 -17.333 102.333 -45.5 145 -84.5s76.5 -86.667 101.5 -143s37.5 -119.833 37.5 -190.5c0 -88.667 -20.5 -168.167 -61.5 -238.5
s-99.667 -125.833 -176 -166.5s-167.5 -61 -273.5 -61z" />
    <glyph glyph-name="four" unicode="4" horiz-adv-x="1351" 
d="M888 0v318h-827v68l821 1264h151v-1198h192v-134h-192v-318h-145zM259 452h629v987z" />
    <glyph glyph-name="five" unicode="5" horiz-adv-x="1452" 
d="M706 -31c-88.667 0 -171.837 14.3291 -249.504 42.9961s-145 69.667 -202 123s-99.167 117.333 -126.5 192l121 60c32.667 -90 90.167 -161 172.5 -213s177.833 -78 286.5 -78c88 0 164.833 17.167 230.5 51.5s116.667 82.833 153 145.5s54.5 136.667 54.5 222
c0 94.667 -21.667 176.334 -65 245.001s-102.333 121.667 -177 159s-159.667 56 -255 56c-83.333 0 -161.666 -16.333 -234.999 -49s-140.666 -80.667 -201.999 -144l135 868h842v-134h-716l-84 -544c126.667 80 265.334 110.333 416.001 91
c96 -7.33301 180.833 -34.666 254.5 -81.999s131.334 -110.166 173.001 -188.499s62.5 -169.166 62.5 -272.499c0 -121.333 -27 -223 -81 -305s-125.5 -143.5 -214.5 -184.5s-186.833 -61.5 -293.5 -61.5z" />
    <glyph glyph-name="six" unicode="6" horiz-adv-x="1453" 
d="M730 -32c-90.667 0 -172.166 15.165 -244.499 45.498s-133.833 71.833 -184.5 124.5s-89.5 112.334 -116.5 179.001s-40.5 136.334 -40.5 209.001c0 80 16.667 162 50 246s76.666 158.333 129.999 223l549 655h185l-510 -608c34.667 18.667 70.667 32.834 108 42.501
s76 14.5 116 14.5c74 0 143.5 -13.833 208.5 -41.5s122.167 -66.834 171.5 -117.501s88.166 -110.5 116.499 -179.5s42.5 -145.167 42.5 -228.5c0 -110 -24.833 -207.5 -74.5 -292.5s-118.167 -151.5 -205.5 -199.5s-187.666 -72 -300.999 -72zM725.001 97.998
c84 0 158.831 18.6689 224.498 56.002s117.334 88.333 155.001 153s56.5 138.667 56.5 222c0 84 -19 159 -57 225s-89.167 117.833 -153.5 155.5s-135.833 56.5 -214.5 56.5c-80.667 0 -154.167 -19.5 -220.5 -58.5s-119.166 -92.167 -158.499 -159.5s-59 -142.333 -59 -225
c0 -76.667 17.5 -147.334 52.5 -212.001s84.5 -116.334 148.5 -155.001s139.333 -58 226 -58z" />
    <glyph glyph-name="seven" unicode="7" horiz-adv-x="1264" 
d="M116 0l828 1516h-813v134h1037v-51l-872 -1599h-180z" />
    <glyph glyph-name="eight" unicode="8" horiz-adv-x="1376" 
d="M688 -32c-100 0 -189.667 20.667 -269 62s-141.666 97.666 -186.999 168.999s-68 151.666 -68 240.999c0 100 28.167 189.167 84.5 267.5s131.5 134.833 225.5 169.5c-76 34.667 -136.167 86.334 -180.5 155.001s-66.5 144 -66.5 226c0 80 20.333 151.667 61 215
s95.667 113.666 165 150.999s147.666 56 234.999 56c62 0 120.667 -10.167 176 -30.5s104.5 -49.333 147.5 -87s76.667 -82.167 101 -133.5s36.5 -108 36.5 -170c0 -84 -22.5 -160 -67.5 -228s-105.167 -119.333 -180.5 -154c95.333 -35.333 171 -92.166 227 -170.499
s84 -167.5 84 -267.5c0 -88.667 -22.667 -168.667 -68 -240s-107.5 -127.666 -186.5 -168.999s-168.833 -62 -269.5 -62zM688 102c70.667 0 133.168 15.3311 187.501 45.998s96.666 72.334 126.999 125.001s45.5 112.334 45.5 179.001c0 68 -15.667 128.333 -47 181
s-74 94.334 -128 125.001s-115.667 46 -185 46c-68 0 -129.167 -15.167 -183.5 -45.5s-97.333 -71.833 -129 -124.5s-47.5 -113 -47.5 -181c0 -67.333 15.333 -127.333 46 -180s73.167 -94.334 127.5 -125.001s116.5 -46 186.5 -46zM688.001 936.998
c60 0 113.669 13.5 161.002 40.5s84.666 63.833 111.999 110.5s41 100 41 160c0 59.333 -13.833 112.666 -41.5 159.999s-65 84.666 -112 111.999s-100.5 41 -160.5 41s-113.5 -13.667 -160.5 -41s-84.333 -64.666 -112 -111.999s-41.5 -100.666 -41.5 -159.999
c0 -60 13.667 -113.333 41 -160s64.666 -83.5 111.999 -110.5s101 -40.5 161 -40.5z" />
    <glyph glyph-name="nine" unicode="9" horiz-adv-x="1453" 
d="M395 0l521.003 620.001c-64 -46 -138 -69 -222 -69c-76 0 -147.333 14 -214 42s-125.334 67.667 -176.001 119s-90.334 111.666 -119.001 180.999s-43 145 -43 227c0 106 24.333 201.333 73 286s116.5 151.667 203.5 201s187.833 74 302.5 74
c115.333 0 217 -24.833 305 -74.5s157 -117.167 207 -202.5s75 -182 75 -290c0 -45.333 -3.83301 -88.333 -11.5 -129s-19.334 -79.667 -35.001 -117s-34.667 -73.5 -57 -108.5s-47.833 -69.833 -76.5 -104.5l-548 -655h-185zM726.003 687.001
c58.667 0 113.669 11.333 165.002 34s96.333 54 135 94s69.167 86.167 91.5 138.5s33.5 108.5 33.5 168.5c0 82 -18.333 155 -55 219s-86.834 114.333 -150.501 151s-136.834 55 -219.501 55c-82 0 -155.667 -18.5 -221 -55.5s-116.666 -87.5 -153.999 -151.5
s-56 -136.667 -56 -218c0 -82 18.833 -155.833 56.5 -221.5s89.167 -117.667 154.5 -156s138.666 -57.5 219.999 -57.5z" />
    <glyph glyph-name="colon" unicode=":" horiz-adv-x="732" 
d="M364 919c-18.667 0 -35.667 4.5 -51 13.5s-27.666 21.333 -36.999 37s-14 32.834 -14 51.501c0 19.333 4.66699 36.666 14 51.999s21.666 27.666 36.999 36.999s32.333 14 51 14c19.333 0 36.666 -4.66699 51.999 -14s27.666 -21.666 36.999 -36.999
s14 -32.666 14 -51.999c0 -18.667 -4.66699 -35.834 -14 -51.501s-21.666 -28 -36.999 -37s-32.666 -13.5 -51.999 -13.5zM364 -32c-18.667 0 -35.667 4.66699 -51 14s-27.666 21.833 -36.999 37.5s-14 32.834 -14 51.501s4.66699 35.834 14 51.501s21.666 28 36.999 37
s32.333 13.5 51 13.5c19.333 0 36.666 -4.5 51.999 -13.5s27.666 -21.333 36.999 -37s14 -32.834 14 -51.501s-4.66699 -35.834 -14 -51.501s-21.666 -28.167 -36.999 -37.5s-32.666 -14 -51.999 -14z" />
    <glyph glyph-name="semicolon" unicode=";" horiz-adv-x="724" 
d="M364 919c-18.667 0 -35.667 4.5 -51 13.5s-27.666 21.333 -36.999 37s-14 32.834 -14 51.501c0 19.333 4.66699 36.666 14 51.999s21.666 27.666 36.999 36.999s32.333 14 51 14c19.333 0 36.666 -4.66699 51.999 -14s27.666 -21.666 36.999 -36.999
s14 -32.666 14 -51.999c0 -18.667 -4.66699 -35.834 -14 -51.501s-21.666 -28 -36.999 -37s-32.666 -13.5 -51.999 -13.5zM313 -243l-38 32c12 14 23 31 33 51s18.5 41.5 25.5 64.5s11.167 46.167 12.5 69.5c-24.667 4 -45 15.167 -61 33.5s-24 39.833 -24 64.5
c0 30 9.66699 54.333 29 73s44.333 28 75 28c32 0 58 -10.5 78 -31.5s30 -50.833 30 -89.5c0 -50 -15.333 -102.667 -46 -158s-68.667 -101 -114 -137z" />
    <glyph glyph-name="less" unicode="&#x3c;" horiz-adv-x="1506" 
d="M1284 270l-1094 514v96l1094 514v-123l-938 -439l938 -439v-123z" />
    <glyph glyph-name="equal" unicode="=" horiz-adv-x="1671" 
d="M323 967v126h1025v-126h-1025zM323 566v126h1025v-126h-1025z" />
    <glyph glyph-name="greater" unicode="&#x3e;" horiz-adv-x="1506" 
d="M222 270v123l938 439l-938 439v123l1094 -514v-96z" />
    <glyph glyph-name="question" unicode="?" horiz-adv-x="1334" 
d="M615 -32c-18.667 0 -35.834 4.66699 -51.501 14s-28 21.833 -37 37.5s-13.5 32.834 -13.5 51.501s4.5 35.834 13.5 51.501s21.333 28 37 37s32.834 13.5 51.501 13.5c19.333 0 36.666 -4.5 51.999 -13.5s27.666 -21.333 36.999 -37s14 -32.834 14 -51.501
s-4.66699 -35.834 -14 -51.501s-21.666 -28.167 -36.999 -37.5s-32.666 -14 -51.999 -14zM549 421v403.002c12.667 -2 25 -3.66699 37 -5s25.667 -2 41 -2c76 0 143.667 14.5 203 43.5s105.833 71.167 139.5 126.5s50.5 122 50.5 200c0 75.333 -15.667 139.833 -47 193.5
s-74.833 94.667 -130.5 123s-120.167 42.5 -193.5 42.5c-109.333 0 -197.5 -32 -264.5 -96s-102.5 -151 -106.5 -261l-127 19c4.66699 101.333 30 187.166 76 257.499s105.5 123.666 178.5 159.999s153.167 54.5 240.5 54.5c100.667 0 189.5 -22 266.5 -66
s137.5 -103.167 181.5 -177.5s66 -157.833 66 -250.5c0 -88 -20 -168.5 -60 -241.5s-95.667 -132 -167 -177s-154.333 -69.833 -249 -74.5v-272h-135z" />
    <glyph glyph-name="at" unicode="@" horiz-adv-x="2119" 
d="M1069 -383c-122 0 -234.829 21.6621 -338.496 64.9951s-193.834 103.666 -270.501 180.999s-136.167 167.666 -178.5 270.999s-63.5 215 -63.5 335c0 122.667 22 236.167 66 340.5s105 195.5 183 273.5s168.833 138.5 272.5 181.5s215.5 64.5 335.5 64.5
c106.667 0 209.667 -17.667 309 -53s188.5 -87.5 267.5 -156.5s141.5 -154.333 187.5 -256s69 -219.167 69 -352.5c0 -56.667 -5.83301 -111 -17.5 -163s-29 -98.167 -52 -138.5s-51.5 -72 -85.5 -95s-73.333 -34.5 -118 -34.5c-49.333 0 -92.833 12.5 -130.5 37.5
s-65.5 54.5 -83.5 88.5c-36.667 -73.333 -89.5 -132.333 -158.5 -177s-148.833 -67 -239.5 -67c-88 0 -167.167 21.333 -237.5 64s-126 101.167 -167 175.5s-61.5 159.833 -61.5 256.5c0 96 20.5 181.333 61.5 256s96.833 133.334 167.5 176.001s150.334 64 239.001 64
c86.667 0 164.334 -21 233.001 -63s121.334 -98.667 158.001 -170v204h106v-579c0 -34.667 5.16699 -64.667 15.5 -90s25 -44.833 44 -58.5s41.5 -20.5 67.5 -20.5c31.333 0 58.666 12.833 81.999 38.5s41.5 62.334 54.5 110.001s19.5 104.834 19.5 171.501
c0 121.333 -20.667 226.833 -62 316.5s-96.333 164.334 -165 224.001s-145.834 104.167 -231.501 133.5s-173.167 44 -262.5 44c-105.333 0 -202.833 -19 -292.5 -57s-167.667 -90.667 -234 -158s-118 -146 -155 -236s-55.5 -187 -55.5 -291
c0 -101.333 17.667 -196.166 53 -284.499s85.166 -166.166 149.499 -233.499s140.666 -120 228.999 -158s185.5 -57 291.5 -57c122.667 0 228.667 24.333 318 73s159.666 106.334 210.999 173.001l106 -64c-41.333 -58.667 -93.333 -111 -156 -157
s-134.334 -82.167 -215.001 -108.5s-169 -39.5 -265 -39.5zM1045 62.9951c72.667 0 137.17 16.8301 193.503 50.4971s100.666 80.334 132.999 140.001s48.5 127.834 48.5 204.501c0 78 -16.167 146.833 -48.5 206.5s-76.833 106.5 -133.5 140.5s-120.667 51 -192 51
s-135.333 -17 -192 -51s-101.334 -81 -134.001 -141s-49 -128.667 -49 -206s16.167 -145.666 48.5 -204.999s76.666 -105.833 132.999 -139.5s120.5 -50.5 192.5 -50.5z" />
    <glyph glyph-name="A" unicode="A" horiz-adv-x="1657" 
d="M108 0l650 1650h141l649 -1650h-164l-201 526h-709l-203 -526h-163zM525 660h606l-303 790z" />
    <glyph glyph-name="B" unicode="B" horiz-adv-x="1297" 
d="M199 0l-0.00292969 1650h349c160.667 0 285.5 -35.833 374.5 -107.5s133.5 -174.834 133.5 -309.501c0 -181.333 -79.333 -305.333 -238 -372c122.667 -17.333 217.334 -62.166 284.001 -134.499s100 -167.166 100 -284.499c0 -92.667 -20.667 -172 -62 -238
s-100.666 -116.5 -177.999 -151.5s-169.666 -52.5 -276.999 -52.5h-486zM350.997 907.999h170c125.333 0 221.666 26.833 288.999 80.5s101 130.167 101 229.5c0 100.667 -33.667 177.667 -101 231s-163.666 80 -288.999 80h-170v-621zM350.997 123.999h293.998
c128.667 0 227.834 27.833 297.501 83.5s104.5 135.167 104.5 238.5s-35.167 183.833 -105.5 241.5s-169.166 86.5 -296.499 86.5h-294v-650z" />
    <glyph glyph-name="C" unicode="C" horiz-adv-x="1608" 
d="M989 -32c-123.333 0 -238 21.6689 -344 65.002s-198.5 103.833 -277.5 181.5s-140.5 168.5 -184.5 272.5s-66 216.333 -66 337s22 233 66 337s105.5 194.833 184.5 272.5s171.333 138.167 277 181.5s220.5 65 344.5 65c103.333 0 200.333 -15.167 291 -45.5
s170.667 -71.833 240 -124.5l-72 -127c-58.667 47.333 -126.667 83.666 -204 108.999s-159.333 38 -246 38c-104.667 0 -200.5 -18 -287.5 -54s-162.5 -86 -226.5 -150s-113.5 -139 -148.5 -225s-52.5 -178.333 -52.5 -277s17.5 -191 52.5 -277s84.5 -161 148.5 -225
s139.5 -114 226.5 -150s182.833 -54 287.5 -54c86.667 0 168.667 12.667 246 38s145.333 61.666 204 108.999l72 -127c-68.667 -52 -148.167 -93.333 -238.5 -124s-187.833 -46 -292.5 -46z" />
    <glyph glyph-name="D" unicode="D" horiz-adv-x="1638" 
d="M269 0v1650h372c116.667 0 225.5 -21 326.5 -63s189.167 -100.5 264.5 -175.5s134.333 -162.5 177 -262.5s64 -208.333 64 -325c0 -116 -21 -224 -63 -324s-100.833 -187.5 -176.5 -262.5s-164 -133.333 -265 -175s-210.167 -62.5 -327.5 -62.5h-372zM421 136
l205.999 0.000976562c97.333 0 187.5 17.5 270.5 52.5s155.667 83.667 218 146s110.833 135.333 145.5 219s52 174.167 52 271.5s-17.333 187.666 -52 270.999s-83.167 156.333 -145.5 219s-135.166 111.5 -218.499 146.5s-173.333 52.5 -270 52.5h-206v-1378z" />
    <glyph glyph-name="E" unicode="E" horiz-adv-x="1276" 
d="M269 0v1650h831v-134h-679v-622h655v-134h-655v-626h679v-134h-831z" />
    <glyph glyph-name="F" unicode="F" horiz-adv-x="1244" 
d="M269 0v1650h835v-134h-743l60 45v-757l-60 90h697v-134h-697l60 90v-850h-152z" />
    <glyph glyph-name="G" unicode="G" horiz-adv-x="1893" 
d="M982 -32c-114.667 0 -221.164 22.002 -319.497 66.002s-184.333 105 -258 183s-131.167 168.833 -172.5 272.5s-62 215.167 -62 334.5c0 110 18.333 216.333 55 319s90.334 194.167 161.001 274.5s157.167 144.166 259.5 191.499s218.5 71 348.5 71
c85.333 0 166 -10.667 242 -32s145.833 -51 209.5 -89s119.167 -82.667 166.5 -134l-79 -116c-62.667 71.333 -141.334 128.5 -236.001 171.5s-196.334 64.5 -305.001 64.5c-104 0 -196.833 -19.333 -278.5 -58s-150.834 -91.5 -207.501 -158.5s-99.667 -143.333 -129 -229
s-44 -175.834 -44 -270.501c0 -102 16.5 -196.833 49.5 -284.5s79.167 -164.334 138.5 -230.001s128.666 -116.667 207.999 -153s164.666 -54.5 255.999 -54.5c74 0 146.667 12.333 218 37s135.5 60.334 192.5 107.001s102.333 102.5 136 167.5s50.5 138.167 50.5 219.5v57
h-608v123h764v-147c0 -116.667 -22 -219 -66 -307s-102.667 -161.167 -176 -219.5s-154.666 -102.333 -243.999 -132s-179.333 -44.5 -270 -44.5z" />
    <glyph glyph-name="H" unicode="H" horiz-adv-x="1742" 
d="M269 0v1650h152v-756h901v756h151v-1650h-151v760h-901v-760h-152z" />
    <glyph glyph-name="I" unicode="I" horiz-adv-x="690" 
d="M269 0v1650h152v-1650h-152z" />
    <glyph glyph-name="J" unicode="J" horiz-adv-x="1263" 
d="M519 -32c-146.667 0 -272.999 51 -378.999 153l60 127c88 -90 189.667 -135 305 -135c112 0 199.167 34.667 261.5 104s93.5 167 93.5 293v1140h151v-1186c0 -156 -43.333 -277.667 -130 -365s-207.334 -131 -362.001 -131z" />
    <glyph glyph-name="K" unicode="K" horiz-adv-x="1507" 
d="M269 0v1650h152v-756l740 756h192l-800 -817l884 -833h-214l-802 749v-749h-152z" />
    <glyph glyph-name="L" unicode="L" horiz-adv-x="1223" 
d="M269 0v1650h152v-1516h691v-134h-843z" />
    <glyph glyph-name="M" unicode="M" horiz-adv-x="2071" 
d="M175 0l214 1650h161l485 -1291l486 1291h161l214 -1650h-152l-183 1367l-471 -1266h-109l-471 1266l-183 -1367h-152z" />
    <glyph glyph-name="N" unicode="N" horiz-adv-x="1728" 
d="M269 0v1650h152l886 -1391v1391h152v-1650h-152l-886 1389v-1389h-152z" />
    <glyph glyph-name="O" unicode="O" horiz-adv-x="2000" 
d="M1000 -32c-115.333 0 -223.333 22 -324 66s-189 105.167 -265 183.5s-135.5 169.333 -178.5 273s-64.5 214.834 -64.5 333.501c0 119.333 21.5 230.666 64.5 333.999s102.5 194.166 178.5 272.499s164.333 139.5 265 183.5s208.667 66 324 66s223.333 -22 324 -66
s189 -105.167 265 -183.5s135.5 -169.166 178.5 -272.499s64.5 -214.666 64.5 -333.999c0 -118.667 -21.5 -229.834 -64.5 -333.501s-102.5 -194.667 -178.5 -273s-164.333 -139.5 -265 -183.5s-208.667 -66 -324 -66zM1000 115c94 0 181.333 18 262 54
s151.5 86.333 212.5 151s108.5 140 142.5 226s51 178.667 51 278s-17 192 -51 278s-81.5 161.333 -142.5 226s-131.833 115 -212.5 151s-168 54 -262 54s-181.5 -18 -262.5 -54s-151.833 -86.333 -212.5 -151s-108.167 -140 -142.5 -226s-51.5 -178.667 -51.5 -278
s17.167 -192 51.5 -278s81.833 -161.333 142.5 -226s131.5 -115 212.5 -151s168.5 -54 262.5 -54z" />
    <glyph glyph-name="P" unicode="P" horiz-adv-x="1369" 
d="M269 0v1650h428c108 0 201.333 -18.667 280 -56s139.5 -90.666 182.5 -159.999s64.5 -152.666 64.5 -249.999c0 -96.667 -21.5 -181.5 -64.5 -254.5s-103.833 -129.667 -182.5 -170s-172 -60.5 -280 -60.5h-276v-699h-152zM421 826.998h240
c82.667 0 154.5 14.333 215.5 43s108.167 69.5 141.5 122.5s50 115.5 50 187.5c0 73.333 -16.667 135.833 -50 187.5s-80.5 91 -141.5 118s-132.833 40.5 -215.5 40.5h-240v-699z" />
    <glyph glyph-name="Q" unicode="Q" horiz-adv-x="1981" 
d="M1782 -54c-54 21.333 -108.835 46.502 -164.502 75.502s-111.5 61.833 -167.5 98.5c-140.667 -101.333 -301.667 -152 -483 -152c-117.333 0 -226.5 21.5 -327.5 64.5s-189 103.167 -264 180.5s-133.5 167.666 -175.5 270.999s-63 215 -63 335s21.333 232.167 64 336.5
s102 195.666 178 273.999s164.5 139.666 265.5 183.999s209.5 66.5 325.5 66.5s224.333 -22 325 -66s188.834 -105.167 264.501 -183.5s134.834 -169.333 177.501 -273s64 -215.167 64 -334.5c0 -116 -21.5 -226.167 -64.5 -330.5s-104.167 -194.833 -183.5 -271.5
c52 -29.333 102.667 -55.666 152 -78.999s97.333 -43 144 -59zM965.998 115.002c64.667 0 126.667 8.99902 186 26.999s114.333 44.333 165 79c-54.667 40 -107 82.833 -157 128.5s-96.667 92.834 -140 141.501l68 80c98.667 -100.667 207.334 -191 326.001 -271
c71.333 64.667 126.166 142.334 164.499 233.001s57.5 187.334 57.5 290.001c0 100 -16.833 193.167 -50.5 279.5s-80.667 161.666 -141 225.999s-131 114.5 -212 150.5s-168.5 54 -262.5 54c-94.667 0 -182.667 -18 -264 -54s-152.333 -86.333 -213 -151
s-108 -140.334 -142 -227.001s-51 -180.667 -51 -282c0 -100.667 16.667 -194 50 -280s80 -160.667 140 -224s130.5 -112.5 211.5 -147.5s169.167 -52.5 264.5 -52.5z" />
    <glyph glyph-name="R" unicode="R" horiz-adv-x="1398" 
d="M269 0l-0.00195312 1650h428c108 0 201.333 -18.667 280 -56s139.5 -90.833 182.5 -160.5s64.5 -152.834 64.5 -249.501c0 -88.667 -18.167 -166.834 -54.5 -234.501s-87.666 -122.334 -153.999 -164.001s-145.166 -67.167 -236.499 -76.5l549 -709h-193l-526 695h-188
v-695h-152zM420.998 827.003h240c84 0 156.333 14.333 217 43s107.5 69.5 140.5 122.5s49.5 115.5 49.5 187.5c0 108 -36 192.667 -108 254s-171.667 92 -299 92h-240v-699z" />
    <glyph glyph-name="S" unicode="S" horiz-adv-x="1367" 
d="M681 -32c-85.333 0 -160.339 12.832 -225.006 38.499s-119.5 56.667 -164.5 93s-81 71.833 -108 106.5s-45.833 60.667 -56.5 78l87 112c12 -18.667 30.167 -43.834 54.5 -75.501s55.5 -63.667 93.5 -96s83.667 -59.666 137 -81.999s115 -33.5 185 -33.5
c66.667 0 127.5 12 182.5 36s99.167 59.667 132.5 107s50 106 50 176c0 58.667 -11.5 108.5 -34.5 149.5s-54.833 75.833 -95.5 104.5s-87.167 54.167 -139.5 76.5s-107.166 44.166 -164.499 65.499c-40 15.333 -81.833 33.5 -125.5 54.5s-84.5 47.333 -122.5 79
s-68.833 70.167 -92.5 115.5s-35.5 100 -35.5 164c0 60 11.333 116.667 34 170s54.334 100.5 95.001 141.5s89.334 73.167 146.001 96.5s119.334 35 188.001 35c66 0 126.667 -10.833 182 -32.5s103.833 -49 145.5 -82s73.834 -67.167 96.501 -102.5l-78 -105
c-18.667 30.667 -44.667 60 -78 88s-72.5 50.833 -117.5 68.5s-94.833 26.5 -149.5 26.5c-68 0 -125.833 -14.667 -173.5 -44s-83.834 -67.166 -108.501 -113.499s-37 -95.166 -37 -146.499c0 -46.667 9.66699 -86.334 29 -119.001s45 -60.167 77 -82.5
s67.167 -41.5 105.5 -57.5s76.833 -31 115.5 -45c64.667 -24 126.834 -49.5 186.501 -76.5s112.834 -59 159.501 -96s83.667 -82 111 -135s41 -117.167 41 -192.5c0 -98.667 -23.333 -182.667 -70 -252s-109.667 -122.166 -189 -158.499s-169 -54.5 -269 -54.5z" />
    <glyph glyph-name="T" unicode="T" horiz-adv-x="1382" 
d="M615 0v1512h-503v138h1160v-138h-505v-1512h-152z" />
    <glyph glyph-name="U" unicode="U" horiz-adv-x="1633" 
d="M817 -32c-190 0 -332.834 52 -428.501 156s-143.5 259.667 -143.5 467v1059h152v-1026c0 -170 34.833 -296.833 104.5 -380.5s174.834 -125.5 315.501 -125.5c140 0 244.833 41.833 314.5 125.5s104.5 210.5 104.5 380.5v1026h153v-1059
c0 -207.333 -47.833 -363 -143.5 -467s-238.5 -156 -428.5 -156z" />
    <glyph glyph-name="V" unicode="V" horiz-adv-x="1717" 
d="M799 0l-692 1650h172l580 -1421l579 1421h172l-692 -1650h-119z" />
    <glyph glyph-name="W" unicode="W" horiz-adv-x="2489" 
d="M610 0l-490 1650h169l413 -1452l483 1452h118l485 -1452l411 1452h169l-490 -1650h-171l-462 1351l-463 -1351h-172z" />
    <glyph glyph-name="X" unicode="X" horiz-adv-x="1652" 
d="M100 0l632 891l-534 759h184l444 -630l444 630h183l-533 -759l631 -891h-190l-535 758l-536 -758h-190z" />
    <glyph glyph-name="Y" unicode="Y" horiz-adv-x="1480" 
d="M664 0v715l-567 935h183l460 -773l460 773h184l-568 -935v-715h-152z" />
    <glyph glyph-name="Z" unicode="Z" horiz-adv-x="1586" 
d="M111 0l1078 1512h-964v138h1240l-1078 -1512h1023v-138h-1299z" />
    <glyph glyph-name="bracketleft" unicode="[" horiz-adv-x="787" 
d="M259 -520v2240h419v-109h-288v-2022h288v-109h-419z" />
    <glyph glyph-name="backslash" unicode="\" horiz-adv-x="1041" 
d="M873 0l-824 1720h119l824 -1720h-119z" />
    <glyph glyph-name="bracketright" unicode="]" horiz-adv-x="787" 
d="M109 -520v109h289v2022h-289v109h420v-2240h-420z" />
    <glyph glyph-name="asciicircum" unicode="^" horiz-adv-x="1264" 
d="M181 1210l414 471h75l414 -471h-131l-321 371l-321 -371h-130z" />
    <glyph glyph-name="underscore" unicode="_" horiz-adv-x="1457" 
d="M215 -201v79h1026v-79h-1026z" />
    <glyph glyph-name="grave" unicode="`" horiz-adv-x="364" 
d="M229 1158l-229 352l115 82l190 -379z" />
    <glyph glyph-name="a" unicode="a" 
d="M652 -32c-96 0 -182.499 23.5 -259.499 70.5s-138 111.5 -183 193.5s-67.5 175.667 -67.5 281c0 104 22.167 196.833 66.5 278.5s105 146.167 182 193.5s164.167 71 261.5 71c92.667 0 176.667 -21.667 252 -65s132.666 -103.333 171.999 -180v213h146v-1024h-146v216
c-44 -77.333 -103 -138 -177 -182s-156.333 -66 -247 -66zM688.001 95c76.667 0 144.5 17.833 203.5 53.5s105.5 85 139.5 148s51 134.833 51 215.5c0 81.333 -16.833 153.333 -50.5 216s-80.167 111.834 -139.5 147.501s-127.333 53.5 -204 53.5
s-144.667 -17.833 -204 -53.5s-106 -84.834 -140 -147.501s-51 -134.667 -51 -216c0 -80.667 17 -152.5 51 -215.5s80.667 -112.333 140 -148s127.333 -53.5 204 -53.5z" />
    <glyph glyph-name="b" unicode="b" 
d="M786 -32c-90.667 0 -173.332 22.001 -247.999 66.001s-133.667 104.667 -177 182v-216h-146v1720h146v-909c42 76.667 100 136.667 174 180s156.667 65 248 65c98 0 185.667 -23.667 263 -71s138.166 -111.833 182.499 -193.5s66.5 -174.834 66.5 -279.501
c0 -105.333 -22.5 -199 -67.5 -281s-105.833 -146.333 -182.5 -193s-163 -70 -259 -70zM750.002 95.001c76.667 0 144.665 17.833 203.998 53.5s105.833 85 139.5 148s50.5 134.5 50.5 214.5c0 81.333 -17 153.5 -51 216.5s-80.5 112.333 -139.5 148
s-126.833 53.5 -203.5 53.5s-144.667 -17.833 -204 -53.5s-106 -85 -140 -148s-51 -135.167 -51 -216.5c0 -80 16.833 -151.5 50.5 -214.5s80.334 -112.333 140.001 -148s127.834 -53.5 204.501 -53.5z" />
    <glyph glyph-name="c" unicode="c" horiz-adv-x="1143" 
d="M691 -32c-76.667 0 -148.663 13.5029 -215.996 40.5029s-126.333 65.167 -177 114.5s-90.334 107 -119.001 173s-43 138 -43 216c0 77.333 14 149 42 215s67.167 123.667 117.5 173s109.166 87.666 176.499 114.999s140.333 41 219 41c67.333 0 131.333 -10 192 -30
s113 -47.667 157 -83l-60 -98c-74.667 58 -165.334 87 -272.001 87c-84 0 -157.833 -18.5 -221.5 -55.5s-113.167 -87.333 -148.5 -151s-53 -134.834 -53 -213.501c0 -79.333 18 -150.833 54 -214.5s86 -113.834 150 -150.501s137.333 -55 220 -55
c52 0 101.167 7.5 147.5 22.5s87.166 36.5 122.499 64.5l61 -98c-44.667 -34.667 -97 -62.167 -157 -82.5s-124 -30.5 -192 -30.5z" />
    <glyph glyph-name="d" unicode="d" 
d="M652 -32c-96 0 -182.501 23.332 -259.501 69.999s-138 111 -183 193s-67.5 175.667 -67.5 281c0 104.667 22.333 197.834 67 279.501s105.5 146.167 182.5 193.5s164.5 71 262.5 71c91.333 0 174 -21.667 248 -65s132 -103.333 174 -180v910h146v-1721h-146v216
c-43.333 -77.333 -102.166 -138 -176.499 -182s-156.833 -66 -247.5 -66zM686.999 94.999c76.667 0 144.668 17.835 204.001 53.502s106 85 140 148s51 134.5 51 214.5c0 81.333 -16.833 153.5 -50.5 216.5s-80.334 112.333 -140.001 148s-127.834 53.5 -204.501 53.5
c-76 0 -143.667 -17.833 -203 -53.5s-106 -85 -140 -148s-51 -135.167 -51 -216.5c0 -80.667 16.833 -152.334 50.5 -215.001s80.334 -111.834 140.001 -147.501s127.5 -53.5 203.5 -53.5z" />
    <glyph glyph-name="e" unicode="e" horiz-adv-x="1335" 
d="M695 -32c-107.333 0 -203.166 23.667 -287.499 71s-150.5 111.833 -198.5 193.5s-72 173.5 -72 275.5c0 76.667 13.833 148.167 41.5 214.5s66.167 124.5 115.5 174.5s106.666 89 171.999 117s135 42 209 42c101.333 0 191.5 -22.167 270.5 -66.5
s141.667 -105.5 188 -183.5s70.833 -168 73.5 -270c0 -8 -0.166992 -14.5 -0.5 -19.5s-1.16602 -11.167 -2.49902 -18.5h-922c0 -80 18 -150.667 54 -212s85.5 -109.5 148.5 -144.5s135.167 -52.5 216.5 -52.5c77.333 0 146.833 16.167 208.5 48.5
s113.167 78.833 154.5 139.5l108 -58c-48.667 -79.333 -114.834 -141 -198.501 -185s-176.5 -66 -278.5 -66zM290 608h771c-8.66699 64 -31 120.5 -67 169.5s-81.5 87.5 -136.5 115.5s-115.167 42 -180.5 42c-67.333 0 -128.666 -13.833 -183.999 -41.5
s-100.833 -66 -136.5 -115s-57.834 -105.833 -66.501 -170.5z" />
    <glyph glyph-name="f" unicode="f" horiz-adv-x="724" 
d="M236 0v913.999h-103v110h103v367c0 76.667 11 141.667 33 195s54 94 96 122s93.667 42 155 42c38 0 73.333 -5.16699 106 -15.5s61.334 -25.166 86.001 -44.499l-51 -104c-30.667 24 -69.334 36 -116.001 36c-37.333 0 -68 -9.16699 -92 -27.5s-41.833 -44.5 -53.5 -78.5
s-17.5 -74.333 -17.5 -121v-371h261v-110h-261v-914h-146z" />
    <glyph glyph-name="g" unicode="g" 
d="M667 -550c-129.333 0 -238.67 25.334 -328.003 76.001s-155.666 124.667 -198.999 222l123 57c31.333 -70.667 83.333 -126.834 156 -168.501s155.334 -62.5 248.001 -62.5c78 0 147.833 15.5 209.5 46.5s110.334 75.833 146.001 134.5s53.5 129 53.5 211v250
c-42.667 -77.333 -101.167 -138 -175.5 -182s-157.166 -66 -248.499 -66c-95.333 0 -181.5 23.333 -258.5 70s-138 111 -183 193s-67.5 175.667 -67.5 281c0 104.667 22.333 197.834 67 279.501s105.5 146.167 182.5 193.5s164.5 71 262.5 71
c90.667 0 173.167 -21.667 247.5 -65s132.166 -103.333 173.499 -180v213h146v-1052c0 -113.333 -22.333 -208.833 -67 -286.5s-108.5 -136.334 -191.5 -176.001s-181.833 -59.5 -296.5 -59.5zM686.996 95.001c77.333 0 145.666 17.833 204.999 53.5s106 85 140 148
s51 134.5 51 214.5c0 81.333 -17 153.5 -51 216.5s-80.667 112.333 -140 148s-127.333 53.5 -204 53.5s-144.667 -17.833 -204 -53.5s-106 -85 -140 -148s-51 -135.167 -51 -216.5c0 -80 16.833 -151.5 50.5 -214.5s80.334 -112.333 140.001 -148s127.5 -53.5 203.5 -53.5z
" />
    <glyph glyph-name="h" unicode="h" horiz-adv-x="1286" 
d="M215 0v1721h146v-837c28 48 71.333 88.667 130 122s130.334 50 215.001 50c79.333 0 147.666 -16.333 204.999 -49s101.333 -80.167 132 -142.5s46 -137.5 46 -225.5v-639h-146v611c0 106 -24.667 187 -74 243s-119 84 -209 84c-62.667 0 -116.167 -12.667 -160.5 -38
s-78.5 -58.5 -102.5 -99.5s-36 -85.5 -36 -133.5v-667h-146z" />
    <glyph glyph-name="i" unicode="i" horiz-adv-x="577" 
d="M214 0v1024h146v-1024h-146zM288 1229c-18 0 -34.167 4.33398 -48.5 13.001s-25.833 20.334 -34.5 35.001s-13 30.667 -13 48s4.33301 33.166 13 47.499s20.167 25.833 34.5 34.5s30.5 13 48.5 13c17.333 0 33 -4.33301 47 -13s25.5 -20 34.5 -34s13.5 -30 13.5 -48
c0 -17.333 -4.5 -33.333 -13.5 -48s-20.5 -26.334 -34.5 -35.001s-29.667 -13 -47 -13z" />
    <glyph glyph-name="j" unicode="j" horiz-adv-x="578" 
d="M85 -550c-35.333 0 -69.6689 4.33203 -103.002 12.999s-60.666 21.334 -81.999 38.001l43 117c30.667 -25.333 69.334 -38 116.001 -38c104.667 0 157 69.333 157 208v1236h146v-1249c0 -105.333 -23.667 -185.833 -71 -241.5s-116 -83.5 -206 -83.5zM288.997 1231
c-17.333 0 -33.333 4.16797 -48 12.501s-26.334 19.833 -35.001 34.5s-13 30.667 -13 48c0 18 4.33301 34.333 13 49s20.334 26.167 35.001 34.5s30.667 12.5 48 12.5s33.333 -4.16699 48 -12.5s26.334 -19.833 35.001 -34.5s13 -30.667 13 -48s-4.33301 -33.333 -13 -48
s-20.334 -26.334 -35.001 -35.001s-30.667 -13 -48 -13z" />
    <glyph glyph-name="k" unicode="k" horiz-adv-x="1102" 
d="M215 0v1720h146v-1115l409 419h191l-467 -482l491 -542h-187l-437 486v-486h-146z" />
    <glyph glyph-name="l" unicode="l" horiz-adv-x="577" 
d="M215 0v1720h146v-1720h-146z" />
    <glyph glyph-name="m" unicode="m" horiz-adv-x="1989" 
d="M215 0l-0.00390625 1024h146v-140c40.667 56.667 89.334 99.5 146.001 128.5s120 43.5 190 43.5c84 0 157.167 -19.333 219.5 -58s105.5 -91.334 129.5 -158.001c39.333 65.333 89.5 117.666 150.5 156.999s133.5 59 217.5 59c72.667 0 137.334 -14.833 194.001 -44.5
s101.167 -73 133.5 -130s48.5 -126.5 48.5 -208.5v-673h-146v632c0 93.333 -24.333 167.333 -73 222s-113.667 82 -195 82c-56 0 -106.667 -12.333 -152 -37s-81.333 -56.5 -108 -95.5s-40 -79.167 -40 -120.5v-683h-146v647c0 88.667 -24.167 159 -72.5 211
s-112.166 78 -191.499 78c-56 0 -107.167 -11.833 -153.5 -35.5s-83.166 -54.167 -110.499 -91.5s-41 -75.666 -41 -114.999v-694h-146z" />
    <glyph glyph-name="n" unicode="n" horiz-adv-x="1286" 
d="M215 0v1024h146v-140c28 48 71.333 88.667 130 122s130.334 50 215.001 50c79.333 0 147.666 -16.333 204.999 -49s101.333 -80.167 132 -142.5s46 -137.5 46 -225.5v-639h-146v611c0 106 -24.667 186.833 -74 242.5s-119 83.5 -209 83.5
c-62.667 0 -116.167 -12.5 -160.5 -37.5s-78.5 -58 -102.5 -99s-36 -85.5 -36 -133.5v-667h-146z" />
    <glyph glyph-name="o" unicode="o" horiz-adv-x="1408" 
d="M704 -32c-106.667 0 -202.832 23 -288.499 69s-153.5 110 -203.5 192s-75 176.333 -75 283c0 107.333 25 201.833 75 283.5s117.667 145.5 203 191.5s181.666 69 288.999 69c106.667 0 202.834 -23 288.501 -69s153.5 -109.833 203.5 -191.5s75 -176.167 75 -283.5
c0 -106.667 -25 -201 -75 -283s-117.833 -146 -203.5 -192s-181.834 -69 -288.501 -69zM704.002 98c80 0 151.333 17.668 214 53.001s112 84.166 148 146.499s54 133.833 54 214.5s-18 152.167 -54 214.5s-85.333 111.166 -148 146.499s-134 53 -214 53
s-151.333 -17.667 -214 -53s-112 -84.166 -148 -146.499s-54 -133.833 -54 -214.5c0 -80 18 -151.333 54 -214s85.333 -111.667 148 -147s134 -53 214 -53z" />
    <glyph glyph-name="p" unicode="p" 
d="M215 -520l0.000976562 1544h146v-212c41.333 76.667 99.166 136.5 173.499 179.5s156.833 64.5 247.5 64.5c98 0 185.667 -23.667 263 -71s138.333 -111.833 183 -193.5s67 -174.834 67 -279.501c0 -103.333 -22.167 -196.166 -66.5 -278.499
s-105 -147.166 -182 -194.499s-164.5 -71 -262.5 -71c-89.333 0 -171.333 22 -246 66s-133.667 104.667 -177 182v-736h-146zM750.001 94.999c76.667 0 144.667 17.832 204 53.499s105.833 84.834 139.5 147.501s50.5 134.334 50.5 215.001c0 81.333 -17 153.5 -51 216.5
s-80.5 112.333 -139.5 148s-126.833 53.5 -203.5 53.5s-144.667 -17.833 -204 -53.5s-106 -84.834 -140 -147.501s-51 -134.667 -51 -216c0 -80.667 17 -152.5 51 -215.5s80.833 -112.333 140.5 -148s127.5 -53.5 203.5 -53.5z" />
    <glyph glyph-name="q" unicode="q" 
d="M1076 -520l0.000976562 736.001c-44 -77.333 -103 -138 -177 -182s-156 -66 -246 -66c-98 0 -185.333 23.667 -262 71s-137.334 112.166 -182.001 194.499s-67 175.166 -67 278.499c0 104.667 22.333 197.834 67 279.501s105.667 146.167 183 193.5s165.333 71 264 71
c90 0 172 -21.667 246 -65s132 -103.333 174 -180v213h146v-1544h-146zM687.001 95.001c76.667 0 144.668 17.834 204.001 53.501s106 85 140 148s51 134.833 51 215.5c0 81.333 -16.833 153.333 -50.5 216s-80.334 111.834 -140.001 147.501s-127.834 53.5 -204.501 53.5
c-76 0 -143.667 -17.833 -203 -53.5s-106 -84.834 -140 -147.501s-51 -134.667 -51 -216c0 -80.667 16.833 -152.334 50.5 -215.001s80.334 -112 140.001 -148s127.5 -54 203.5 -54z" />
    <glyph glyph-name="r" unicode="r" horiz-adv-x="893" 
d="M215 0l-0.000976562 1024h146v-151c32.667 60 74.834 105.5 126.501 136.5s111.5 46.5 179.5 46.5c30 0 60.5 -3.33301 91.5 -10s57.833 -15.334 80.5 -26.001l-60 -123c-20 10 -42.833 17.667 -68.5 23s-50.167 8 -73.5 8c-47.333 0 -92 -12 -134 -36
s-76.167 -55.167 -102.5 -93.5s-39.5 -79.166 -39.5 -122.499v-676h-146z" />
    <glyph glyph-name="s" unicode="s" horiz-adv-x="991" 
d="M481 -32c-84.667 0 -159.332 20.5 -223.999 61.5s-115 99.167 -151 174.5l78 84c32 -65.333 73.667 -116.166 125 -152.499s108.333 -54.5 171 -54.5c42 0 80.5 8.66699 115.5 26s63 42.166 84 74.499s31.5 70.833 31.5 115.5c0 40.667 -9.83301 72.667 -29.5 96
s-48.334 43.5 -86.001 60.5s-84.5 36.167 -140.5 57.5c-43.333 17.333 -85.333 37 -126 59s-74.167 49.833 -100.5 83.5s-39.5 76.5 -39.5 128.5c0 52.667 14 99.5 42 140.5s66.667 73.333 116 97s105.333 35.5 168 35.5c57.333 0 111.166 -12.333 161.499 -37
s95.5 -59.667 135.5 -105l-67 -85c-61.333 80.667 -137.666 121 -228.999 121c-56 0 -101.5 -14.667 -136.5 -44s-52.5 -67.666 -52.5 -114.999c0 -34 11 -62.333 33 -85s50.833 -42 86.5 -58s74.167 -32 115.5 -48c60 -22.667 112.167 -45.334 156.5 -68.001
s78.833 -51.5 103.5 -86.5s37 -82.5 37 -142.5c0 -68.667 -16 -128 -48 -178s-76.5 -88.5 -133.5 -115.5s-122.5 -40.5 -196.5 -40.5z" />
    <glyph glyph-name="t" unicode="t" horiz-adv-x="746" 
d="M470 -32c-76.667 0 -136.165 25.833 -178.498 77.5s-63.5 124.5 -63.5 218.5v650h-104v110h104v383h146v-383h255v-110h-255v-642c0 -56.667 11 -100 33 -130s53.333 -45 94 -45c39.333 0 74 11 104 33l37 -116c-22.667 -14 -49.334 -25.167 -80.001 -33.5
s-61.334 -12.5 -92.001 -12.5z" />
    <glyph glyph-name="u" unicode="u" horiz-adv-x="1259" 
d="M629 -32c-155.333 0 -266.333 35 -333 105s-100 187 -100 351v600h146v-574c0 -129.333 22 -221.5 66 -276.5s117.667 -82.5 221 -82.5c104 0 177.833 27.5 221.5 82.5s65.5 147.167 65.5 276.5v574h146v-600c0 -164 -33.167 -281 -99.5 -351s-177.5 -105 -333.5 -105z
" />
    <glyph glyph-name="v" unicode="v" horiz-adv-x="1218" 
d="M561 0l-497 1024h171l374 -816l375 816h171l-498 -1024h-96z" />
    <glyph glyph-name="w" unicode="w" horiz-adv-x="1956" 
d="M561 0l-497 1024h167l375 -814l323 814h98l323 -814l375 814h167l-497 -1024h-97l-320 797l-321 -797h-96z" />
    <glyph glyph-name="x" unicode="x" horiz-adv-x="1177" 
d="M62 0l433 528l-375 496h168l301 -395l301 395h167l-374 -496l432 -528h-173l-353 435l-354 -435h-173z" />
    <glyph glyph-name="y" unicode="y" horiz-adv-x="1232" 
d="M298 -520l252 545l-487 999h165l405 -849l368 849h165l-703 -1544h-165z" />
    <glyph glyph-name="z" unicode="z" horiz-adv-x="1198" 
d="M80 0l758 904h-680v120h946l-759 -904h736v-120h-1001z" />
    <glyph glyph-name="braceleft" unicode="{" horiz-adv-x="774" 
d="M571 -520c-64 0 -116.667 10.832 -158 32.499s-73.666 50.334 -96.999 86.001s-39.666 74.834 -48.999 117.501s-14 84.667 -14 126v614c0 36 -7.5 61.5 -22.5 76.5s-36.833 22.5 -65.5 22.5v90c28.667 0 50.5 7.66699 65.5 23s22.5 40.666 22.5 75.999v614
c0 41.333 4.66699 83.333 14 126s25.666 81.834 48.999 117.501s55.666 64.334 96.999 86.001s94 32.5 158 32.5h79v-116h-45c-74 0 -129.333 -22.333 -166 -67s-55 -107.334 -55 -188.001v-631c0 -31.333 -5 -56.5 -15 -75.5s-23.667 -33.167 -41 -42.5
c17.333 -9.33301 31 -23.5 41 -42.5s15 -44.167 15 -75.5v-631c0 -80.667 18.333 -143.334 55 -188.001s92 -67 166 -67h45v-116h-79z" />
    <glyph glyph-name="bar" unicode="|" horiz-adv-x="776" 
d="M323 0v1720h131v-1720h-131z" />
    <glyph glyph-name="braceright" unicode="}" horiz-adv-x="774" 
d="M124 -520v116.001h45c74 0 129.333 22.333 166 67s55 107.334 55 188.001v631c0 31.333 5 56.5 15 75.5s23.667 33.167 41 42.5c-17.333 9.33301 -31 23.5 -41 42.5s-15 44.167 -15 75.5v631c0 80.667 -18.333 143.334 -55 188.001s-92 67 -166 67h-45v116h79
c64 0 116.667 -10.833 158 -32.5s73.666 -50.334 96.999 -86.001s39.666 -74.834 48.999 -117.501s14 -84.667 14 -126v-614c0 -35.333 7.5 -60.666 22.5 -75.999s37.167 -23 66.5 -23v-90c-29.333 0 -51.5 -7.5 -66.5 -22.5s-22.5 -40.5 -22.5 -76.5v-614
c0 -41.333 -4.66699 -83.333 -14 -126s-25.666 -81.834 -48.999 -117.501s-55.666 -64.334 -96.999 -86.001s-94 -32.5 -158 -32.5h-79z" />
    <glyph glyph-name="asciitilde" unicode="~" horiz-adv-x="1517" 
d="M962 689c-43.333 0 -82.168 8.16602 -116.501 24.499s-66.666 35.333 -96.999 57s-61.166 40.667 -92.499 57s-66 24.5 -104 24.5c-50.667 0 -94.5 -15.167 -131.5 -45.5s-66.167 -67.166 -87.5 -110.499l-83 73c20 36.667 45.333 70.167 76 100.5
s65.167 54.833 103.5 73.5s79.5 28 123.5 28s83 -8.16699 117 -24.5s66.167 -35.333 96.5 -57s61.166 -40.667 92.499 -57s66 -24.5 104 -24.5c45.333 0 87 13.667 125 41s69.667 65.333 95 114l83 -72c-22 -39.333 -49 -74.333 -81 -105s-67 -54.5 -105 -71.5
s-77.333 -25.5 -118 -25.5z" />
    <glyph glyph-name="uni00A0" unicode="&#xa0;" horiz-adv-x="514" 
 />
    <glyph glyph-name="exclamdown" unicode="&#xa1;" horiz-adv-x="735" 
d="M296 -522l15 1323h114l14 -1323h-143zM367 1025c-18.667 0 -35.667 4.66699 -51 14s-27.666 21.666 -36.999 36.999s-14 32.333 -14 51c0 19.333 4.66699 36.666 14 51.999s21.666 27.666 36.999 36.999s32.333 14 51 14s35.834 -4.66699 51.501 -14
s28.167 -21.666 37.5 -36.999s14 -32.666 14 -51.999c0 -18.667 -4.66699 -35.667 -14 -51s-21.833 -27.666 -37.5 -36.999s-32.834 -14 -51.501 -14z" />
    <glyph glyph-name="cent" unicode="&#xa2;" horiz-adv-x="1352" 
d="M726 -258l-0.000976562 231.003c-96 8 -181.667 36.667 -257 86s-134.5 113.333 -177.5 192s-64.5 165.667 -64.5 261c0 90 19 172.333 57 247s90.667 137 158 187s145.666 82.667 234.999 98v228h96v-217c74.667 0 141.167 -9.33301 199.5 -28s110.833 -47 157.5 -85
l-48 -100c-38 32.667 -81.5 57.5 -130.5 74.5s-101.167 25.5 -156.5 25.5c-82 0 -154.667 -18.333 -218 -55s-113 -87.334 -149 -152.001s-54 -139 -54 -223c0 -82.667 17.833 -156.334 53.5 -221.001s85.334 -115.334 149.001 -152.001s136.834 -55 219.501 -55
c54.667 0 106.834 8.5 156.501 25.5s92.834 40.833 129.501 71.5l48 -100c-40.667 -32.667 -87.334 -58.5 -140.001 -77.5s-108.334 -30.167 -167.001 -33.5v-228h-97z" />
    <glyph glyph-name="sterling" unicode="&#xa3;" horiz-adv-x="1717" 
d="M1153 -30c-54.667 0 -105.333 8.32715 -152 24.9941s-91.167 35.834 -133.5 57.501s-84.333 40.834 -126 57.501s-85.5 25 -131.5 25c-34 0 -66.5 -5.5 -97.5 -16.5s-56.833 -26.667 -77.5 -47s-33 -44.166 -37 -71.499h-129c2 42 15.667 81.333 41 118
s59.166 66.834 101.499 90.501s89.833 36.834 142.5 39.501c12 26.667 22 58 30 94s12 72 12 108c0 37.333 -4.66699 69.666 -14 96.999s-21 53 -35 77h-324v91h277c-38.667 57.333 -73.167 119.833 -103.5 187.5s-45.5 147.167 -45.5 238.5c0 109.333 23 204.333 69 285
s109.667 143.334 191 188.001s174.333 67 279 67c90 0 172.333 -16.5 247 -49.5s138 -80.333 190 -142s88 -135.834 108 -222.501l-127 -53c-12 56.667 -34.667 111 -68 163s-78.666 94.833 -135.999 128.5s-128.333 50.5 -213 50.5c-82 0 -152.667 -17.167 -212 -51.5
s-105.166 -82.166 -137.499 -143.499s-48.5 -133.333 -48.5 -216c0 -60 7.5 -114.5 22.5 -163.5s34 -95 57 -138l69.5 -128.5h495v-91h-462c14 -26.667 25 -53.5 33 -80.5s12 -57.833 12 -92.5c0 -31.333 -3.5 -65 -10.5 -101s-18.833 -72.667 -35.5 -110
c40 -1.33301 79 -9.5 117 -24.5s75.833 -32 113.5 -51s76.167 -35.667 115.5 -50s80.333 -21.5 123 -21.5c52.667 0 97.167 11.333 133.5 34s64.666 52.334 84.999 89.001s32.833 75.667 37.5 117l119 -58c-9.33301 -57.333 -30.333 -109 -63 -155
s-74.5 -82.5 -125.5 -109.5s-109.833 -40.5 -176.5 -40.5z" />
    <glyph glyph-name="currency" unicode="&#xa4;" horiz-adv-x="1225" 
d="M184 161l-57 58l135 135c-32.667 39.333 -58.5 84 -77.5 134s-28.5 103 -28.5 159c0 56.667 9.5 110 28.5 160s44.833 94.667 77.5 134l-135 135l57 58l135 -136c40 33.333 85 59.5 135 78.5s103 28.5 159 28.5s109.167 -9.5 159.5 -28.5s94.833 -45.167 133.5 -78.5
l135 136l57 -58l-135 -135c33.333 -39.333 59.333 -84 78 -134s28 -103.333 28 -160c0 -56 -9.33301 -109 -28 -159s-44.667 -95 -78 -135l135 -134l-57 -58l-135 135c-38.667 -33.333 -83.167 -59.333 -133.5 -78s-103.5 -28 -159.5 -28s-109 9.33301 -159 28
s-95 45 -135 79zM613 308c62.667 0 119.667 15.167 171 45.5s92.166 71.166 122.499 122.499s45.5 108.333 45.5 171c0 64 -15.167 121.5 -45.5 172.5s-71.166 91.5 -122.499 121.5s-108.333 45 -171 45c-63.333 0 -120.666 -15 -171.999 -45s-92.166 -70.5 -122.499 -121.5
s-45.5 -108.5 -45.5 -172.5c0 -62.667 15.167 -119.667 45.5 -171s71.166 -92.166 122.499 -122.499s108.666 -45.5 171.999 -45.5z" />
    <glyph glyph-name="yen" unicode="&#xa5;" horiz-adv-x="1659" 
d="M753 0v318h-395v112h395v239h-395v112h354l-526 869h184l458 -773l461 773h183l-525 -869h353v-112h-394v-239h394v-112h-394v-318h-153z" />
    <glyph glyph-name="brokenbar" unicode="&#xa6;" horiz-adv-x="776" 
d="M323 1056v664h131v-664h-131zM323 0v664h131v-664h-131z" />
    <glyph glyph-name="section" unicode="&#xa7;" horiz-adv-x="1476" 
d="M743 -550c-75.333 0 -143.833 10.9971 -205.5 32.9971s-115.667 51.167 -162 87.5s-84.333 75.833 -114 118.5s-50.5 84.667 -62.5 126l132 37c19.333 -53.333 49.333 -100.5 90 -141.5s88.667 -73.167 144 -96.5s114.333 -35 177 -35c64.667 0 122 12.667 172 38
s89.5 61 118.5 107s43.5 99.667 43.5 161c0 66 -17.833 120.167 -53.5 162.5s-84.667 79 -147 110s-133.833 62.167 -214.5 93.5c-44 18.667 -89.167 39.5 -135.5 62.5s-88.833 49.667 -127.5 80s-69.667 65.833 -93 106.5s-34.666 87.334 -33.999 140.001
c2 64 21.833 122.667 59.5 176s87.5 92.333 149.5 117c-61.333 40 -107.5 86.833 -138.5 140.5s-46.5 115.167 -46.5 184.5c0 80.667 18.833 152.667 56.5 216s90 113.5 157 150.5s144.833 55.5 233.5 55.5c57.333 0 109.333 -7.5 156 -22.5s88 -35.667 124 -62
s66.167 -56.166 90.5 -89.499s43.166 -68.333 56.499 -105l-133 -36c-18 52.667 -53.5 96.834 -106.5 132.501s-114.167 53.5 -183.5 53.5c-56.667 0 -107.334 -12.667 -152.001 -38s-79.5 -59.5 -104.5 -102.5s-37.5 -90.833 -37.5 -143.5
c0 -46.667 10.333 -86.5 31 -119.5s48.167 -61.5 82.5 -85.5s72.333 -45.167 114 -63.5s82.834 -35.5 123.501 -51.5c48 -20 98.667 -42.333 152 -67s103 -53.334 149 -86.001s83.333 -70.5 112 -113.5s42.667 -92.833 42 -149.5c-1.33301 -62.667 -21 -120.5 -59 -173.5
s-89 -93.167 -153 -120.5c63.333 -43.333 110.833 -93.666 142.5 -150.999s47.5 -122.333 47.5 -195c0 -90 -22 -168 -66 -234s-103.167 -117 -177.5 -153s-157.5 -54 -249.5 -54zM941 295.997c29.333 10.667 56.3311 26.499 80.998 47.499s44.667 46 60 75
s23 60.167 23 93.5c0 39.333 -11.833 75 -35.5 107s-63 63.5 -118 94.5s-129.833 63.833 -224.5 98.5c-26 9.33301 -48.167 18 -66.5 26s-43.166 19.667 -74.499 35c-26.667 -8.66699 -52.5 -23.167 -77.5 -43.5s-45.167 -45.333 -60.5 -75s-23 -62.834 -23 -99.501
c0 -42 10.667 -77.5 32 -106.5s53.333 -55 96 -78s95.667 -46.833 159 -71.5c40.667 -15.333 72.834 -28.166 96.501 -38.499s45 -20.166 64 -29.499z" />
    <glyph glyph-name="dieresis" unicode="&#xa8;" horiz-adv-x="650" 
d="M561 1309c-24.667 0 -45.667 8.66699 -63 26s-26 38.333 -26 63s8.66699 45.667 26 63s38.333 26 63 26s45.667 -8.66699 63 -26s26 -38.333 26 -63s-8.66699 -45.667 -26 -63s-38.333 -26 -63 -26zM89 1309c-24.667 0 -45.667 8.66699 -63 26s-26 38.333 -26 63
s8.66699 45.667 26 63s38.333 26 63 26s45.667 -8.66699 63 -26s26 -38.333 26 -63s-8.66699 -45.667 -26 -63s-38.333 -26 -63 -26z" />
    <glyph glyph-name="copyright" unicode="&#xa9;" horiz-adv-x="2114" 
d="M1056 -31c-118 0 -227.833 21.6699 -329.5 65.0029s-190.667 103.666 -267 180.999s-135.833 167.833 -178.5 271.5s-64 215.5 -64 335.5c0 119.333 21.667 230.666 65 333.999s103.333 194.333 180 273s165.667 140.167 267 184.5s210.333 66.5 327 66.5
c117.333 0 226.833 -22 328.5 -66s191 -105.333 268 -184s137.167 -169.834 180.5 -273.501s65 -215.5 65 -335.5c0 -118.667 -21.5 -229.667 -64.5 -333s-102.833 -194 -179.5 -272s-166 -138.667 -268 -182s-212 -65 -330 -65zM1056 75.0029
c102.667 0 198.336 18.998 287.003 56.998s166.167 91 232.5 159s118.166 147.167 155.499 237.5s56 187.833 56 292.5c0 105.333 -18.667 203.5 -56 294.5s-89.5 170.833 -156.5 239.5s-144.833 122.334 -233.5 161.001s-183.667 58 -285 58s-196 -19.333 -284 -58
s-165.333 -92.5 -232 -161.5s-118.834 -149 -156.501 -240s-56.5 -188.833 -56.5 -293.5c0 -105.333 18.5 -203.166 55.5 -293.499s88.667 -169.5 155 -237.5s143.666 -120.833 231.999 -158.5s183.833 -56.5 286.5 -56.5zM1079 325.001
c-94.667 0 -180.333 22.002 -257 66.002s-137.5 103.667 -182.5 179s-67.5 159.666 -67.5 252.999c0 94 22.333 178.667 67 254s105.5 135.166 182.5 179.499s163.833 66.5 260.5 66.5c59.333 0 116.666 -8.83301 171.999 -26.5s104 -42.834 146 -75.501l-50 -85
c-70.667 54 -155 81 -253 81c-74 0 -140.667 -17.167 -200 -51.5s-106.166 -81.166 -140.499 -140.499s-51.5 -126.333 -51.5 -201s17 -141.5 51 -200.5s80.667 -105.5 140 -139.5s127 -51 203 -51c47.333 0 93 6.83301 137 20.5s81.667 33.167 113 58.5l51 -86
c-99.333 -67.333 -206.333 -101 -321 -101z" />
    <glyph glyph-name="ordfeminine" unicode="&#xaa;" horiz-adv-x="1058" 
d="M483 1008c-59.333 0 -112.833 14.3311 -160.5 42.998s-85.334 68.334 -113.001 119.001s-41.5 108.667 -41.5 174c0 64.667 13.667 122.334 41 173.001s65 90.5 113 119.5s102.667 43.5 164 43.5c55.333 0 105.833 -13.5 151.5 -40.5s80.834 -63.833 105.501 -110.5v131
h91v-632h-91v134c-24.667 -46.667 -59.667 -84 -105 -112s-97 -42 -155 -42zM504 1085c46.667 0 88.167 11.335 124.5 34.002s64.833 53.5 85.5 92.5s31 83.167 31 132.5c0 76 -22.667 138.167 -68 186.5s-103 72.5 -173 72.5c-46.667 0 -88.334 -11.167 -125.001 -33.5
s-65.5 -52.833 -86.5 -91.5s-31.5 -83.334 -31.5 -134.001c0 -50 10.5 -94.333 31.5 -133s49.833 -69.334 86.5 -92.001s78.334 -34 125.001 -34z" />
    <glyph glyph-name="guillemotleft" unicode="&#xab;" horiz-adv-x="1084" 
d="M520 57l-390 500l390 500l88 -70l-336 -430l336 -432zM850 57l-390 500l390 500l88 -70l-336 -430l336 -432z" />
    <glyph glyph-name="logicalnot" unicode="&#xac;" horiz-adv-x="1432" 
d="M1102 316v450h-898v126h1024v-576h-126z" />
    <glyph glyph-name="uni00AD" unicode="&#xad;" horiz-adv-x="1075" 
d="M215 517v125h644v-125h-644z" />
    <glyph glyph-name="registered" unicode="&#xae;" horiz-adv-x="1388" 
d="M694 773c-84 0 -160.833 20.833 -230.5 62.5s-125 97.167 -166 166.5s-61.5 145.666 -61.5 228.999c0 84 20.5 160.833 61.5 230.5s96.167 125.334 165.5 167.001s146.333 62.5 231 62.5c84 0 160.667 -20.833 230 -62.5s124.5 -97.167 165.5 -166.5
s61.5 -146.333 61.5 -231s-20.667 -161.667 -62 -231s-96.5 -124.5 -165.5 -165.5s-145.5 -61.5 -229.5 -61.5zM693 842c72 0 137.331 17.334 195.998 52.001s105.834 81.667 141.501 141s53.5 124.666 53.5 195.999c0 72 -17.667 137.5 -53 196.5
s-82.666 106.167 -141.999 141.5s-124.333 53 -195 53c-72 0 -137.333 -17.833 -196 -53.5s-105.667 -83 -141 -142s-53 -124.167 -53 -195.5s17.667 -136.5 53 -195.5s82.5 -106 141.5 -141s123.833 -52.5 194.5 -52.5zM557.998 953.001v557.001h115
c52.667 0 95 -13.5 127 -40.5s48 -65.5 48 -115.5c0 -44.667 -13.5 -81.334 -40.5 -110.001s-62.833 -45 -107.5 -49l188 -242h-74l-181 238h-17v-238h-58zM615.998 1238h42.002c37.333 0 68.166 10.333 92.499 31s36.5 49 36.5 85s-12.333 63 -37 81s-55.334 27 -92.001 27
h-42v-224z" />
    <glyph glyph-name="macron" unicode="&#xaf;" horiz-adv-x="816" 
d="M0 1337v104h816v-104h-816z" />
    <glyph glyph-name="degree" unicode="&#xb0;" horiz-adv-x="992" 
d="M495 1338c-62 0 -112.667 19.501 -152 58.501s-59 87.833 -59 146.5c0 61.333 20.667 111.166 62 149.499s91 57.5 149 57.5c60 0 110.5 -19 151.5 -57s61.5 -87.667 61.5 -149c0 -60.667 -20 -110.167 -60 -148.5s-91 -57.5 -153 -57.5zM496 1406
c40 0 72.5 12.833 97.5 38.5s37.5 58.5 37.5 98.5c0 42 -13.333 75.667 -40 101s-58.667 38 -96 38s-68.833 -13 -94.5 -39s-38.5 -59.333 -38.5 -100c0 -40 12.333 -72.833 37 -98.5s57 -38.5 97 -38.5z" />
    <glyph glyph-name="plusminus" unicode="&#xb1;" horiz-adv-x="1480" 
d="M677 346v435h-449v125h449v435h126v-435h449v-125h-449v-435h-126zM228 0v126h1024v-126h-1024z" />
    <glyph glyph-name="uni00B2" unicode="&#xb2;" horiz-adv-x="660" 
d="M85 1026v45.9971c88 62.667 158.833 117.834 212.5 165.501s92.667 90.667 117 129s36.5 74.833 36.5 109.5c0 40 -13 72.5 -39 97.5s-58 37.5 -96 37.5c-40.667 0 -75.334 -14.667 -104.001 -44s-46.334 -66.666 -53.001 -111.999l-69 28
c8.66699 58.667 33.834 106.334 75.501 143.001s91.834 55 150.501 55c62 0 114.333 -19.5 157 -58.5s64 -90.167 64 -153.5c0 -36 -9.33301 -71.333 -28 -106s-50.5 -73.167 -95.5 -115.5s-107.167 -92.833 -186.5 -151.5h322v-70h-464z" />
    <glyph glyph-name="uni00B3" unicode="&#xb3;" horiz-adv-x="630" 
d="M300 1026c-62 0 -111.167 15.334 -147.5 46.001s-58.5 69 -66.5 115l74 30c0.666992 -34.667 13.334 -63.5 38.001 -86.5s57.667 -34.5 99 -34.5c40.667 0 71.667 10.833 93 32.5s32 48.167 32 79.5c0 37.333 -12.833 68.166 -38.5 92.499s-55.834 36.5 -90.501 36.5
c-10 0 -18.333 -0.666992 -25 -2v55h24c33.333 0 62 11.5 86 34.5s36 50.167 36 81.5c0 30.667 -10.833 56.5 -32.5 77.5s-47.834 31.5 -78.501 31.5c-31.333 0 -58.5 -10.667 -81.5 -32s-35.5 -48 -37.5 -80l-64 26c6.66699 44 26.5 80.167 59.5 108.5
s75.167 42.5 126.5 42.5c54.667 0 99.334 -15.5 134.001 -46.5s52 -70.167 52 -117.5c0 -31.333 -8.5 -60.5 -25.5 -87.5s-39.833 -47.5 -68.5 -61.5c34 -12 60.5 -32.667 79.5 -62s28.5 -62.333 28.5 -99c0 -54 -18.5 -97.5 -55.5 -130.5s-87.167 -49.5 -150.5 -49.5z" />
    <glyph glyph-name="acute" unicode="&#xb4;" horiz-adv-x="364" 
d="M75 1158l-75 55l190 379l115 -82z" />
    <glyph glyph-name="uni00B5" unicode="&#xb5;" horiz-adv-x="1499" 
d="M294 -320c0 79.333 1.99805 149.667 5.99805 211s8.66699 119.5 14 174.5s10 112.167 14 171.5s6 126.333 6 201v587h146v-611c0 -107.333 24.667 -188.833 74 -244.5s121 -83.5 215 -83.5c54.667 0 104 12.167 148 36.5s79 57.333 105 99s39 87.5 39 137.5v666h146
v-1025h-146v140c-26 -50.667 -68.667 -92 -128 -124s-122.666 -48 -189.999 -48c-62 0 -115.167 10.333 -159.5 31s-79.166 51.667 -104.499 93v-412h-185z" />
    <glyph glyph-name="paragraph" unicode="&#xb6;" horiz-adv-x="1500" 
d="M904 0v699h-193c-107.333 0 -199.333 21.5 -276 64.5s-135.334 101.167 -176.001 174.5s-61 155.333 -61 246c0 91.333 20.333 172 61 242s99.334 124.833 176.001 164.5s168.667 59.5 276 59.5h467v-1650h-101v1554h-72v-1554h-101z" />
    <glyph glyph-name="periodcentered" unicode="&#xb7;" horiz-adv-x="763" 
d="M382 436c-19.333 0 -36.667 4.66699 -52 14s-27.666 21.666 -36.999 36.999s-14 32.666 -14 51.999c0 18.667 4.5 35.667 13.5 51s21.5 27.666 37.5 36.999s33 14 51 14c19.333 0 36.666 -4.66699 51.999 -14s27.5 -21.666 36.5 -36.999s13.5 -32.333 13.5 -51
c0 -19.333 -4.5 -36.666 -13.5 -51.999s-21.167 -27.666 -36.5 -36.999s-32.333 -14 -51 -14z" />
    <glyph glyph-name="cedilla" unicode="&#xb8;" horiz-adv-x="502" 
d="M258 -536c-54.667 0 -104.166 12.498 -148.499 37.498s-80.833 60.167 -109.5 105.5l69 46c41.333 -69.333 104 -104 188 -104c46 0 83.167 11.667 111.5 35s42.5 53.666 42.5 90.999c0 35.333 -12.833 63.833 -38.5 85.5s-59.167 32.5 -100.5 32.5
c-22 0 -45.833 -3.16699 -71.5 -9.5s-46.834 -14.5 -63.501 -24.5l-8 6l84 259h80l-56 -171c21.333 2.66699 39.5 3.83398 54.5 3.50098s29.167 -2.16602 42.5 -5.49902c50 -4.66699 90.5 -23.167 121.5 -55.5s46.5 -72.833 46.5 -121.5
c0 -61.333 -22.833 -111.666 -68.5 -150.999s-104.167 -59 -175.5 -59z" />
    <glyph glyph-name="uni00B9" unicode="&#xb9;" horiz-adv-x="413" 
d="M178 1026v547h-70v77h146v-624h-76z" />
    <glyph glyph-name="ordmasculine" unicode="&#xba;" horiz-adv-x="1005" 
d="M503 1007c-66.667 0 -126.168 14.333 -178.501 43s-93.833 68.167 -124.5 118.5s-46 108.5 -46 174.5c0 66.667 15.167 125.167 45.5 175.5s71.833 89.833 124.5 118.5s112 43 178 43s125 -14.333 177 -43s93.5 -68.167 124.5 -118.5s46.5 -108.833 46.5 -175.5
c0 -66 -15.333 -124.167 -46 -174.5s-72.167 -89.833 -124.5 -118.5s-111.166 -43 -176.499 -43zM500.999 1085c49.333 0 93.333 11.167 132 33.5s69.167 52.833 91.5 91.5s33.5 83 33.5 133s-11.167 94.5 -33.5 133.5s-52.666 69.667 -90.999 92s-81.833 33.5 -130.5 33.5
c-50 0 -94.333 -11.167 -133 -33.5s-69 -53 -91 -92s-33 -83.5 -33 -133.5s11.167 -94.5 33.5 -133.5s52.666 -69.5 90.999 -91.5s81.833 -33 130.5 -33z" />
    <glyph glyph-name="guillemotright" unicode="&#xbb;" horiz-adv-x="1077" 
d="M332 57l-89 68l337 432l-337 430l89 70l390 -500zM458 57l-88 68l336 432l-336 430l88 70l390 -500z" />
    <glyph glyph-name="onequarter" unicode="&#xbc;" horiz-adv-x="2184" 
d="M305 600v930h-76v120h196v-1050h-120zM279 0l1111 1650h119l-1110 -1650h-120zM1652 0v199h-587v49l581 802h122v-743h137v-108h-137v-199h-116zM1227 307h425v589z" />
    <glyph glyph-name="onehalf" unicode="&#xbd;" horiz-adv-x="2380" 
d="M305 600v930h-76v120h196v-1050h-120zM279 0l1111 1650h119l-1110 -1650h-120zM1214 0v59.0039c135.333 92 248 172 338 240s161.333 127.167 214 177.5s90.167 95.5 112.5 135.5s33.5 78.333 33.5 115c0 44 -12.333 84.167 -37 120.5s-58 65.333 -100 87
s-89 32.5 -141 32.5c-50.667 0 -97.167 -10.833 -139.5 -32.5s-77.166 -51.667 -104.499 -90s-44.333 -82.5 -51 -132.5l-110 41c8.66699 63.333 31.834 119.666 69.501 168.999s86.167 88 145.5 116s124.666 42 195.999 42c76 0 144.667 -15.333 206 -46
s110 -72.334 146 -125.001s54 -112.667 54 -180c0 -42.667 -9.33301 -84.834 -28 -126.501s-50 -85.834 -94 -132.501s-103.833 -99 -179.5 -157s-170.834 -124.667 -285.501 -200h609v-113h-854z" />
    <glyph glyph-name="threequarters" unicode="&#xbe;" horiz-adv-x="2660" 
d="M653 579c-96 0 -177.998 24.5 -245.998 73.5s-107.333 115.167 -118 198.5l116 47c2 -61.333 26 -111.333 72 -150s104.667 -58 176 -58c69.333 0 124.666 18.167 165.999 54.5s62 83.5 62 141.5c0 42 -10.333 79.5 -31 112.5s-47.834 59.167 -81.501 78.5
s-70.5 29 -110.5 29c-17.333 0 -32 -2 -44 -6v88h39c40.667 0 77.334 9.16699 110.001 27.5s58.667 42.833 78 73.5s29 63.667 29 99c0 36 -9.33301 68.167 -28 96.5s-43.5 50.833 -74.5 67.5s-65.5 25 -103.5 25c-37.333 0 -72 -8.5 -104 -25.5
s-57.833 -39.833 -77.5 -68.5s-30.5 -61.334 -32.5 -98.001l-102 38c6.66699 50.667 24.667 95.334 54 134.001s67.166 68.834 113.499 90.501s96.833 32.5 151.5 32.5c62 0 116.833 -13.167 164.5 -39.5s85.167 -61.333 112.5 -105s41 -91.5 41 -143.5
s-14.667 -99.667 -44 -143s-69 -75.666 -119 -96.999c53.333 -19.333 97.5 -52.333 132.5 -99s52.5 -102.334 52.5 -167.001c0 -56.667 -14.167 -108.334 -42.5 -155.001s-69 -83.667 -122 -111s-116.167 -41 -189.5 -41zM755.002 0l1111 1650h119l-1110 -1650h-120zM2128 0
v199h-587v49l581 802h122v-743h137v-108h-137v-199h-116zM1703 307h425v589z" />
    <glyph glyph-name="questiondown" unicode="&#xbf;" horiz-adv-x="1333" 
d="M687 -550c-100 0 -188.669 21.998 -266.002 65.998s-138 103.333 -182 178s-66 158 -66 250c0 88 20 168.5 60 241.5s95.833 132 167.5 177s154.834 69.833 249.501 74.5v272h134v-403c-12.667 2 -25 3.66699 -37 5s-25.333 2 -40 2c-76.667 0 -144.667 -14.5 -204 -43.5
s-105.833 -71 -139.5 -126s-50.5 -121.833 -50.5 -200.5c0 -75.333 15.667 -139.833 47 -193.5s75 -94.667 131 -123s120.333 -42.5 193 -42.5c110 0 198.5 32 265.5 96s102.5 151 106.5 261l127 -19c-5.33301 -101.333 -30.833 -187.166 -76.5 -257.499
s-105.167 -123.666 -178.5 -159.999s-153.666 -54.5 -240.999 -54.5zM717.998 956.998c-18.667 0 -35.834 4.66699 -51.501 14s-28 21.666 -37 36.999s-13.5 32.333 -13.5 51c0 19.333 4.5 36.666 13.5 51.999s21.333 27.666 37 36.999s32.834 14 51.501 14
c19.333 0 36.666 -4.66699 51.999 -14s27.666 -21.666 36.999 -36.999s14 -32.666 14 -51.999c0 -18.667 -4.66699 -35.667 -14 -51s-21.666 -27.666 -36.999 -36.999s-32.666 -14 -51.999 -14z" />
    <glyph glyph-name="Agrave" unicode="&#xc0;" horiz-adv-x="1657" 
d="M108 0l650 1650h141l649 -1650h-164l-201 526h-709l-203 -526h-163zM525 660h606l-303 790zM899 1783l-229 352l115 82l190 -379z" />
    <glyph glyph-name="Aacute" unicode="&#xc1;" horiz-adv-x="1657" 
d="M108 0l650 1650h141l649 -1650h-164l-201 526h-709l-203 -526h-163zM525 660h606l-303 790zM817 1783l-75 55l190 379l115 -82z" />
    <glyph glyph-name="Acircumflex" unicode="&#xc2;" horiz-adv-x="1657" 
d="M108 0l650 1650h141l649 -1650h-164l-201 526h-709l-203 -526h-163zM525 660h606l-303 790zM522 1952l-61 84l367 269l368 -269l-62 -84l-306 224z" />
    <glyph glyph-name="Atilde" unicode="&#xc3;" horiz-adv-x="1657" 
d="M108 0l650 1650h141l649 -1650h-164l-201 526h-709l-203 -526h-163zM525 660h606l-303 790zM1029 1892c-42.667 0 -80.5 8.16895 -113.5 24.502s-64.167 35.166 -93.5 56.499s-59.5 40 -90.5 56s-66.167 24 -105.5 24c-52.667 0 -96.834 -15.5 -132.501 -46.5
s-63.834 -66.833 -84.501 -107.5l-80 71c30.667 55.333 71.334 102.166 122.001 140.499s108.334 57.5 173.001 57.5c44.667 0 84.5 -8.16699 119.5 -24.5s67.667 -35.166 98 -56.499s61 -40 92 -56s64.167 -24 99.5 -24c44.667 0 85.667 14 123 42s68 65.333 92 112l79 -71
c-22.667 -40.667 -50.167 -75.834 -82.5 -105.501s-67 -52.5 -104 -68.5s-74.167 -24 -111.5 -24z" />
    <glyph glyph-name="Adieresis" unicode="&#xc4;" horiz-adv-x="1657" 
d="M108 0l650 1650h141l649 -1650h-164l-201 526h-709l-203 -526h-163zM525 660h606l-303 790zM1064 1934c-24.667 0 -45.667 8.66602 -63 25.999s-26 38.333 -26 63s8.66699 45.667 26 63.001c17.333 17.333 38.333 26 63 26s45.667 -8.66699 63 -26s26 -38.333 26 -63
s-8.66699 -45.667 -26 -63s-38.333 -26 -63 -26zM592 1934c-24.667 0 -45.667 8.66699 -63 26s-26 38.333 -26 63s8.66699 45.667 26 63s38.333 26 63 26s45.667 -8.66699 63 -26s26 -38.333 26 -63s-8.66699 -45.667 -26 -63s-38.333 -26 -63 -26z" />
    <glyph glyph-name="Aring" unicode="&#xc5;" horiz-adv-x="1657" 
d="M108 0l650 1650h141l649 -1650h-164l-201 526h-709l-203 -526h-163zM525 660h606l-303 790zM828 1884c-43.333 0 -82.666 8.66699 -117.999 26s-63.333 41.666 -84 72.999s-31 67 -31 107v0c0 39.333 10.333 74.5 31 105.5s48.667 55.333 84 73s74.666 26.5 117.999 26.5
s82.5 -8.83301 117.5 -26.5s62.833 -42 83.5 -73s31 -66.167 31 -105.5c0 -40 -10.333 -75.667 -31 -107s-48.667 -55.666 -84 -72.999s-74.333 -26 -117 -26zM828 1968c38.667 0 71 11.667 97 35s39 52 39 86c0 35.333 -13 64.333 -39 87s-58.333 34 -97 34
s-71.167 -11.333 -97.5 -34s-39.5 -51.667 -39.5 -87v0c0 -34 13.167 -62.667 39.5 -86s58.833 -35 97.5 -35z" />
    <glyph glyph-name="AE" unicode="&#xc6;" horiz-adv-x="2324" 
d="M108 0l650 1650h824l52 -134h-679l240 -622h654l51 -134h-650l245 -626h670l51 -134h-832l-201 526h-709l-203 -526h-163zM525 660h606l-303 789z" />
    <glyph glyph-name="Ccedilla" unicode="&#xc7;" horiz-adv-x="1608" 
d="M989 -32c-123.333 0 -238 21.6689 -344 65.002s-198.5 103.833 -277.5 181.5s-140.5 168.5 -184.5 272.5s-66 216.333 -66 337s22 233 66 337s105.5 194.833 184.5 272.5s171.333 138.167 277 181.5s220.5 65 344.5 65c103.333 0 200.333 -15.167 291 -45.5
s170.667 -71.833 240 -124.5l-72 -127c-58.667 47.333 -126.667 83.666 -204 108.999s-159.333 38 -246 38c-104.667 0 -200.5 -18 -287.5 -54s-162.5 -86 -226.5 -150s-113.5 -139 -148.5 -225s-52.5 -178.333 -52.5 -277s17.5 -191 52.5 -277s84.5 -161 148.5 -225
s139.5 -114 226.5 -150s182.833 -54 287.5 -54c86.667 0 168.667 12.667 246 38s145.333 61.666 204 108.999l72 -127c-68.667 -52 -148.167 -93.333 -238.5 -124s-187.833 -46 -292.5 -46zM955 -591.998c-54.667 0 -104.166 12.498 -148.499 37.498
s-80.833 60.167 -109.5 105.5l69 46c41.333 -69.333 104 -104 188 -104c46 0 83.167 11.667 111.5 35s42.5 53.666 42.5 90.999c0 35.333 -12.833 63.833 -38.5 85.5s-59.167 32.5 -100.5 32.5c-22 0 -45.833 -3.16699 -71.5 -9.5s-46.834 -14.5 -63.501 -24.5l-8 6l84 259
h80l-56 -171c21.333 2.66699 39.5 3.83398 54.5 3.50098s29.167 -2.16602 42.5 -5.49902c50 -4.66699 90.5 -23.167 121.5 -55.5s46.5 -72.833 46.5 -121.5c0 -61.333 -22.833 -111.666 -68.5 -150.999s-104.167 -59 -175.5 -59z" />
    <glyph glyph-name="Egrave" unicode="&#xc8;" horiz-adv-x="1276" 
d="M269 0v1650h831v-134h-679v-622h655v-134h-655v-626h679v-134h-831zM767 1783l-229 352l115 82l190 -379z" />
    <glyph glyph-name="Eacute" unicode="&#xc9;" horiz-adv-x="1276" 
d="M269 0v1650h831v-134h-679v-622h655v-134h-655v-626h679v-134h-831zM686 1783l-75 55l190 379l115 -82z" />
    <glyph glyph-name="Ecircumflex" unicode="&#xca;" horiz-adv-x="1276" 
d="M269 0v1650h831v-134h-679v-622h655v-134h-655v-626h679v-134h-831zM391 1952l-61 84l367 269l368 -269l-62 -84l-306 224z" />
    <glyph glyph-name="Edieresis" unicode="&#xcb;" horiz-adv-x="1276" 
d="M269 0v1650h831v-134h-679v-622h655v-134h-655v-626h679v-134h-831zM933 1934c-24.667 0 -45.667 8.66602 -63 25.999s-26 38.333 -26 63s8.66699 45.667 26 63.001c17.333 17.333 38.333 26 63 26s45.667 -8.66699 63 -26s26 -38.333 26 -63s-8.66699 -45.667 -26 -63
s-38.333 -26 -63 -26zM461 1934c-24.667 0 -45.667 8.66699 -63 26s-26 38.333 -26 63s8.66699 45.667 26 63s38.333 26 63 26s45.667 -8.66699 63 -26s26 -38.333 26 -63s-8.66699 -45.667 -26 -63s-38.333 -26 -63 -26z" />
    <glyph glyph-name="Igrave" unicode="&#xcc;" horiz-adv-x="690" 
d="M269 0v1650h152v-1650h-152zM415 1783l-229 352l115 82l190 -379z" />
    <glyph glyph-name="Iacute" unicode="&#xcd;" horiz-adv-x="690" 
d="M269 0v1650h152v-1650h-152zM333 1783l-75 55l190 379l115 -82z" />
    <glyph glyph-name="Icircumflex" unicode="&#xce;" horiz-adv-x="690" 
d="M269 0v1650h152v-1650h-152zM38 1952l-61 84l367 269l368 -269l-62 -84l-306 224z" />
    <glyph glyph-name="Idieresis" unicode="&#xcf;" horiz-adv-x="690" 
d="M269 0v1650h152v-1650h-152zM580 1934c-24.667 0 -45.667 8.66602 -63 25.999s-26 38.333 -26 63s8.66699 45.667 26 63.001c17.333 17.333 38.333 26 63 26s45.667 -8.66699 63 -26s26 -38.333 26 -63s-8.66699 -45.667 -26 -63s-38.333 -26 -63 -26zM108 1934
c-24.667 0 -45.667 8.66699 -63 26s-26 38.333 -26 63s8.66699 45.667 26 63s38.333 26 63 26s45.667 -8.66699 63 -26s26 -38.333 26 -63s-8.66699 -45.667 -26 -63s-38.333 -26 -63 -26z" />
    <glyph glyph-name="Eth" unicode="&#xd0;" horiz-adv-x="1673" 
d="M303 0v763.003h-164v124h164v763h372c113.333 0 220 -20.333 320 -61s188.5 -97.834 265.5 -171.501s137.333 -160.667 181 -261s65.5 -210.833 65.5 -331.5s-21.833 -231.334 -65.5 -332.001s-103.834 -187.834 -180.501 -261.501s-165.167 -130.667 -265.5 -171
s-207.166 -60.5 -320.499 -60.5h-372zM455 136.003h206.999c94 0 182.333 17 265 51s155.5 82.167 218.5 144.5s112.333 135.333 148 219s53.5 175.167 53.5 274.5s-17.667 190.833 -53 274.5s-84.666 156.667 -147.999 219s-136.333 110.5 -219 144.5s-171 51 -265 51h-207
v-627h442v-124h-442v-627z" />
    <glyph glyph-name="Ntilde" unicode="&#xd1;" horiz-adv-x="1728" 
d="M269 0v1650h152l886 -1391v1391h152v-1650h-152l-886 1389v-1389h-152zM1065 1892c-42.667 0 -80.5 8.16895 -113.5 24.502s-64.167 35.166 -93.5 56.499s-59.5 40 -90.5 56s-66.167 24 -105.5 24c-52.667 0 -96.834 -15.5 -132.501 -46.5
s-63.834 -66.833 -84.501 -107.5l-80 71c30.667 55.333 71.334 102.166 122.001 140.499s108.334 57.5 173.001 57.5c44.667 0 84.5 -8.16699 119.5 -24.5s67.667 -35.166 98 -56.499s61 -40 92 -56s64.167 -24 99.5 -24c44.667 0 85.667 14 123 42s68 65.333 92 112l79 -71
c-22.667 -40.667 -50.167 -75.834 -82.5 -105.501s-67 -52.5 -104 -68.5s-74.167 -24 -111.5 -24z" />
    <glyph glyph-name="Ograve" unicode="&#xd2;" horiz-adv-x="2000" 
d="M1000 -32c-115.333 0 -223.333 22 -324 66s-189 105.167 -265 183.5s-135.5 169.333 -178.5 273s-64.5 214.834 -64.5 333.501c0 119.333 21.5 230.666 64.5 333.999s102.5 194.166 178.5 272.499s164.333 139.5 265 183.5s208.667 66 324 66s223.333 -22 324 -66
s189 -105.167 265 -183.5s135.5 -169.166 178.5 -272.499s64.5 -214.666 64.5 -333.999c0 -118.667 -21.5 -229.834 -64.5 -333.501s-102.5 -194.667 -178.5 -273s-164.333 -139.5 -265 -183.5s-208.667 -66 -324 -66zM1000 115c94 0 181.333 18 262 54
s151.5 86.333 212.5 151s108.5 140 142.5 226s51 178.667 51 278s-17 192 -51 278s-81.5 161.333 -142.5 226s-131.833 115 -212.5 151s-168 54 -262 54s-181.5 -18 -262.5 -54s-151.833 -86.333 -212.5 -151s-108.167 -140 -142.5 -226s-51.5 -178.667 -51.5 -278
s17.167 -192 51.5 -278s81.833 -161.333 142.5 -226s131.5 -115 212.5 -151s168.5 -54 262.5 -54zM1070 1790l-229 352l115 82l190 -379z" />
    <glyph glyph-name="Oacute" unicode="&#xd3;" horiz-adv-x="2000" 
d="M1000 -32c-115.333 0 -223.333 22 -324 66s-189 105.167 -265 183.5s-135.5 169.333 -178.5 273s-64.5 214.834 -64.5 333.501c0 119.333 21.5 230.666 64.5 333.999s102.5 194.166 178.5 272.499s164.333 139.5 265 183.5s208.667 66 324 66s223.333 -22 324 -66
s189 -105.167 265 -183.5s135.5 -169.166 178.5 -272.499s64.5 -214.666 64.5 -333.999c0 -118.667 -21.5 -229.834 -64.5 -333.501s-102.5 -194.667 -178.5 -273s-164.333 -139.5 -265 -183.5s-208.667 -66 -324 -66zM1000 115c94 0 181.333 18 262 54
s151.5 86.333 212.5 151s108.5 140 142.5 226s51 178.667 51 278s-17 192 -51 278s-81.5 161.333 -142.5 226s-131.833 115 -212.5 151s-168 54 -262 54s-181.5 -18 -262.5 -54s-151.833 -86.333 -212.5 -151s-108.167 -140 -142.5 -226s-51.5 -178.667 -51.5 -278
s17.167 -192 51.5 -278s81.833 -161.333 142.5 -226s131.5 -115 212.5 -151s168.5 -54 262.5 -54zM989 1790l-75 55l190 379l115 -82z" />
    <glyph glyph-name="Ocircumflex" unicode="&#xd4;" horiz-adv-x="2000" 
d="M1000 -32c-115.333 0 -223.333 22 -324 66s-189 105.167 -265 183.5s-135.5 169.333 -178.5 273s-64.5 214.834 -64.5 333.501c0 119.333 21.5 230.666 64.5 333.999s102.5 194.166 178.5 272.499s164.333 139.5 265 183.5s208.667 66 324 66s223.333 -22 324 -66
s189 -105.167 265 -183.5s135.5 -169.166 178.5 -272.499s64.5 -214.666 64.5 -333.999c0 -118.667 -21.5 -229.834 -64.5 -333.501s-102.5 -194.667 -178.5 -273s-164.333 -139.5 -265 -183.5s-208.667 -66 -324 -66zM1000 115c94 0 181.333 18 262 54
s151.5 86.333 212.5 151s108.5 140 142.5 226s51 178.667 51 278s-17 192 -51 278s-81.5 161.333 -142.5 226s-131.833 115 -212.5 151s-168 54 -262 54s-181.5 -18 -262.5 -54s-151.833 -86.333 -212.5 -151s-108.167 -140 -142.5 -226s-51.5 -178.667 -51.5 -278
s17.167 -192 51.5 -278s81.833 -161.333 142.5 -226s131.5 -115 212.5 -151s168.5 -54 262.5 -54zM693 1959l-61 84l367 269l368 -269l-62 -84l-306 224z" />
    <glyph glyph-name="Otilde" unicode="&#xd5;" horiz-adv-x="2000" 
d="M1000 -32c-115.333 0 -223.333 22 -324 66s-189 105.167 -265 183.5s-135.5 169.333 -178.5 273s-64.5 214.834 -64.5 333.501c0 119.333 21.5 230.666 64.5 333.999s102.5 194.166 178.5 272.499s164.333 139.5 265 183.5s208.667 66 324 66s223.333 -22 324 -66
s189 -105.167 265 -183.5s135.5 -169.166 178.5 -272.499s64.5 -214.666 64.5 -333.999c0 -118.667 -21.5 -229.834 -64.5 -333.501s-102.5 -194.667 -178.5 -273s-164.333 -139.5 -265 -183.5s-208.667 -66 -324 -66zM1000 115c94 0 181.333 18 262 54
s151.5 86.333 212.5 151s108.5 140 142.5 226s51 178.667 51 278s-17 192 -51 278s-81.5 161.333 -142.5 226s-131.833 115 -212.5 151s-168 54 -262 54s-181.5 -18 -262.5 -54s-151.833 -86.333 -212.5 -151s-108.167 -140 -142.5 -226s-51.5 -178.667 -51.5 -278
s17.167 -192 51.5 -278s81.833 -161.333 142.5 -226s131.5 -115 212.5 -151s168.5 -54 262.5 -54zM1201 1899c-42.667 0 -80.5 8.16895 -113.5 24.502s-64.167 35.166 -93.5 56.499s-59.5 40 -90.5 56s-66.167 24 -105.5 24c-52.667 0 -96.834 -15.5 -132.501 -46.5
s-63.834 -66.833 -84.501 -107.5l-80 71c30.667 55.333 71.334 102.166 122.001 140.499s108.334 57.5 173.001 57.5c44.667 0 84.5 -8.16699 119.5 -24.5s67.667 -35.166 98 -56.499s61 -40 92 -56s64.167 -24 99.5 -24c44.667 0 85.667 14 123 42s68 65.333 92 112l79 -71
c-22.667 -40.667 -50.167 -75.834 -82.5 -105.501s-67 -52.5 -104 -68.5s-74.167 -24 -111.5 -24z" />
    <glyph glyph-name="Odieresis" unicode="&#xd6;" horiz-adv-x="2000" 
d="M1000 -32c-115.333 0 -223.333 22 -324 66s-189 105.167 -265 183.5s-135.5 169.333 -178.5 273s-64.5 214.834 -64.5 333.501c0 119.333 21.5 230.666 64.5 333.999s102.5 194.166 178.5 272.499s164.333 139.5 265 183.5s208.667 66 324 66s223.333 -22 324 -66
s189 -105.167 265 -183.5s135.5 -169.166 178.5 -272.499s64.5 -214.666 64.5 -333.999c0 -118.667 -21.5 -229.834 -64.5 -333.501s-102.5 -194.667 -178.5 -273s-164.333 -139.5 -265 -183.5s-208.667 -66 -324 -66zM1000 115c94 0 181.333 18 262 54
s151.5 86.333 212.5 151s108.5 140 142.5 226s51 178.667 51 278s-17 192 -51 278s-81.5 161.333 -142.5 226s-131.833 115 -212.5 151s-168 54 -262 54s-181.5 -18 -262.5 -54s-151.833 -86.333 -212.5 -151s-108.167 -140 -142.5 -226s-51.5 -178.667 -51.5 -278
s17.167 -192 51.5 -278s81.833 -161.333 142.5 -226s131.5 -115 212.5 -151s168.5 -54 262.5 -54zM1236 1941c-24.667 0 -45.667 8.66699 -63 26s-26 38.333 -26 63s8.66699 45.667 26 63s38.333 26 63 26s45.667 -8.66699 63 -26s26 -38.333 26 -63
s-8.66699 -45.667 -26 -63s-38.333 -26 -63 -26zM764 1941c-24.667 0 -45.667 8.66699 -63 26s-26 38.333 -26 63s8.66699 45.667 26 63s38.333 26 63 26s45.667 -8.66699 63 -26s26 -38.333 26 -63s-8.66699 -45.667 -26 -63s-38.333 -26 -63 -26z" />
    <glyph glyph-name="multiply" unicode="&#xd7;" horiz-adv-x="1320" 
d="M290 371l-88 88l371 370l-371 370l89 86l369 -369l370 369l87 -86l-370 -370l370 -370l-89 -88l-368 370z" />
    <glyph glyph-name="Oslash" unicode="&#xd8;" horiz-adv-x="2000" 
d="M1005 -32c-115.333 0 -223.333 22 -324 66s-189 105.167 -265 183.5s-135.5 169.333 -178.5 273s-64.5 214.834 -64.5 333.501c0 119.333 21.5 230.666 64.5 333.999s102.5 194.166 178.5 272.499s164.333 139.5 265 183.5s208.667 66 324 66s223.333 -22 324 -66
s189 -105.167 265 -183.5s135.5 -169.166 178.5 -272.499s64.5 -214.666 64.5 -333.999c0 -118.667 -21.5 -229.834 -64.5 -333.501s-102.5 -194.667 -178.5 -273s-164.333 -139.5 -265 -183.5s-208.667 -66 -324 -66zM1005 115c94 0 181.5 18 262.5 54
s151.833 86.333 212.5 151s108 140 142 226s51 178.667 51 278s-17 192 -51 278s-81.333 161.333 -142 226s-131.5 115 -212.5 151s-168.5 54 -262.5 54c-93.333 0 -180.666 -18 -261.999 -54s-152.5 -86.333 -213.5 -151s-108.5 -140 -142.5 -226s-51 -178.667 -51 -278
s17 -192 51 -278s81.5 -161.333 142.5 -226s132.167 -115 213.5 -151s168.666 -54 261.999 -54zM434 -2l-98 72l1248 1592l99 -75z" />
    <glyph glyph-name="Ugrave" unicode="&#xd9;" horiz-adv-x="1633" 
d="M817 -32c-190 0 -332.834 52 -428.501 156s-143.5 259.667 -143.5 467v1059h152v-1026c0 -170 34.833 -296.833 104.5 -380.5s174.834 -125.5 315.501 -125.5c140 0 244.833 41.833 314.5 125.5s104.5 210.5 104.5 380.5v1026h153v-1059
c0 -207.333 -47.833 -363 -143.5 -467s-238.5 -156 -428.5 -156zM887.999 1783l-229 352l115 82l190 -379z" />
    <glyph glyph-name="Uacute" unicode="&#xda;" horiz-adv-x="1633" 
d="M817 -32c-190 0 -332.834 52 -428.501 156s-143.5 259.667 -143.5 467v1059h152v-1026c0 -170 34.833 -296.833 104.5 -380.5s174.834 -125.5 315.501 -125.5c140 0 244.833 41.833 314.5 125.5s104.5 210.5 104.5 380.5v1026h153v-1059
c0 -207.333 -47.833 -363 -143.5 -467s-238.5 -156 -428.5 -156zM805.999 1783l-75 55l190 379l115 -82z" />
    <glyph glyph-name="Ucircumflex" unicode="&#xdb;" horiz-adv-x="1633" 
d="M817 -32c-190 0 -332.834 52 -428.501 156s-143.5 259.667 -143.5 467v1059h152v-1026c0 -170 34.833 -296.833 104.5 -380.5s174.834 -125.5 315.501 -125.5c140 0 244.833 41.833 314.5 125.5s104.5 210.5 104.5 380.5v1026h153v-1059
c0 -207.333 -47.833 -363 -143.5 -467s-238.5 -156 -428.5 -156zM510.999 1952l-61 84l367 269l368 -269l-62 -84l-306 224z" />
    <glyph glyph-name="Udieresis" unicode="&#xdc;" horiz-adv-x="1633" 
d="M817 -32c-190 0 -332.834 52 -428.501 156s-143.5 259.667 -143.5 467v1059h152v-1026c0 -170 34.833 -296.833 104.5 -380.5s174.834 -125.5 315.501 -125.5c140 0 244.833 41.833 314.5 125.5s104.5 210.5 104.5 380.5v1026h153v-1059
c0 -207.333 -47.833 -363 -143.5 -467s-238.5 -156 -428.5 -156zM1053 1934c-24.667 0 -45.667 8.66602 -63 25.999s-26 38.333 -26 63s8.66699 45.667 26 63.001c17.333 17.333 38.333 26 63 26s45.667 -8.66699 63 -26s26 -38.333 26 -63s-8.66699 -45.667 -26 -63
s-38.333 -26 -63 -26zM580.999 1934c-24.667 0 -45.667 8.66699 -63 26s-26 38.333 -26 63s8.66699 45.667 26 63s38.333 26 63 26s45.667 -8.66699 63 -26s26 -38.333 26 -63s-8.66699 -45.667 -26 -63s-38.333 -26 -63 -26z" />
    <glyph glyph-name="Yacute" unicode="&#xdd;" horiz-adv-x="1480" 
d="M664 0v715l-567 935h183l460 -773l460 773h184l-568 -935v-715h-152zM729 1783l-75 55l190 379l115 -82z" />
    <glyph glyph-name="Thorn" unicode="&#xde;" horiz-adv-x="1369" 
d="M269 0v1650h152v-356h276c166 0 295.333 -42.333 388 -127s139 -198 139 -340c0 -94 -21 -177.5 -63 -250.5s-102.333 -130.333 -181 -172s-173 -62.5 -283 -62.5h-276v-342h-152zM421 470l240.001 0.000976562c85.333 0 158.166 15.167 218.499 45.5
s106.333 72.166 138 125.499s47.5 114.666 47.5 183.999c0 104.667 -35 188.334 -105 251.001s-169.667 94 -299 94h-240v-700z" />
    <glyph glyph-name="germandbls" unicode="&#xdf;" horiz-adv-x="1349" 
d="M538 -32l0.00195312 136h163c67.333 0 128.5 16.833 183.5 50.5s98.667 78.834 131 135.501s48.5 119.667 48.5 189c0 70.667 -16.167 134.5 -48.5 191.5s-76 102.333 -131 136s-116.167 50.5 -183.5 50.5h-163v120h163c58.667 0 111.834 14.333 159.501 43
s85.667 67.5 114 116.5s42.5 103.5 42.5 163.5s-14.167 114.333 -42.5 163s-66.333 87.334 -114 116.001s-100.834 43 -159.501 43c-57.333 0 -109.333 -14.167 -156 -42.5s-83.667 -66.666 -111 -114.999s-41 -102.833 -41 -163.5v-1301h-146v724h-132v122h132v451
c0 84.667 20.333 161.167 61 229.5s95.334 122.666 164.001 162.999s145.667 60.5 231 60.5c84.667 0 161.167 -19.833 229.5 -59.5s122.666 -93.334 162.999 -161.001s60.5 -143.167 60.5 -226.5c0 -84.667 -22.333 -161.167 -67 -229.5s-105.667 -119.5 -183 -153.5
c63.333 -24 118.166 -58.167 164.499 -102.5s82.166 -96 107.499 -155s38 -122.5 38 -190.5c0 -94 -22.667 -179 -68 -255s-107 -136.333 -185 -181s-165.333 -67.334 -262 -68.001h-163z" />
    <glyph glyph-name="agrave" unicode="&#xe0;" 
d="M652 -32c-96 0 -182.499 23.5 -259.499 70.5s-138 111.5 -183 193.5s-67.5 175.667 -67.5 281c0 104 22.167 196.833 66.5 278.5s105 146.167 182 193.5s164.167 71 261.5 71c92.667 0 176.667 -21.667 252 -65s132.666 -103.333 171.999 -180v213h146v-1024h-146v216
c-44 -77.333 -103 -138 -177 -182s-156.333 -66 -247 -66zM688.001 95c76.667 0 144.5 17.833 203.5 53.5s105.5 85 139.5 148s51 134.833 51 215.5c0 81.333 -16.833 153.333 -50.5 216s-80.167 111.834 -139.5 147.501s-127.333 53.5 -204 53.5
s-144.667 -17.833 -204 -53.5s-106 -84.834 -140 -147.501s-51 -134.667 -51 -216c0 -80.667 17 -152.5 51 -215.5s80.667 -112.333 140 -148s127.333 -53.5 204 -53.5zM825.001 1189l-229 352l115 82l190 -379z" />
    <glyph glyph-name="aacute" unicode="&#xe1;" 
d="M652 -32c-96 0 -182.499 23.5 -259.499 70.5s-138 111.5 -183 193.5s-67.5 175.667 -67.5 281c0 104 22.167 196.833 66.5 278.5s105 146.167 182 193.5s164.167 71 261.5 71c92.667 0 176.667 -21.667 252 -65s132.666 -103.333 171.999 -180v213h146v-1024h-146v216
c-44 -77.333 -103 -138 -177 -182s-156.333 -66 -247 -66zM688.001 95c76.667 0 144.5 17.833 203.5 53.5s105.5 85 139.5 148s51 134.833 51 215.5c0 81.333 -16.833 153.333 -50.5 216s-80.167 111.834 -139.5 147.501s-127.333 53.5 -204 53.5
s-144.667 -17.833 -204 -53.5s-106 -84.834 -140 -147.501s-51 -134.667 -51 -216c0 -80.667 17 -152.5 51 -215.5s80.667 -112.333 140 -148s127.333 -53.5 204 -53.5zM744.001 1189l-75 55l190 379l115 -82z" />
    <glyph glyph-name="acircumflex" unicode="&#xe2;" 
d="M652 -32c-96 0 -182.499 23.5 -259.499 70.5s-138 111.5 -183 193.5s-67.5 175.667 -67.5 281c0 104 22.167 196.833 66.5 278.5s105 146.167 182 193.5s164.167 71 261.5 71c92.667 0 176.667 -21.667 252 -65s132.666 -103.333 171.999 -180v213h146v-1024h-146v216
c-44 -77.333 -103 -138 -177 -182s-156.333 -66 -247 -66zM688.001 95c76.667 0 144.5 17.833 203.5 53.5s105.5 85 139.5 148s51 134.833 51 215.5c0 81.333 -16.833 153.333 -50.5 216s-80.167 111.834 -139.5 147.501s-127.333 53.5 -204 53.5
s-144.667 -17.833 -204 -53.5s-106 -84.834 -140 -147.501s-51 -134.667 -51 -216c0 -80.667 17 -152.5 51 -215.5s80.667 -112.333 140 -148s127.333 -53.5 204 -53.5zM449.001 1358l-61 84l367 269l368 -269l-62 -84l-306 224z" />
    <glyph glyph-name="atilde" unicode="&#xe3;" 
d="M652 -32c-96 0 -182.499 23.5 -259.499 70.5s-138 111.5 -183 193.5s-67.5 175.667 -67.5 281c0 104 22.167 196.833 66.5 278.5s105 146.167 182 193.5s164.167 71 261.5 71c92.667 0 176.667 -21.667 252 -65s132.666 -103.333 171.999 -180v213h146v-1024h-146v216
c-44 -77.333 -103 -138 -177 -182s-156.333 -66 -247 -66zM688.001 95c76.667 0 144.5 17.833 203.5 53.5s105.5 85 139.5 148s51 134.833 51 215.5c0 81.333 -16.833 153.333 -50.5 216s-80.167 111.834 -139.5 147.501s-127.333 53.5 -204 53.5
s-144.667 -17.833 -204 -53.5s-106 -84.834 -140 -147.501s-51 -134.667 -51 -216c0 -80.667 17 -152.5 51 -215.5s80.667 -112.333 140 -148s127.333 -53.5 204 -53.5zM956.001 1298c-42.667 0 -80.5 8.16895 -113.5 24.502s-64.167 35.166 -93.5 56.499s-59.5 40 -90.5 56
s-66.167 24 -105.5 24c-52.667 0 -96.834 -15.5 -132.501 -46.5s-63.834 -66.833 -84.501 -107.5l-80 71c30.667 55.333 71.334 102.166 122.001 140.499s108.334 57.5 173.001 57.5c44.667 0 84.5 -8.16699 119.5 -24.5s67.667 -35.166 98 -56.499s61 -40 92 -56
s64.167 -24 99.5 -24c44.667 0 85.667 14 123 42s68 65.333 92 112l79 -71c-22.667 -40.667 -50.167 -75.834 -82.5 -105.501s-67 -52.5 -104 -68.5s-74.167 -24 -111.5 -24z" />
    <glyph glyph-name="adieresis" unicode="&#xe4;" 
d="M652 -32c-96 0 -182.499 23.5 -259.499 70.5s-138 111.5 -183 193.5s-67.5 175.667 -67.5 281c0 104 22.167 196.833 66.5 278.5s105 146.167 182 193.5s164.167 71 261.5 71c92.667 0 176.667 -21.667 252 -65s132.666 -103.333 171.999 -180v213h146v-1024h-146v216
c-44 -77.333 -103 -138 -177 -182s-156.333 -66 -247 -66zM688.001 95c76.667 0 144.5 17.833 203.5 53.5s105.5 85 139.5 148s51 134.833 51 215.5c0 81.333 -16.833 153.333 -50.5 216s-80.167 111.834 -139.5 147.501s-127.333 53.5 -204 53.5
s-144.667 -17.833 -204 -53.5s-106 -84.834 -140 -147.501s-51 -134.667 -51 -216c0 -80.667 17 -152.5 51 -215.5s80.667 -112.333 140 -148s127.333 -53.5 204 -53.5zM991.001 1340c-24.667 0 -45.667 8.66699 -63 26s-26 38.333 -26 63s8.66699 45.667 26 63
s38.333 26 63 26s45.667 -8.66699 63 -26s26 -38.333 26 -63s-8.66699 -45.667 -26 -63s-38.333 -26 -63 -26zM519.001 1340c-24.667 0 -45.667 8.66699 -63 26s-26 38.333 -26 63s8.66699 45.667 26 63s38.333 26 63 26s45.667 -8.66699 63 -26s26 -38.333 26 -63
s-8.66699 -45.667 -26 -63s-38.333 -26 -63 -26z" />
    <glyph glyph-name="aring" unicode="&#xe5;" 
d="M652 -32c-96 0 -182.499 23.5 -259.499 70.5s-138 111.5 -183 193.5s-67.5 175.667 -67.5 281c0 104 22.167 196.833 66.5 278.5s105 146.167 182 193.5s164.167 71 261.5 71c92.667 0 176.667 -21.667 252 -65s132.666 -103.333 171.999 -180v213h146v-1024h-146v216
c-44 -77.333 -103 -138 -177 -182s-156.333 -66 -247 -66zM688.001 95c76.667 0 144.5 17.833 203.5 53.5s105.5 85 139.5 148s51 134.833 51 215.5c0 81.333 -16.833 153.333 -50.5 216s-80.167 111.834 -139.5 147.501s-127.333 53.5 -204 53.5
s-144.667 -17.833 -204 -53.5s-106 -84.834 -140 -147.501s-51 -134.667 -51 -216c0 -80.667 17 -152.5 51 -215.5s80.667 -112.333 140 -148s127.333 -53.5 204 -53.5zM755.001 1290c-43.333 0 -82.666 8.66699 -117.999 26s-63.333 41.666 -84 72.999s-31 67 -31 107v0
c0 39.333 10.333 74.5 31 105.5s48.667 55.333 84 73s74.666 26.5 117.999 26.5s82.5 -8.83301 117.5 -26.5s62.833 -42 83.5 -73s31 -66.167 31 -105.5c0 -40 -10.333 -75.667 -31 -107s-48.667 -55.666 -84 -72.999s-74.333 -26 -117 -26zM755.001 1374
c38.667 0 71 11.667 97 35s39 52 39 86c0 35.333 -13 64.333 -39 87s-58.333 34 -97 34s-71.167 -11.333 -97.5 -34s-39.5 -51.667 -39.5 -87v0c0 -34 13.167 -62.667 39.5 -86s58.833 -35 97.5 -35z" />
    <glyph glyph-name="ae" unicode="&#xe6;" horiz-adv-x="2054" 
d="M523 -32c-75.333 0 -142.996 13.334 -202.996 40.001s-107.333 64.5 -142 113.5s-52 106.5 -52 172.5c0 65.333 17.5 122.833 52.5 172.5s82.667 88.334 143 116.001s128.5 41.5 204.5 41.5c69.333 0 133.333 -11.833 192 -35.5s106 -55.834 142 -96.501v123
c0 101.333 -28.333 180.166 -85 236.499s-132.667 84.5 -228 84.5c-42 0 -80.833 -5.16699 -116.5 -15.5s-68.334 -24.5 -98.001 -42.5s-56.834 -38.667 -81.501 -62l-62 95c48.667 51.333 104.5 88.333 167.5 111s129.5 34 199.5 34c107.333 0 194.333 -25 261 -75
s111.334 -111.333 134.001 -184c45.333 77.333 107 139.833 185 187.5s164.333 71.5 259 71.5c100 0 190 -23.5 270 -70.5s143.5 -111 190.5 -192s70.833 -171.833 71.5 -272.5v-10c0 -2.66699 -0.333008 -7 -1 -13h-924c0 -80 17.833 -150.833 53.5 -212.5
s85 -109.834 148 -144.501s135.5 -52 217.5 -52c77.333 0 146.833 16.167 208.5 48.5s113.167 78.833 154.5 139.5l108 -58c-50 -80 -116.667 -141.833 -200 -185.5s-176.333 -65.5 -279 -65.5c-100 0 -190.333 21.833 -271 65.5s-145.334 104.834 -194.001 183.501
c-30 -52 -66.333 -96.667 -109 -134s-90.334 -65.833 -143.001 -85.5s-110.334 -29.5 -173.001 -29.5zM568.004 68.001c55.333 0 105.668 9.83008 151.001 29.4971s81.5 46.834 108.5 81.501s40.5 75.334 40.5 122.001s-13.5 87.334 -40.5 122.001s-63.5 61.5 -109.5 80.5
s-96.667 28.5 -152 28.5c-54.667 0 -104.667 -9.5 -150 -28.5s-81.333 -45.833 -108 -80.5s-40 -75 -40 -121c0 -46.667 13.5 -87.5 40.5 -122.5s63.167 -62.333 108.5 -82s95.666 -29.5 150.999 -29.5zM1007.01 588.998h776.003c-6.66699 68.667 -27.834 130 -63.501 184
s-81.334 96.667 -137.001 128s-117.5 47 -185.5 47c-68.667 0 -131.334 -15.667 -188.001 -47s-103 -74 -139 -128s-57 -115.333 -63 -184z" />
    <glyph glyph-name="ccedilla" unicode="&#xe7;" horiz-adv-x="1143" 
d="M691 -32c-76.667 0 -148.663 13.5029 -215.996 40.5029s-126.333 65.167 -177 114.5s-90.334 107 -119.001 173s-43 138 -43 216c0 77.333 14 149 42 215s67.167 123.667 117.5 173s109.166 87.666 176.499 114.999s140.333 41 219 41c67.333 0 131.333 -10 192 -30
s113 -47.667 157 -83l-60 -98c-74.667 58 -165.334 87 -272.001 87c-84 0 -157.833 -18.5 -221.5 -55.5s-113.167 -87.333 -148.5 -151s-53 -134.834 -53 -213.501c0 -79.333 18 -150.833 54 -214.5s86 -113.834 150 -150.501s137.333 -55 220 -55
c52 0 101.167 7.5 147.5 22.5s87.166 36.5 122.499 64.5l61 -98c-44.667 -34.667 -97 -62.167 -157 -82.5s-124 -30.5 -192 -30.5zM663.004 -547.997c-54.667 0 -104.166 12.498 -148.499 37.498s-80.833 60.167 -109.5 105.5l69 46c41.333 -69.333 104 -104 188 -104
c46 0 83.167 11.667 111.5 35s42.5 53.666 42.5 90.999c0 35.333 -12.833 63.833 -38.5 85.5s-59.167 32.5 -100.5 32.5c-22 0 -45.833 -3.16699 -71.5 -9.5s-46.834 -14.5 -63.501 -24.5l-8 6l84 259h80l-56 -171c21.333 2.66699 39.5 3.83398 54.5 3.50098
s29.167 -2.16602 42.5 -5.49902c50 -4.66699 90.5 -23.167 121.5 -55.5s46.5 -72.833 46.5 -121.5c0 -61.333 -22.833 -111.666 -68.5 -150.999s-104.167 -59 -175.5 -59z" />
    <glyph glyph-name="egrave" unicode="&#xe8;" horiz-adv-x="1335" 
d="M695 -32c-107.333 0 -203.166 23.667 -287.499 71s-150.5 111.833 -198.5 193.5s-72 173.5 -72 275.5c0 76.667 13.833 148.167 41.5 214.5s66.167 124.5 115.5 174.5s106.666 89 171.999 117s135 42 209 42c101.333 0 191.5 -22.167 270.5 -66.5
s141.667 -105.5 188 -183.5s70.833 -168 73.5 -270c0 -8 -0.166992 -14.5 -0.5 -19.5s-1.16602 -11.167 -2.49902 -18.5h-922c0 -80 18 -150.667 54 -212s85.5 -109.5 148.5 -144.5s135.167 -52.5 216.5 -52.5c77.333 0 146.833 16.167 208.5 48.5
s113.167 78.833 154.5 139.5l108 -58c-48.667 -79.333 -114.834 -141 -198.501 -185s-176.5 -66 -278.5 -66zM290 608h771c-8.66699 64 -31 120.5 -67 169.5s-81.5 87.5 -136.5 115.5s-115.167 42 -180.5 42c-67.333 0 -128.666 -13.833 -183.999 -41.5
s-100.833 -66 -136.5 -115s-57.834 -105.833 -66.501 -170.5zM742 1166l-229 352l115 82l190 -379z" />
    <glyph glyph-name="eacute" unicode="&#xe9;" horiz-adv-x="1335" 
d="M695 -32c-107.333 0 -203.166 23.667 -287.499 71s-150.5 111.833 -198.5 193.5s-72 173.5 -72 275.5c0 76.667 13.833 148.167 41.5 214.5s66.167 124.5 115.5 174.5s106.666 89 171.999 117s135 42 209 42c101.333 0 191.5 -22.167 270.5 -66.5
s141.667 -105.5 188 -183.5s70.833 -168 73.5 -270c0 -8 -0.166992 -14.5 -0.5 -19.5s-1.16602 -11.167 -2.49902 -18.5h-922c0 -80 18 -150.667 54 -212s85.5 -109.5 148.5 -144.5s135.167 -52.5 216.5 -52.5c77.333 0 146.833 16.167 208.5 48.5
s113.167 78.833 154.5 139.5l108 -58c-48.667 -79.333 -114.834 -141 -198.501 -185s-176.5 -66 -278.5 -66zM290 608h771c-8.66699 64 -31 120.5 -67 169.5s-81.5 87.5 -136.5 115.5s-115.167 42 -180.5 42c-67.333 0 -128.666 -13.833 -183.999 -41.5
s-100.833 -66 -136.5 -115s-57.834 -105.833 -66.501 -170.5zM661 1166l-75 55l190 379l115 -82z" />
    <glyph glyph-name="ecircumflex" unicode="&#xea;" horiz-adv-x="1335" 
d="M695 -32c-107.333 0 -203.166 23.667 -287.499 71s-150.5 111.833 -198.5 193.5s-72 173.5 -72 275.5c0 76.667 13.833 148.167 41.5 214.5s66.167 124.5 115.5 174.5s106.666 89 171.999 117s135 42 209 42c101.333 0 191.5 -22.167 270.5 -66.5
s141.667 -105.5 188 -183.5s70.833 -168 73.5 -270c0 -8 -0.166992 -14.5 -0.5 -19.5s-1.16602 -11.167 -2.49902 -18.5h-922c0 -80 18 -150.667 54 -212s85.5 -109.5 148.5 -144.5s135.167 -52.5 216.5 -52.5c77.333 0 146.833 16.167 208.5 48.5
s113.167 78.833 154.5 139.5l108 -58c-48.667 -79.333 -114.834 -141 -198.501 -185s-176.5 -66 -278.5 -66zM290 608h771c-8.66699 64 -31 120.5 -67 169.5s-81.5 87.5 -136.5 115.5s-115.167 42 -180.5 42c-67.333 0 -128.666 -13.833 -183.999 -41.5
s-100.833 -66 -136.5 -115s-57.834 -105.833 -66.501 -170.5zM366 1335l-61 84l367 269l368 -269l-62 -84l-306 224z" />
    <glyph glyph-name="edieresis" unicode="&#xeb;" horiz-adv-x="1335" 
d="M695 -32c-107.333 0 -203.166 23.667 -287.499 71s-150.5 111.833 -198.5 193.5s-72 173.5 -72 275.5c0 76.667 13.833 148.167 41.5 214.5s66.167 124.5 115.5 174.5s106.666 89 171.999 117s135 42 209 42c101.333 0 191.5 -22.167 270.5 -66.5
s141.667 -105.5 188 -183.5s70.833 -168 73.5 -270c0 -8 -0.166992 -14.5 -0.5 -19.5s-1.16602 -11.167 -2.49902 -18.5h-922c0 -80 18 -150.667 54 -212s85.5 -109.5 148.5 -144.5s135.167 -52.5 216.5 -52.5c77.333 0 146.833 16.167 208.5 48.5
s113.167 78.833 154.5 139.5l108 -58c-48.667 -79.333 -114.834 -141 -198.501 -185s-176.5 -66 -278.5 -66zM290 608h771c-8.66699 64 -31 120.5 -67 169.5s-81.5 87.5 -136.5 115.5s-115.167 42 -180.5 42c-67.333 0 -128.666 -13.833 -183.999 -41.5
s-100.833 -66 -136.5 -115s-57.834 -105.833 -66.501 -170.5zM908 1317c-24.667 0 -45.667 8.66699 -63 26s-26 38.333 -26 63s8.66699 45.667 26 63s38.333 26 63 26s45.667 -8.66699 63 -26s26 -38.333 26 -63s-8.66699 -45.667 -26 -63s-38.333 -26 -63 -26zM436 1317
c-24.667 0 -45.667 8.66699 -63 26s-26 38.333 -26 63s8.66699 45.667 26 63s38.333 26 63 26s45.667 -8.66699 63 -26s26 -38.333 26 -63s-8.66699 -45.667 -26 -63s-38.333 -26 -63 -26z" />
    <glyph glyph-name="igrave" unicode="&#xec;" horiz-adv-x="577" 
d="M215 0v1024h146v-1024h-146zM359 1158l-229 352l115 82l190 -379z" />
    <glyph glyph-name="iacute" unicode="&#xed;" horiz-adv-x="577" 
d="M215 0v1024h146v-1024h-146zM277 1158l-75 55l190 379l115 -82z" />
    <glyph glyph-name="icircumflex" unicode="&#xee;" horiz-adv-x="577" 
d="M215 0v1024h146v-1024h-146zM-18 1327l-61 84l367 269l368 -269l-62 -84l-306 224z" />
    <glyph glyph-name="idieresis" unicode="&#xef;" horiz-adv-x="577" 
d="M215 0v1024h146v-1024h-146zM524 1309c-24.667 0 -45.667 8.66699 -63 26s-26 38.333 -26 63s8.66699 45.667 26 63s38.333 26 63 26s45.667 -8.66699 63 -26s26 -38.333 26 -63s-8.66699 -45.667 -26 -63s-38.333 -26 -63 -26zM52 1309
c-24.667 0 -45.667 8.66699 -63 26s-26 38.333 -26 63s8.66699 45.667 26 63s38.333 26 63 26s45.667 -8.66699 63 -26s26 -38.333 26 -63s-8.66699 -45.667 -26 -63s-38.333 -26 -63 -26z" />
    <glyph glyph-name="eth" unicode="&#xf0;" 
d="M707 -32c-109.333 0 -206.835 23.333 -292.502 70s-153.167 110.834 -202.5 192.501s-74 175.5 -74 281.5c0 84.667 15.167 160.667 45.5 228s71.833 124.833 124.5 172.5s112.5 84.167 179.5 109.5s137.5 38 211.5 38c78.667 0 149.834 -17.333 213.501 -52
s113.5 -82 149.5 -142c-27.333 127.333 -70.166 239 -128.499 335s-128.833 176.333 -211.5 241l-157 -157l-75 74l141 140c-40.667 27.333 -82.667 51.5 -126 72.5s-86.666 38.5 -129.999 52.5l39 126c54 -18 108 -39.333 162 -64s105.333 -53.667 154 -87l152 151l74 -75
l-137 -135c69.333 -54 132 -116.333 188 -187s104 -149 144 -235s70.667 -179.5 92 -280.5s32 -209.5 32 -325.5c0 -106 -24.833 -199.833 -74.5 -281.5s-117.334 -145.834 -203.001 -192.501s-182.5 -70 -290.5 -70zM705.998 96c80.667 0 152.501 17.833 215.501 53.5
s112.667 84.834 149 147.501s54.5 134.334 54.5 215.001s-18.333 152.5 -55 215.5s-86.334 112.333 -149.001 148s-134.334 53.5 -215.001 53.5c-80 0 -151.667 -17.833 -215 -53.5s-113.166 -85 -149.499 -148s-54.5 -134.833 -54.5 -215.5s18 -152.334 54 -215.001
s85.667 -111.834 149 -147.501s135.333 -53.5 216 -53.5z" />
    <glyph glyph-name="ntilde" unicode="&#xf1;" horiz-adv-x="1286" 
d="M215 0v1024h146v-140c28 48 71.333 88.667 130 122s130.334 50 215.001 50c79.333 0 147.666 -16.333 204.999 -49s101.333 -80.167 132 -142.5s46 -137.5 46 -225.5v-639h-146v611c0 106 -24.667 186.833 -74 242.5s-119 83.5 -209 83.5
c-62.667 0 -116.167 -12.5 -160.5 -37.5s-78.5 -58 -102.5 -99s-36 -85.5 -36 -133.5v-667h-146zM867 1298c-42.667 0 -80.5 8.16895 -113.5 24.502s-64.167 35.166 -93.5 56.499s-59.5 40 -90.5 56s-66.167 24 -105.5 24c-52.667 0 -96.834 -15.5 -132.501 -46.5
s-63.834 -66.833 -84.501 -107.5l-80 71c30.667 55.333 71.334 102.166 122.001 140.499s108.334 57.5 173.001 57.5c44.667 0 84.5 -8.16699 119.5 -24.5s67.667 -35.166 98 -56.499s61 -40 92 -56s64.167 -24 99.5 -24c44.667 0 85.667 14 123 42s68 65.333 92 112l79 -71
c-22.667 -40.667 -50.167 -75.834 -82.5 -105.501s-67 -52.5 -104 -68.5s-74.167 -24 -111.5 -24z" />
    <glyph glyph-name="ograve" unicode="&#xf2;" horiz-adv-x="1408" 
d="M704 -32c-106.667 0 -202.832 23 -288.499 69s-153.5 110 -203.5 192s-75 176.333 -75 283c0 107.333 25 201.833 75 283.5s117.667 145.5 203 191.5s181.666 69 288.999 69c106.667 0 202.834 -23 288.501 -69s153.5 -109.833 203.5 -191.5s75 -176.167 75 -283.5
c0 -106.667 -25 -201 -75 -283s-117.833 -146 -203.5 -192s-181.834 -69 -288.501 -69zM704.002 98c80 0 151.333 17.668 214 53.001s112 84.166 148 146.499s54 133.833 54 214.5s-18 152.167 -54 214.5s-85.333 111.166 -148 146.499s-134 53 -214 53
s-151.333 -17.667 -214 -53s-112 -84.166 -148 -146.499s-54 -133.833 -54 -214.5c0 -80 18 -151.333 54 -214s85.333 -111.667 148 -147s134 -53 214 -53zM774.002 1189l-229 352l115 82l190 -379z" />
    <glyph glyph-name="oacute" unicode="&#xf3;" horiz-adv-x="1408" 
d="M704 -32c-106.667 0 -202.832 23 -288.499 69s-153.5 110 -203.5 192s-75 176.333 -75 283c0 107.333 25 201.833 75 283.5s117.667 145.5 203 191.5s181.666 69 288.999 69c106.667 0 202.834 -23 288.501 -69s153.5 -109.833 203.5 -191.5s75 -176.167 75 -283.5
c0 -106.667 -25 -201 -75 -283s-117.833 -146 -203.5 -192s-181.834 -69 -288.501 -69zM704.002 98c80 0 151.333 17.668 214 53.001s112 84.166 148 146.499s54 133.833 54 214.5s-18 152.167 -54 214.5s-85.333 111.166 -148 146.499s-134 53 -214 53
s-151.333 -17.667 -214 -53s-112 -84.166 -148 -146.499s-54 -133.833 -54 -214.5c0 -80 18 -151.333 54 -214s85.333 -111.667 148 -147s134 -53 214 -53zM693.002 1189l-75 55l190 379l115 -82z" />
    <glyph glyph-name="ocircumflex" unicode="&#xf4;" horiz-adv-x="1408" 
d="M704 -32c-106.667 0 -202.832 23 -288.499 69s-153.5 110 -203.5 192s-75 176.333 -75 283c0 107.333 25 201.833 75 283.5s117.667 145.5 203 191.5s181.666 69 288.999 69c106.667 0 202.834 -23 288.501 -69s153.5 -109.833 203.5 -191.5s75 -176.167 75 -283.5
c0 -106.667 -25 -201 -75 -283s-117.833 -146 -203.5 -192s-181.834 -69 -288.501 -69zM704.002 98c80 0 151.333 17.668 214 53.001s112 84.166 148 146.499s54 133.833 54 214.5s-18 152.167 -54 214.5s-85.333 111.166 -148 146.499s-134 53 -214 53
s-151.333 -17.667 -214 -53s-112 -84.166 -148 -146.499s-54 -133.833 -54 -214.5c0 -80 18 -151.333 54 -214s85.333 -111.667 148 -147s134 -53 214 -53zM398.002 1358l-61 84l367 269l368 -269l-62 -84l-306 224z" />
    <glyph glyph-name="otilde" unicode="&#xf5;" horiz-adv-x="1408" 
d="M704 -32c-106.667 0 -202.832 23 -288.499 69s-153.5 110 -203.5 192s-75 176.333 -75 283c0 107.333 25 201.833 75 283.5s117.667 145.5 203 191.5s181.666 69 288.999 69c106.667 0 202.834 -23 288.501 -69s153.5 -109.833 203.5 -191.5s75 -176.167 75 -283.5
c0 -106.667 -25 -201 -75 -283s-117.833 -146 -203.5 -192s-181.834 -69 -288.501 -69zM704.002 98c80 0 151.333 17.668 214 53.001s112 84.166 148 146.499s54 133.833 54 214.5s-18 152.167 -54 214.5s-85.333 111.166 -148 146.499s-134 53 -214 53
s-151.333 -17.667 -214 -53s-112 -84.166 -148 -146.499s-54 -133.833 -54 -214.5c0 -80 18 -151.333 54 -214s85.333 -111.667 148 -147s134 -53 214 -53zM905.002 1298c-42.667 0 -80.5 8.16895 -113.5 24.502s-64.167 35.166 -93.5 56.499s-59.5 40 -90.5 56
s-66.167 24 -105.5 24c-52.667 0 -96.834 -15.5 -132.501 -46.5s-63.834 -66.833 -84.501 -107.5l-80 71c30.667 55.333 71.334 102.166 122.001 140.499s108.334 57.5 173.001 57.5c44.667 0 84.5 -8.16699 119.5 -24.5s67.667 -35.166 98 -56.499s61 -40 92 -56
s64.167 -24 99.5 -24c44.667 0 85.667 14 123 42s68 65.333 92 112l79 -71c-22.667 -40.667 -50.167 -75.834 -82.5 -105.501s-67 -52.5 -104 -68.5s-74.167 -24 -111.5 -24z" />
    <glyph glyph-name="odieresis" unicode="&#xf6;" horiz-adv-x="1408" 
d="M704 -32c-106.667 0 -202.832 23 -288.499 69s-153.5 110 -203.5 192s-75 176.333 -75 283c0 107.333 25 201.833 75 283.5s117.667 145.5 203 191.5s181.666 69 288.999 69c106.667 0 202.834 -23 288.501 -69s153.5 -109.833 203.5 -191.5s75 -176.167 75 -283.5
c0 -106.667 -25 -201 -75 -283s-117.833 -146 -203.5 -192s-181.834 -69 -288.501 -69zM704.002 98c80 0 151.333 17.668 214 53.001s112 84.166 148 146.499s54 133.833 54 214.5s-18 152.167 -54 214.5s-85.333 111.166 -148 146.499s-134 53 -214 53
s-151.333 -17.667 -214 -53s-112 -84.166 -148 -146.499s-54 -133.833 -54 -214.5c0 -80 18 -151.333 54 -214s85.333 -111.667 148 -147s134 -53 214 -53zM940.002 1340c-24.667 0 -45.667 8.66699 -63 26s-26 38.333 -26 63s8.66699 45.667 26 63s38.333 26 63 26
s45.667 -8.66699 63 -26s26 -38.333 26 -63s-8.66699 -45.667 -26 -63s-38.333 -26 -63 -26zM468.002 1340c-24.667 0 -45.667 8.66699 -63 26s-26 38.333 -26 63s8.66699 45.667 26 63s38.333 26 63 26s45.667 -8.66699 63 -26s26 -38.333 26 -63s-8.66699 -45.667 -26 -63
s-38.333 -26 -63 -26z" />
    <glyph glyph-name="divide" unicode="&#xf7;" horiz-adv-x="1428" 
d="M180 767v126h1025v-126h-1025zM692 258c-21.333 0 -40.166 8.16699 -56.499 24.5s-24.5 36.166 -24.5 59.499c0 22.667 8.16699 42.167 24.5 58.5s35.166 24.5 56.499 24.5c23.333 0 43 -8.16699 59 -24.5s24 -35.833 24 -58.5c0 -23.333 -8 -43.166 -24 -59.499
s-35.667 -24.5 -59 -24.5zM692 1236c-21.333 0 -40.166 8 -56.499 24s-24.5 35.333 -24.5 58c0 23.333 8.16699 43.166 24.5 59.499s35.166 24.5 56.499 24.5c23.333 0 43 -8.16699 59 -24.5s24 -36.166 24 -59.499c0 -22.667 -8 -42 -24 -58s-35.667 -24 -59 -24z" />
    <glyph glyph-name="oslash" unicode="&#xf8;" horiz-adv-x="1408" 
d="M704 -32c-106.667 0 -202.832 23 -288.499 69s-153.5 110 -203.5 192s-75 176.333 -75 283c0 107.333 25 201.833 75 283.5s117.667 145.5 203 191.5s181.666 69 288.999 69c106.667 0 202.834 -23 288.501 -69s153.5 -109.833 203.5 -191.5s75 -176.167 75 -283.5
c0 -106.667 -25 -201 -75 -283s-117.833 -146 -203.5 -192s-181.834 -69 -288.501 -69zM704.002 98c80 0 151.333 17.668 214 53.001s112 84.166 148 146.499s54 133.833 54 214.5s-18 152.167 -54 214.5s-85.333 111.166 -148 146.499s-134 53 -214 53
s-151.333 -17.667 -214 -53s-112 -84.166 -148 -146.499s-54 -133.833 -54 -214.5c0 -80 18 -151.333 54 -214s85.333 -111.667 148 -147s134 -53 214 -53zM209.002 -31.999l892 1088h97l-892 -1088h-97z" />
    <glyph glyph-name="ugrave" unicode="&#xf9;" horiz-adv-x="1259" 
d="M629 -32c-155.333 0 -266.333 35 -333 105s-100 187 -100 351v600h146v-574c0 -129.333 22 -221.5 66 -276.5s117.667 -82.5 221 -82.5c104 0 177.833 27.5 221.5 82.5s65.5 147.167 65.5 276.5v574h146v-600c0 -164 -33.167 -281 -99.5 -351s-177.5 -105 -333.5 -105z
M700 1158l-229 352l115 82l190 -379z" />
    <glyph glyph-name="uacute" unicode="&#xfa;" horiz-adv-x="1259" 
d="M629 -32c-155.333 0 -266.333 35 -333 105s-100 187 -100 351v600h146v-574c0 -129.333 22 -221.5 66 -276.5s117.667 -82.5 221 -82.5c104 0 177.833 27.5 221.5 82.5s65.5 147.167 65.5 276.5v574h146v-600c0 -164 -33.167 -281 -99.5 -351s-177.5 -105 -333.5 -105z
M618 1158l-75 55l190 379l115 -82z" />
    <glyph glyph-name="ucircumflex" unicode="&#xfb;" horiz-adv-x="1259" 
d="M629 -32c-155.333 0 -266.333 35 -333 105s-100 187 -100 351v600h146v-574c0 -129.333 22 -221.5 66 -276.5s117.667 -82.5 221 -82.5c104 0 177.833 27.5 221.5 82.5s65.5 147.167 65.5 276.5v574h146v-600c0 -164 -33.167 -281 -99.5 -351s-177.5 -105 -333.5 -105z
M323 1327l-61 84l367 269l368 -269l-62 -84l-306 224z" />
    <glyph glyph-name="udieresis" unicode="&#xfc;" horiz-adv-x="1259" 
d="M629 -32c-155.333 0 -266.333 35 -333 105s-100 187 -100 351v600h146v-574c0 -129.333 22 -221.5 66 -276.5s117.667 -82.5 221 -82.5c104 0 177.833 27.5 221.5 82.5s65.5 147.167 65.5 276.5v574h146v-600c0 -164 -33.167 -281 -99.5 -351s-177.5 -105 -333.5 -105z
M866 1309c-24.667 0 -45.667 8.66699 -63 26s-26 38.333 -26 63s8.66699 45.667 26 63s38.333 26 63 26s45.667 -8.66699 63 -26s26 -38.333 26 -63s-8.66699 -45.667 -26 -63s-38.333 -26 -63 -26zM394 1309c-24.667 0 -45.667 8.66699 -63 26s-26 38.333 -26 63
s8.66699 45.667 26 63s38.333 26 63 26s45.667 -8.66699 63 -26s26 -38.333 26 -63s-8.66699 -45.667 -26 -63s-38.333 -26 -63 -26z" />
    <glyph glyph-name="yacute" unicode="&#xfd;" horiz-adv-x="1232" 
d="M298 -520l252 545l-487 999h165l405 -849l368 849h165l-703 -1544h-165zM605 1158l-75 55l190 379l115 -82z" />
    <glyph glyph-name="thorn" unicode="&#xfe;" 
d="M215 -520v2240h146v-909c41.333 75.333 99 135 173 179s157 66 249 66c98 0 185.5 -23.5 262.5 -70.5s137.833 -111.5 182.5 -193.5s67 -175.333 67 -280s-22.333 -198 -67 -280s-105.5 -146.5 -182.5 -193.5s-164.5 -70.5 -262.5 -70.5c-92 0 -175 22.667 -249 68
s-131.667 105.333 -173 180v-736h-146zM750 95c76 0 143.83 17.833 203.497 53.5s106.334 84.834 140.001 147.501s50.5 134.667 50.5 216c0 82 -17.167 154.333 -51.5 217s-81.166 111.667 -140.499 147s-126.666 53 -201.999 53c-76 0 -143.833 -17.667 -203.5 -53
s-106.5 -84.333 -140.5 -147s-51 -135 -51 -217c0 -81.333 17 -153.333 51 -216s80.667 -111.834 140 -147.501s127.333 -53.5 204 -53.5z" />
    <glyph glyph-name="ydieresis" unicode="&#xff;" horiz-adv-x="1232" 
d="M298 -520l252 545l-487 999h165l405 -849l368 849h165l-703 -1544h-165zM852 1309c-24.667 0 -45.667 8.66699 -63 26s-26 38.333 -26 63s8.66699 45.667 26 63s38.333 26 63 26s45.667 -8.66699 63 -26s26 -38.333 26 -63s-8.66699 -45.667 -26 -63s-38.333 -26 -63 -26
zM380 1309c-24.667 0 -45.667 8.66699 -63 26s-26 38.333 -26 63s8.66699 45.667 26 63s38.333 26 63 26s45.667 -8.66699 63 -26s26 -38.333 26 -63s-8.66699 -45.667 -26 -63s-38.333 -26 -63 -26z" />
    <glyph glyph-name="Amacron" unicode="&#x100;" horiz-adv-x="1657" 
d="M108 0l650 1650h141l649 -1650h-164l-201 526h-709l-203 -526h-163zM525 660h606l-303 790zM420 1962v104h816v-104h-816z" />
    <glyph glyph-name="amacron" unicode="&#x101;" 
d="M652 -32c-96 0 -182.499 23.5 -259.499 70.5s-138 111.5 -183 193.5s-67.5 175.667 -67.5 281c0 104 22.167 196.833 66.5 278.5s105 146.167 182 193.5s164.167 71 261.5 71c92.667 0 176.667 -21.667 252 -65s132.666 -103.333 171.999 -180v213h146v-1024h-146v216
c-44 -77.333 -103 -138 -177 -182s-156.333 -66 -247 -66zM688.001 95c76.667 0 144.5 17.833 203.5 53.5s105.5 85 139.5 148s51 134.833 51 215.5c0 81.333 -16.833 153.333 -50.5 216s-80.167 111.834 -139.5 147.501s-127.333 53.5 -204 53.5
s-144.667 -17.833 -204 -53.5s-106 -84.834 -140 -147.501s-51 -134.667 -51 -216c0 -80.667 17 -152.5 51 -215.5s80.667 -112.333 140 -148s127.333 -53.5 204 -53.5zM347.001 1368v104h816v-104h-816z" />
    <glyph glyph-name="Abreve" unicode="&#x102;" horiz-adv-x="1657" 
d="M108 0l650 1650h141l649 -1650h-164l-201 526h-709l-203 -526h-163zM525 660h606l-303 790zM828 1956c-71.333 0 -135.835 13.5 -193.502 40.5s-105.5 64.667 -143.5 113s-63 104.5 -75 168.5l111 27c8.66699 -47.333 26.334 -89.5 53.001 -126.5s61 -66.167 103 -87.5
s90.333 -32 145 -32c54 0 102 10.667 144 32s76.333 50.5 103 87.5s44.334 79.167 53.001 126.5l111 -27c-11.333 -64 -36.166 -120.167 -74.499 -168.5s-86.333 -86 -144 -113s-121.834 -40.5 -192.501 -40.5z" />
    <glyph glyph-name="abreve" unicode="&#x103;" 
d="M652 -32c-96 0 -182.499 23.5 -259.499 70.5s-138 111.5 -183 193.5s-67.5 175.667 -67.5 281c0 104 22.167 196.833 66.5 278.5s105 146.167 182 193.5s164.167 71 261.5 71c92.667 0 176.667 -21.667 252 -65s132.666 -103.333 171.999 -180v213h146v-1024h-146v216
c-44 -77.333 -103 -138 -177 -182s-156.333 -66 -247 -66zM688.001 95c76.667 0 144.5 17.833 203.5 53.5s105.5 85 139.5 148s51 134.833 51 215.5c0 81.333 -16.833 153.333 -50.5 216s-80.167 111.834 -139.5 147.501s-127.333 53.5 -204 53.5
s-144.667 -17.833 -204 -53.5s-106 -84.834 -140 -147.501s-51 -134.667 -51 -216c0 -80.667 17 -152.5 51 -215.5s80.667 -112.333 140 -148s127.333 -53.5 204 -53.5zM755.001 1362c-71.333 0 -135.835 13.5 -193.502 40.5s-105.5 64.667 -143.5 113s-63 104.5 -75 168.5
l111 27c8.66699 -47.333 26.334 -89.5 53.001 -126.5s61 -66.167 103 -87.5s90.333 -32 145 -32c54 0 102 10.667 144 32s76.333 50.5 103 87.5s44.334 79.167 53.001 126.5l111 -27c-11.333 -64 -36.166 -120.167 -74.499 -168.5s-86.333 -86 -144 -113
s-121.834 -40.5 -192.501 -40.5z" />
    <glyph glyph-name="Aogonek" unicode="&#x104;" horiz-adv-x="1657" 
d="M108 0l650 1650h141l649 -1650h-164l-201 526h-709l-203 -526h-163zM525 660h606l-303 790zM1533 -556c-73.333 0 -133.499 22.001 -180.499 66.001s-70.5 96.667 -70.5 158c0 46.667 15.667 98.5 47 155.5s76 116.833 134 179.5h85
c-52.667 -58 -93.834 -115.333 -123.501 -172s-44.5 -105.334 -44.5 -146.001c0 -39.333 14 -73.666 42 -102.999s69.333 -44 124 -44c36.667 0 71 8 103 24s62.667 41 92 75l67 -49c-30.667 -44.667 -70.667 -79.834 -120 -105.501s-101 -38.5 -155 -38.5z" />
    <glyph glyph-name="aogonek" unicode="&#x105;" 
d="M652 -32c-96 0 -182.499 23.5 -259.499 70.5s-138 111.5 -183 193.5s-67.5 175.667 -67.5 281c0 104 22.167 196.833 66.5 278.5s105 146.167 182 193.5s164.167 71 261.5 71c92.667 0 176.667 -21.667 252 -65s132.666 -103.333 171.999 -180v213h146v-1024h-146v216
c-44 -77.333 -103 -138 -177 -182s-156.333 -66 -247 -66zM688.001 95c76.667 0 144.5 17.833 203.5 53.5s105.5 85 139.5 148s51 134.833 51 215.5c0 81.333 -16.833 153.333 -50.5 216s-80.167 111.834 -139.5 147.501s-127.333 53.5 -204 53.5
s-144.667 -17.833 -204 -53.5s-106 -84.834 -140 -147.501s-51 -134.667 -51 -216c0 -80.667 17 -152.5 51 -215.5s80.667 -112.333 140 -148s127.333 -53.5 204 -53.5zM1207 -559c-73.333 0 -133.499 22.001 -180.499 66.001s-70.5 96.667 -70.5 158
c0 46.667 15.667 98.5 47 155.5s76 116.833 134 179.5h85c-52.667 -58 -93.834 -115.333 -123.501 -172s-44.5 -105.334 -44.5 -146.001c0 -39.333 14 -73.666 42 -102.999s69.333 -44 124 -44c36.667 0 71 8 103 24s62.667 41 92 75l67 -49
c-30.667 -44.667 -70.667 -79.834 -120 -105.501s-101 -38.5 -155 -38.5z" />
    <glyph glyph-name="Cacute" unicode="&#x106;" horiz-adv-x="1608" 
d="M989 -32c-123.333 0 -238 21.6689 -344 65.002s-198.5 103.833 -277.5 181.5s-140.5 168.5 -184.5 272.5s-66 216.333 -66 337s22 233 66 337s105.5 194.833 184.5 272.5s171.333 138.167 277 181.5s220.5 65 344.5 65c103.333 0 200.333 -15.167 291 -45.5
s170.667 -71.833 240 -124.5l-72 -127c-58.667 47.333 -126.667 83.666 -204 108.999s-159.333 38 -246 38c-104.667 0 -200.5 -18 -287.5 -54s-162.5 -86 -226.5 -150s-113.5 -139 -148.5 -225s-52.5 -178.333 -52.5 -277s17.5 -191 52.5 -277s84.5 -161 148.5 -225
s139.5 -114 226.5 -150s182.833 -54 287.5 -54c86.667 0 168.667 12.667 246 38s145.333 61.666 204 108.999l72 -127c-68.667 -52 -148.167 -93.333 -238.5 -124s-187.833 -46 -292.5 -46zM977 1813l-75 55l190 379l115 -82z" />
    <glyph glyph-name="cacute" unicode="&#x107;" horiz-adv-x="1143" 
d="M691 -32c-76.667 0 -148.663 13.5029 -215.996 40.5029s-126.333 65.167 -177 114.5s-90.334 107 -119.001 173s-43 138 -43 216c0 77.333 14 149 42 215s67.167 123.667 117.5 173s109.166 87.666 176.499 114.999s140.333 41 219 41c67.333 0 131.333 -10 192 -30
s113 -47.667 157 -83l-60 -98c-74.667 58 -165.334 87 -272.001 87c-84 0 -157.833 -18.5 -221.5 -55.5s-113.167 -87.333 -148.5 -151s-53 -134.834 -53 -213.501c0 -79.333 18 -150.833 54 -214.5s86 -113.834 150 -150.501s137.333 -55 220 -55
c52 0 101.167 7.5 147.5 22.5s87.166 36.5 122.499 64.5l61 -98c-44.667 -34.667 -97 -62.167 -157 -82.5s-124 -30.5 -192 -30.5zM663.004 1189l-75 55l190 379l115 -82z" />
    <glyph glyph-name="Cdotaccent" unicode="&#x10a;" horiz-adv-x="1608" 
d="M989 -32c-123.333 0 -238 21.6689 -344 65.002s-198.5 103.833 -277.5 181.5s-140.5 168.5 -184.5 272.5s-66 216.333 -66 337s22 233 66 337s105.5 194.833 184.5 272.5s171.333 138.167 277 181.5s220.5 65 344.5 65c103.333 0 200.333 -15.167 291 -45.5
s170.667 -71.833 240 -124.5l-72 -127c-58.667 47.333 -126.667 83.666 -204 108.999s-159.333 38 -246 38c-104.667 0 -200.5 -18 -287.5 -54s-162.5 -86 -226.5 -150s-113.5 -139 -148.5 -225s-52.5 -178.333 -52.5 -277s17.5 -191 52.5 -277s84.5 -161 148.5 -225
s139.5 -114 226.5 -150s182.833 -54 287.5 -54c86.667 0 168.667 12.667 246 38s145.333 61.666 204 108.999l72 -127c-68.667 -52 -148.167 -93.333 -238.5 -124s-187.833 -46 -292.5 -46zM989 2034c-17.333 0 -33.333 4.33301 -48 13s-26.334 20.334 -35.001 35
c-8.66699 14.667 -13 30.667 -13 48c0 18 4.33301 34 13 48s20.334 25.5 35.001 34.5s30.667 13.5 48 13.5c18 0 34 -4.5 48 -13.5s25.5 -20.5 34.5 -34.5s13.5 -30 13.5 -48c0 -17.333 -4.5 -33.333 -13.5 -48s-20.5 -26.334 -34.5 -35c-14 -8.66699 -30 -13 -48 -13z" />
    <glyph glyph-name="cdotaccent" unicode="&#x10b;" horiz-adv-x="1143" 
d="M691 -32c-76.667 0 -148.663 13.5029 -215.996 40.5029s-126.333 65.167 -177 114.5s-90.334 107 -119.001 173s-43 138 -43 216c0 77.333 14 149 42 215s67.167 123.667 117.5 173s109.166 87.666 176.499 114.999s140.333 41 219 41c67.333 0 131.333 -10 192 -30
s113 -47.667 157 -83l-60 -98c-74.667 58 -165.334 87 -272.001 87c-84 0 -157.833 -18.5 -221.5 -55.5s-113.167 -87.333 -148.5 -151s-53 -134.834 -53 -213.501c0 -79.333 18 -150.833 54 -214.5s86 -113.834 150 -150.501s137.333 -55 220 -55
c52 0 101.167 7.5 147.5 22.5s87.166 36.5 122.499 64.5l61 -98c-44.667 -34.667 -97 -62.167 -157 -82.5s-124 -30.5 -192 -30.5zM675.004 1410c-17.333 0 -33.333 4.33301 -48 13s-26.334 20.334 -35.001 35.001s-13 30.667 -13 48c0 18 4.33301 34 13 48
s20.334 25.5 35.001 34.5s30.667 13.5 48 13.5c18 0 34 -4.5 48 -13.5s25.5 -20.5 34.5 -34.5s13.5 -30 13.5 -48c0 -17.333 -4.5 -33.333 -13.5 -48s-20.5 -26.334 -34.5 -35.001s-30 -13 -48 -13z" />
    <glyph glyph-name="Ccaron" unicode="&#x10c;" horiz-adv-x="1608" 
d="M989 -32c-123.333 0 -238 21.6689 -344 65.002s-198.5 103.833 -277.5 181.5s-140.5 168.5 -184.5 272.5s-66 216.333 -66 337s22 233 66 337s105.5 194.833 184.5 272.5s171.333 138.167 277 181.5s220.5 65 344.5 65c103.333 0 200.333 -15.167 291 -45.5
s170.667 -71.833 240 -124.5l-72 -127c-58.667 47.333 -126.667 83.666 -204 108.999s-159.333 38 -246 38c-104.667 0 -200.5 -18 -287.5 -54s-162.5 -86 -226.5 -150s-113.5 -139 -148.5 -225s-52.5 -178.333 -52.5 -277s17.5 -191 52.5 -277s84.5 -161 148.5 -225
s139.5 -114 226.5 -150s182.833 -54 287.5 -54c86.667 0 168.667 12.667 246 38s145.333 61.666 204 108.999l72 -127c-68.667 -52 -148.167 -93.333 -238.5 -124s-187.833 -46 -292.5 -46zM988 1876l-367 270l61 84l306 -224l306 224l62 -84z" />
    <glyph glyph-name="ccaron" unicode="&#x10d;" horiz-adv-x="1143" 
d="M691 -32c-76.667 0 -148.663 13.5029 -215.996 40.5029s-126.333 65.167 -177 114.5s-90.334 107 -119.001 173s-43 138 -43 216c0 77.333 14 149 42 215s67.167 123.667 117.5 173s109.166 87.666 176.499 114.999s140.333 41 219 41c67.333 0 131.333 -10 192 -30
s113 -47.667 157 -83l-60 -98c-74.667 58 -165.334 87 -272.001 87c-84 0 -157.833 -18.5 -221.5 -55.5s-113.167 -87.333 -148.5 -151s-53 -134.834 -53 -213.501c0 -79.333 18 -150.833 54 -214.5s86 -113.834 150 -150.501s137.333 -55 220 -55
c52 0 101.167 7.5 147.5 22.5s87.166 36.5 122.499 64.5l61 -98c-44.667 -34.667 -97 -62.167 -157 -82.5s-124 -30.5 -192 -30.5zM673.004 1252l-367 270l61 84l306 -224l306 224l62 -84z" />
    <glyph glyph-name="Dcaron" unicode="&#x10e;" horiz-adv-x="1638" 
d="M269 0v1650h372c116.667 0 225.5 -21 326.5 -63s189.167 -100.5 264.5 -175.5s134.333 -162.5 177 -262.5s64 -208.333 64 -325c0 -116 -21 -224 -63 -324s-100.833 -187.5 -176.5 -262.5s-164 -133.333 -265 -175s-210.167 -62.5 -327.5 -62.5h-372zM421 136
l205.999 0.000976562c97.333 0 187.5 17.5 270.5 52.5s155.667 83.667 218 146s110.833 135.333 145.5 219s52 174.167 52 271.5s-17.333 187.666 -52 270.999s-83.167 156.333 -145.5 219s-135.166 111.5 -218.499 146.5s-173.333 52.5 -270 52.5h-206v-1378zM819.999 1846
l-367 270l61 84l306 -224l306 224l62 -84z" />
    <glyph glyph-name="dcaron" unicode="&#x10f;" 
d="M652 -32c-96 0 -182.501 23.332 -259.501 69.999s-138 111 -183 193s-67.5 175.667 -67.5 281c0 104.667 22.333 197.834 67 279.501s105.5 146.167 182.5 193.5s164.5 71 262.5 71c91.333 0 174 -21.667 248 -65s132 -103.333 174 -180v910h146v-1721h-146v216
c-43.333 -77.333 -102.166 -138 -176.499 -182s-156.833 -66 -247.5 -66zM686.999 94.999c76.667 0 144.668 17.835 204.001 53.502s106 85 140 148s51 134.5 51 214.5c0 81.333 -16.833 153.5 -50.5 216.5s-80.334 112.333 -140.001 148s-127.834 53.5 -204.501 53.5
c-76 0 -143.667 -17.833 -203 -53.5s-106 -85 -140 -148s-51 -135.167 -51 -216.5c0 -80.667 16.833 -152.334 50.5 -215.001s80.334 -111.834 140.001 -147.501s127.5 -53.5 203.5 -53.5zM650 1532l-367 270l61 84l306 -224l306 224l62 -84z" />
    <glyph glyph-name="Dcroat" unicode="&#x110;" horiz-adv-x="1673" 
d="M303 0v763.003h-164v124h164v763h372c113.333 0 220 -20.333 320 -61s188.5 -97.834 265.5 -171.501s137.333 -160.667 181 -261s65.5 -210.833 65.5 -331.5s-21.833 -231.334 -65.5 -332.001s-103.834 -187.834 -180.501 -261.501s-165.167 -130.667 -265.5 -171
s-207.166 -60.5 -320.499 -60.5h-372zM455 136.003h206.999c94 0 182.333 17 265 51s155.5 82.167 218.5 144.5s112.333 135.333 148 219s53.5 175.167 53.5 274.5s-17.667 190.833 -53 274.5s-84.666 156.667 -147.999 219s-136.333 110.5 -219 144.5s-171 51 -265 51h-207
v-627h442v-124h-442v-627z" />
    <glyph glyph-name="dcroat" unicode="&#x111;" 
d="M654 -32c-98 0 -185.497 23.5 -262.497 70.5s-137.833 111.5 -182.5 193.5s-67 175.333 -67 280v0c0 104.667 22.333 198 67 280s105.5 146.5 182.5 193.5s164.5 70.5 262.5 70.5c93.333 0 176.666 -22 249.999 -66s130.666 -103.667 171.999 -179v510h-403v100h403v300
h146v-300h175v-100h-175v-1321h-146v216c-40.667 -74.667 -97.834 -134.667 -171.501 -180s-157.167 -68 -250.5 -68zM688.003 95c76 0 143.663 17.833 202.996 53.5s106 84.834 140 147.501s51 134.667 51 216c0 82 -17.167 154.333 -51.5 217
s-81.166 111.667 -140.499 147s-126.666 53 -201.999 53s-142.833 -17.667 -202.5 -53s-106.667 -84.333 -141 -147s-51.5 -135 -51.5 -217v0c0 -81.333 16.833 -153.333 50.5 -216s80.334 -111.834 140.001 -147.501s127.834 -53.5 204.501 -53.5z" />
    <glyph glyph-name="Emacron" unicode="&#x112;" horiz-adv-x="1276" 
d="M269 0v1650h831v-134h-679v-622h655v-134h-655v-626h679v-134h-831zM289 1962v104h816v-104h-816z" />
    <glyph glyph-name="emacron" unicode="&#x113;" horiz-adv-x="1335" 
d="M695 -32c-107.333 0 -203.166 23.667 -287.499 71s-150.5 111.833 -198.5 193.5s-72 173.5 -72 275.5c0 76.667 13.833 148.167 41.5 214.5s66.167 124.5 115.5 174.5s106.666 89 171.999 117s135 42 209 42c101.333 0 191.5 -22.167 270.5 -66.5
s141.667 -105.5 188 -183.5s70.833 -168 73.5 -270c0 -8 -0.166992 -14.5 -0.5 -19.5s-1.16602 -11.167 -2.49902 -18.5h-922c0 -80 18 -150.667 54 -212s85.5 -109.5 148.5 -144.5s135.167 -52.5 216.5 -52.5c77.333 0 146.833 16.167 208.5 48.5
s113.167 78.833 154.5 139.5l108 -58c-48.667 -79.333 -114.834 -141 -198.501 -185s-176.5 -66 -278.5 -66zM290 608h771c-8.66699 64 -31 120.5 -67 169.5s-81.5 87.5 -136.5 115.5s-115.167 42 -180.5 42c-67.333 0 -128.666 -13.833 -183.999 -41.5
s-100.833 -66 -136.5 -115s-57.834 -105.833 -66.501 -170.5zM264 1345v104h816v-104h-816z" />
    <glyph glyph-name="Edotaccent" unicode="&#x116;" horiz-adv-x="1276" 
d="M269 0v1650h831v-134h-679v-622h655v-134h-655v-626h679v-134h-831zM698 2004c-17.333 0 -33.333 4.33301 -48 13s-26.334 20.334 -35.001 35.001s-13 30.667 -13 48c0 18 4.33301 34 13 48s20.334 25.5 35.001 34.5s30.667 13.5 48 13.5c18 0 34 -4.5 48 -13.5
s25.5 -20.5 34.5 -34.5s13.5 -30 13.5 -48c0 -17.333 -4.5 -33.333 -13.5 -48s-20.5 -26.334 -34.5 -35.001s-30 -13 -48 -13z" />
    <glyph glyph-name="edotaccent" unicode="&#x117;" horiz-adv-x="1335" 
d="M695 -32c-107.333 0 -203.166 23.667 -287.499 71s-150.5 111.833 -198.5 193.5s-72 173.5 -72 275.5c0 76.667 13.833 148.167 41.5 214.5s66.167 124.5 115.5 174.5s106.666 89 171.999 117s135 42 209 42c101.333 0 191.5 -22.167 270.5 -66.5
s141.667 -105.5 188 -183.5s70.833 -168 73.5 -270c0 -8 -0.166992 -14.5 -0.5 -19.5s-1.16602 -11.167 -2.49902 -18.5h-922c0 -80 18 -150.667 54 -212s85.5 -109.5 148.5 -144.5s135.167 -52.5 216.5 -52.5c77.333 0 146.833 16.167 208.5 48.5
s113.167 78.833 154.5 139.5l108 -58c-48.667 -79.333 -114.834 -141 -198.501 -185s-176.5 -66 -278.5 -66zM290 608h771c-8.66699 64 -31 120.5 -67 169.5s-81.5 87.5 -136.5 115.5s-115.167 42 -180.5 42c-67.333 0 -128.666 -13.833 -183.999 -41.5
s-100.833 -66 -136.5 -115s-57.834 -105.833 -66.501 -170.5zM673 1387c-17.333 0 -33.333 4.33301 -48 13s-26.334 20.334 -35.001 35.001s-13 30.667 -13 48c0 18 4.33301 34 13 48s20.334 25.5 35.001 34.5s30.667 13.5 48 13.5c18 0 34 -4.5 48 -13.5
s25.5 -20.5 34.5 -34.5s13.5 -30 13.5 -48c0 -17.333 -4.5 -33.333 -13.5 -48s-20.5 -26.334 -34.5 -35.001s-30 -13 -48 -13z" />
    <glyph glyph-name="Eogonek" unicode="&#x118;" horiz-adv-x="1276" 
d="M269 0v1650h831v-134h-679v-622h655v-134h-655v-626h679v-134h-831zM1086 -559c-73.333 0 -133.499 22.001 -180.499 66.001s-70.5 96.667 -70.5 158c0 46.667 15.667 98.5 47 155.5s76 116.833 134 179.5h85c-52.667 -58 -93.834 -115.333 -123.501 -172
s-44.5 -105.334 -44.5 -146.001c0 -39.333 14 -73.666 42 -102.999s69.333 -44 124 -44c36.667 0 71 8 103 24s62.667 41 92 75l67 -49c-30.667 -44.667 -70.667 -79.834 -120 -105.501s-101 -38.5 -155 -38.5z" />
    <glyph glyph-name="eogonek" unicode="&#x119;" horiz-adv-x="1335" 
d="M695 -32c-107.333 0 -203.166 23.667 -287.499 71s-150.5 111.833 -198.5 193.5s-72 173.5 -72 275.5c0 76.667 13.833 148.167 41.5 214.5s66.167 124.5 115.5 174.5s106.666 89 171.999 117s135 42 209 42c101.333 0 191.5 -22.167 270.5 -66.5
s141.667 -105.5 188 -183.5s70.833 -168 73.5 -270c0 -8 -0.166992 -14.5 -0.5 -19.5s-1.16602 -11.167 -2.49902 -18.5h-922c0 -80 18 -150.667 54 -212s85.5 -109.5 148.5 -144.5s135.167 -52.5 216.5 -52.5c77.333 0 146.833 16.167 208.5 48.5
s113.167 78.833 154.5 139.5l108 -58c-48.667 -79.333 -114.834 -141 -198.501 -185s-176.5 -66 -278.5 -66zM290 608h771c-8.66699 64 -31 120.5 -67 169.5s-81.5 87.5 -136.5 115.5s-115.167 42 -180.5 42c-67.333 0 -128.666 -13.833 -183.999 -41.5
s-100.833 -66 -136.5 -115s-57.834 -105.833 -66.501 -170.5zM726 -556c-73.333 0 -133.499 22.001 -180.499 66.001s-70.5 96.667 -70.5 158c0 46.667 15.667 98.5 47 155.5s76 116.833 134 179.5h85c-52.667 -58 -93.834 -115.333 -123.501 -172
s-44.5 -105.334 -44.5 -146.001c0 -39.333 14 -73.666 42 -102.999s69.333 -44 124 -44c36.667 0 71 8 103 24s62.667 41 92 75l67 -49c-30.667 -44.667 -70.667 -79.834 -120 -105.501s-101 -38.5 -155 -38.5z" />
    <glyph glyph-name="Ecaron" unicode="&#x11a;" horiz-adv-x="1276" 
d="M269 0v1650h831v-134h-679v-622h655v-134h-655v-626h679v-134h-831zM697 1846l-367 270l61 84l306 -224l306 224l62 -84z" />
    <glyph glyph-name="ecaron" unicode="&#x11b;" horiz-adv-x="1335" 
d="M695 -32c-107.333 0 -203.166 23.667 -287.499 71s-150.5 111.833 -198.5 193.5s-72 173.5 -72 275.5c0 76.667 13.833 148.167 41.5 214.5s66.167 124.5 115.5 174.5s106.666 89 171.999 117s135 42 209 42c101.333 0 191.5 -22.167 270.5 -66.5
s141.667 -105.5 188 -183.5s70.833 -168 73.5 -270c0 -8 -0.166992 -14.5 -0.5 -19.5s-1.16602 -11.167 -2.49902 -18.5h-922c0 -80 18 -150.667 54 -212s85.5 -109.5 148.5 -144.5s135.167 -52.5 216.5 -52.5c77.333 0 146.833 16.167 208.5 48.5
s113.167 78.833 154.5 139.5l108 -58c-48.667 -79.333 -114.834 -141 -198.501 -185s-176.5 -66 -278.5 -66zM290 608h771c-8.66699 64 -31 120.5 -67 169.5s-81.5 87.5 -136.5 115.5s-115.167 42 -180.5 42c-67.333 0 -128.666 -13.833 -183.999 -41.5
s-100.833 -66 -136.5 -115s-57.834 -105.833 -66.501 -170.5zM672 1229l-367 270l61 84l306 -224l306 224l62 -84z" />
    <glyph glyph-name="Gbreve" unicode="&#x11e;" horiz-adv-x="1893" 
d="M982 -32c-114.667 0 -221.164 22.002 -319.497 66.002s-184.333 105 -258 183s-131.167 168.833 -172.5 272.5s-62 215.167 -62 334.5c0 110 18.333 216.333 55 319s90.334 194.167 161.001 274.5s157.167 144.166 259.5 191.499s218.5 71 348.5 71
c85.333 0 166 -10.667 242 -32s145.833 -51 209.5 -89s119.167 -82.667 166.5 -134l-79 -116c-62.667 71.333 -141.334 128.5 -236.001 171.5s-196.334 64.5 -305.001 64.5c-104 0 -196.833 -19.333 -278.5 -58s-150.834 -91.5 -207.501 -158.5s-99.667 -143.333 -129 -229
s-44 -175.834 -44 -270.501c0 -102 16.5 -196.833 49.5 -284.5s79.167 -164.334 138.5 -230.001s128.666 -116.667 207.999 -153s164.666 -54.5 255.999 -54.5c74 0 146.667 12.333 218 37s135.5 60.334 192.5 107.001s102.333 102.5 136 167.5s50.5 138.167 50.5 219.5v57
h-608v123h764v-147c0 -116.667 -22 -219 -66 -307s-102.667 -161.167 -176 -219.5s-154.666 -102.333 -243.999 -132s-179.333 -44.5 -270 -44.5zM998.003 1963c-71.333 0 -135.835 13.5 -193.502 40.5s-105.5 64.667 -143.5 113s-63 104.5 -75 168.5l111 27
c8.66699 -47.333 26.334 -89.5 53.001 -126.5s61 -66.167 103 -87.5s90.333 -32 145 -32c54 0 102 10.667 144 32s76.333 50.5 103 87.5s44.334 79.167 53.001 126.5l111 -27c-11.333 -64 -36.166 -120.167 -74.499 -168.5s-86.333 -86 -144 -113
s-121.834 -40.5 -192.501 -40.5z" />
    <glyph glyph-name="gbreve" unicode="&#x11f;" 
d="M667 -550c-129.333 0 -238.67 25.334 -328.003 76.001s-155.666 124.667 -198.999 222l123 57c31.333 -70.667 83.333 -126.834 156 -168.501s155.334 -62.5 248.001 -62.5c78 0 147.833 15.5 209.5 46.5s110.334 75.833 146.001 134.5s53.5 129 53.5 211v250
c-42.667 -77.333 -101.167 -138 -175.5 -182s-157.166 -66 -248.499 -66c-95.333 0 -181.5 23.333 -258.5 70s-138 111 -183 193s-67.5 175.667 -67.5 281c0 104.667 22.333 197.834 67 279.501s105.5 146.167 182.5 193.5s164.5 71 262.5 71
c90.667 0 173.167 -21.667 247.5 -65s132.166 -103.333 173.499 -180v213h146v-1052c0 -113.333 -22.333 -208.833 -67 -286.5s-108.5 -136.334 -191.5 -176.001s-181.833 -59.5 -296.5 -59.5zM686.996 95.001c77.333 0 145.666 17.833 204.999 53.5s106 85 140 148
s51 134.5 51 214.5c0 81.333 -17 153.5 -51 216.5s-80.667 112.333 -140 148s-127.333 53.5 -204 53.5s-144.667 -17.833 -204 -53.5s-106 -85 -140 -148s-51 -135.167 -51 -216.5c0 -80 16.833 -151.5 50.5 -214.5s80.334 -112.333 140.001 -148s127.5 -53.5 203.5 -53.5z
M691.996 1354c-71.333 0 -135.835 13.5 -193.502 40.5s-105.5 64.667 -143.5 113s-63 104.5 -75 168.5l111 27c8.66699 -47.333 26.334 -89.5 53.001 -126.5s61 -66.167 103 -87.5s90.333 -32 145 -32c54 0 102 10.667 144 32s76.333 50.5 103 87.5
s44.334 79.167 53.001 126.5l111 -27c-11.333 -64 -36.166 -120.167 -74.499 -168.5s-86.333 -86 -144 -113s-121.834 -40.5 -192.501 -40.5z" />
    <glyph glyph-name="Gdotaccent" unicode="&#x120;" horiz-adv-x="1893" 
d="M982 -32c-114.667 0 -221.164 22.002 -319.497 66.002s-184.333 105 -258 183s-131.167 168.833 -172.5 272.5s-62 215.167 -62 334.5c0 110 18.333 216.333 55 319s90.334 194.167 161.001 274.5s157.167 144.166 259.5 191.499s218.5 71 348.5 71
c85.333 0 166 -10.667 242 -32s145.833 -51 209.5 -89s119.167 -82.667 166.5 -134l-79 -116c-62.667 71.333 -141.334 128.5 -236.001 171.5s-196.334 64.5 -305.001 64.5c-104 0 -196.833 -19.333 -278.5 -58s-150.834 -91.5 -207.501 -158.5s-99.667 -143.333 -129 -229
s-44 -175.834 -44 -270.501c0 -102 16.5 -196.833 49.5 -284.5s79.167 -164.334 138.5 -230.001s128.666 -116.667 207.999 -153s164.666 -54.5 255.999 -54.5c74 0 146.667 12.333 218 37s135.5 60.334 192.5 107.001s102.333 102.5 136 167.5s50.5 138.167 50.5 219.5v57
h-608v123h764v-147c0 -116.667 -22 -219 -66 -307s-102.667 -161.167 -176 -219.5s-154.666 -102.333 -243.999 -132s-179.333 -44.5 -270 -44.5zM998.003 2011c-17.333 0 -33.333 4.33301 -48 13s-26.334 20.334 -35.001 35.001s-13 30.667 -13 48c0 18 4.33301 34 13 48
s20.334 25.5 35.001 34.5s30.667 13.5 48 13.5c18 0 34 -4.5 48 -13.5s25.5 -20.5 34.5 -34.5s13.5 -30 13.5 -48c0 -17.333 -4.5 -33.333 -13.5 -48s-20.5 -26.334 -34.5 -35.001s-30 -13 -48 -13z" />
    <glyph glyph-name="gdotaccent" unicode="&#x121;" 
d="M667 -550c-129.333 0 -238.67 25.334 -328.003 76.001s-155.666 124.667 -198.999 222l123 57c31.333 -70.667 83.333 -126.834 156 -168.501s155.334 -62.5 248.001 -62.5c78 0 147.833 15.5 209.5 46.5s110.334 75.833 146.001 134.5s53.5 129 53.5 211v250
c-42.667 -77.333 -101.167 -138 -175.5 -182s-157.166 -66 -248.499 -66c-95.333 0 -181.5 23.333 -258.5 70s-138 111 -183 193s-67.5 175.667 -67.5 281c0 104.667 22.333 197.834 67 279.501s105.5 146.167 182.5 193.5s164.5 71 262.5 71
c90.667 0 173.167 -21.667 247.5 -65s132.166 -103.333 173.499 -180v213h146v-1052c0 -113.333 -22.333 -208.833 -67 -286.5s-108.5 -136.334 -191.5 -176.001s-181.833 -59.5 -296.5 -59.5zM686.996 95.001c77.333 0 145.666 17.833 204.999 53.5s106 85 140 148
s51 134.5 51 214.5c0 81.333 -17 153.5 -51 216.5s-80.667 112.333 -140 148s-127.333 53.5 -204 53.5s-144.667 -17.833 -204 -53.5s-106 -85 -140 -148s-51 -135.167 -51 -216.5c0 -80 16.833 -151.5 50.5 -214.5s80.334 -112.333 140.001 -148s127.5 -53.5 203.5 -53.5z
M691.996 1402c-17.333 0 -33.333 4.33301 -48 13s-26.334 20.334 -35.001 35.001s-13 30.667 -13 48c0 18 4.33301 34 13 48s20.334 25.5 35.001 34.5s30.667 13.5 48 13.5c18 0 34 -4.5 48 -13.5s25.5 -20.5 34.5 -34.5s13.5 -30 13.5 -48
c0 -17.333 -4.5 -33.333 -13.5 -48s-20.5 -26.334 -34.5 -35.001s-30 -13 -48 -13z" />
    <glyph glyph-name="uni0122" unicode="&#x122;" horiz-adv-x="1893" 
d="M982 -32c-114.667 0 -221.164 22.002 -319.497 66.002s-184.333 105 -258 183s-131.167 168.833 -172.5 272.5s-62 215.167 -62 334.5c0 110 18.333 216.333 55 319s90.334 194.167 161.001 274.5s157.167 144.166 259.5 191.499s218.5 71 348.5 71
c85.333 0 166 -10.667 242 -32s145.833 -51 209.5 -89s119.167 -82.667 166.5 -134l-79 -116c-62.667 71.333 -141.334 128.5 -236.001 171.5s-196.334 64.5 -305.001 64.5c-104 0 -196.833 -19.333 -278.5 -58s-150.834 -91.5 -207.501 -158.5s-99.667 -143.333 -129 -229
s-44 -175.834 -44 -270.501c0 -102 16.5 -196.833 49.5 -284.5s79.167 -164.334 138.5 -230.001s128.666 -116.667 207.999 -153s164.666 -54.5 255.999 -54.5c74 0 146.667 12.333 218 37s135.5 60.334 192.5 107.001s102.333 102.5 136 167.5s50.5 138.167 50.5 219.5v57
h-608v123h764v-147c0 -116.667 -22 -219 -66 -307s-102.667 -161.167 -176 -219.5s-154.666 -102.333 -243.999 -132s-179.333 -44.5 -270 -44.5zM985.003 -469.998l-24.998 20.0029c15.333 20.667 28.166 45.667 38.499 75s15.833 61.666 16.5 96.999
c-18.667 2 -34.667 10 -48 24s-20 30.667 -20 50c0 22 7.16699 40.167 21.5 54.5s33.166 21.5 56.499 21.5c24 0 42.5 -8 55.5 -24s19.5 -40.667 19.5 -74c0 -42.667 -11.167 -87.834 -33.5 -135.501s-49.5 -83.834 -81.5 -108.501z" />
    <glyph glyph-name="uni0123" unicode="&#x123;" 
d="M667 -550c-129.333 0 -238.67 25.334 -328.003 76.001s-155.666 124.667 -198.999 222l123 57c31.333 -70.667 83.333 -126.834 156 -168.501s155.334 -62.5 248.001 -62.5c78 0 147.833 15.5 209.5 46.5s110.334 75.833 146.001 134.5s53.5 129 53.5 211v250
c-42.667 -77.333 -101.167 -138 -175.5 -182s-157.166 -66 -248.499 -66c-95.333 0 -181.5 23.333 -258.5 70s-138 111 -183 193s-67.5 175.667 -67.5 281c0 104.667 22.333 197.834 67 279.501s105.5 146.167 182.5 193.5s164.5 71 262.5 71
c90.667 0 173.167 -21.667 247.5 -65s132.166 -103.333 173.499 -180v213h146v-1052c0 -113.333 -22.333 -208.833 -67 -286.5s-108.5 -136.334 -191.5 -176.001s-181.833 -59.5 -296.5 -59.5zM686.996 95.001c77.333 0 145.666 17.833 204.999 53.5s106 85 140 148
s51 134.5 51 214.5c0 81.333 -17 153.5 -51 216.5s-80.667 112.333 -140 148s-127.333 53.5 -204 53.5s-144.667 -17.833 -204 -53.5s-106 -85 -140 -148s-51 -135.167 -51 -216.5c0 -80 16.833 -151.5 50.5 -214.5s80.334 -112.333 140.001 -148s127.5 -53.5 203.5 -53.5z
M695.996 1371c-26 0 -45.999 7.16602 -59.999 21.499s-21 35.833 -21 64.5c0 37.333 11.167 76.5 33.5 117.5s50.5 72.833 84.5 95.5l35 -20c-14.667 -16.667 -27.167 -37.667 -37.5 -63s-16.5 -52.666 -18.5 -81.999c20 -1.33301 36.333 -8.33301 49 -21s19 -27.667 19 -45
c0 -20 -7.83301 -36.333 -23.5 -49s-35.834 -19 -60.501 -19z" />
    <glyph glyph-name="Hbar" unicode="&#x126;" horiz-adv-x="1742" 
d="M269 0v1650h152v-815h901v815h151v-1650h-151v724h-901v-724h-152zM135 1069v110h1484v-110h-1484z" />
    <glyph glyph-name="hbar" unicode="&#x127;" horiz-adv-x="1286" 
d="M215 0v1721h146v-837c28 48 71.333 88.667 130 122s130.334 50 215.001 50c79.333 0 147.666 -16.333 204.999 -49s101.333 -80.167 132 -142.5s46 -137.5 46 -225.5v-639h-146v611c0 106 -24.667 187 -74 243s-119 84 -209 84c-62.667 0 -116.167 -12.667 -160.5 -38
s-78.5 -58.5 -102.5 -99.5s-36 -85.5 -36 -133.5v-667h-146zM74 1308v100h506v-100h-506z" />
    <glyph glyph-name="Imacron" unicode="&#x12a;" horiz-adv-x="690" 
d="M269 0v1650h152v-1650h-152zM-64 1962v104h816v-104h-816z" />
    <glyph glyph-name="imacron" unicode="&#x12b;" horiz-adv-x="577" 
d="M215 0v1024h146v-1024h-146zM-120 1337v104h816v-104h-816z" />
    <glyph glyph-name="Iogonek" unicode="&#x12e;" horiz-adv-x="690" 
d="M269 0v1650h152v-1650h-152zM406 -559c-73.333 0 -133.499 22.001 -180.499 66.001s-70.5 96.667 -70.5 158c0 46.667 15.667 98.5 47 155.5s76 116.833 134 179.5h85c-52.667 -58 -93.834 -115.333 -123.501 -172s-44.5 -105.334 -44.5 -146.001
c0 -39.333 14 -73.666 42 -102.999s69.333 -44 124 -44c36.667 0 71 8 103 24s62.667 41 92 75l67 -49c-30.667 -44.667 -70.667 -79.834 -120 -105.501s-101 -38.5 -155 -38.5z" />
    <glyph glyph-name="iogonek" unicode="&#x12f;" horiz-adv-x="577" 
d="M215 0v1024h146v-1024h-146zM289 1379c-17.333 0 -33.333 4.33301 -48 13s-26.334 20.334 -35.001 35.001s-13 30.667 -13 48c0 18 4.33301 34 13 48s20.334 25.5 35.001 34.5s30.667 13.5 48 13.5c18 0 34 -4.5 48 -13.5s25.5 -20.5 34.5 -34.5s13.5 -30 13.5 -48
c0 -17.333 -4.5 -33.333 -13.5 -48s-20.5 -26.334 -34.5 -35.001s-30 -13 -48 -13zM347 -559c-73.333 0 -133.499 22.001 -180.499 66.001s-70.5 96.667 -70.5 158c0 46.667 15.667 98.5 47 155.5s76 116.833 134 179.5h85c-52.667 -58 -93.834 -115.333 -123.501 -172
s-44.5 -105.334 -44.5 -146.001c0 -39.333 14 -73.666 42 -102.999s69.333 -44 124 -44c36.667 0 71 8 103 24s62.667 41 92 75l67 -49c-30.667 -44.667 -70.667 -79.834 -120 -105.501s-101 -38.5 -155 -38.5z" />
    <glyph glyph-name="Idotaccent" unicode="&#x130;" horiz-adv-x="690" 
d="M269 0v1650h152v-1650h-152zM345 2004c-17.333 0 -33.333 4.33301 -48 13s-26.334 20.334 -35.001 35.001s-13 30.667 -13 48c0 18 4.33301 34 13 48s20.334 25.5 35.001 34.5s30.667 13.5 48 13.5c18 0 34 -4.5 48 -13.5s25.5 -20.5 34.5 -34.5s13.5 -30 13.5 -48
c0 -17.333 -4.5 -33.333 -13.5 -48s-20.5 -26.334 -34.5 -35.001s-30 -13 -48 -13z" />
    <glyph glyph-name="dotlessi" unicode="&#x131;" horiz-adv-x="577" 
d="M215 0v1024h146v-1024h-146z" />
    <glyph glyph-name="uni0136" unicode="&#x136;" horiz-adv-x="1507" 
d="M269 0v1650h152v-756l740 756h192l-800 -817l884 -833h-214l-802 749v-749h-152zM726 -469l-24.998 20.0029c15.333 20.667 28.166 45.667 38.499 75s15.833 61.666 16.5 96.999c-18.667 2 -34.667 10 -48 24s-20 30.667 -20 50c0 22 7.16699 40.167 21.5 54.5
s33.166 21.5 56.499 21.5c24 0 42.5 -8 55.5 -24s19.5 -40.667 19.5 -74c0 -42.667 -11.167 -87.834 -33.5 -135.501s-49.5 -83.834 -81.5 -108.501z" />
    <glyph glyph-name="uni0137" unicode="&#x137;" horiz-adv-x="1102" 
d="M215 0v1720h146v-1115l409 419h191l-467 -482l491 -542h-187l-437 486v-486h-146zM512 -469l-24.998 20.0029c15.333 20.667 28.166 45.667 38.499 75s15.833 61.666 16.5 96.999c-18.667 2 -34.667 10 -48 24s-20 30.667 -20 50c0 22 7.16699 40.167 21.5 54.5
s33.166 21.5 56.499 21.5c24 0 42.5 -8 55.5 -24s19.5 -40.667 19.5 -74c0 -42.667 -11.167 -87.834 -33.5 -135.501s-49.5 -83.834 -81.5 -108.501z" />
    <glyph glyph-name="Lacute" unicode="&#x139;" horiz-adv-x="1223" 
d="M269 0v1650h152v-1516h691v-134h-843zM644 1783l-75 55l190 379l115 -82z" />
    <glyph glyph-name="lacute" unicode="&#x13a;" horiz-adv-x="577" 
d="M215 0v1720h146v-1720h-146zM277 1853l-75 55l190 379l115 -82z" />
    <glyph glyph-name="uni013B" unicode="&#x13b;" horiz-adv-x="1223" 
d="M269 0v1650h152v-1516h691v-134h-843zM609 -469l-24.998 20.0029c15.333 20.667 28.166 45.667 38.499 75s15.833 61.666 16.5 96.999c-18.667 2 -34.667 10 -48 24s-20 30.667 -20 50c0 22 7.16699 40.167 21.5 54.5s33.166 21.5 56.499 21.5c24 0 42.5 -8 55.5 -24
s19.5 -40.667 19.5 -74c0 -42.667 -11.167 -87.834 -33.5 -135.501s-49.5 -83.834 -81.5 -108.501z" />
    <glyph glyph-name="uni013C" unicode="&#x13c;" horiz-adv-x="577" 
d="M215 0v1720h146v-1720h-146zM250 -469l-24.998 20.0029c15.333 20.667 28.166 45.667 38.499 75s15.833 61.666 16.5 96.999c-18.667 2 -34.667 10 -48 24s-20 30.667 -20 50c0 22 7.16699 40.167 21.5 54.5s33.166 21.5 56.499 21.5c24 0 42.5 -8 55.5 -24
s19.5 -40.667 19.5 -74c0 -42.667 -11.167 -87.834 -33.5 -135.501s-49.5 -83.834 -81.5 -108.501z" />
    <glyph glyph-name="Lcaron" unicode="&#x13d;" horiz-adv-x="1223" 
d="M269 0v1650h152v-1516h691v-134h-843zM655 1846l-367 270l61 84l306 -224l306 224l62 -84z" />
    <glyph glyph-name="lcaron" unicode="&#x13e;" horiz-adv-x="577" 
d="M215 0v1720h146v-1720h-146zM288 1916l-367 270l61 84l306 -224l306 224l62 -84z" />
    <glyph glyph-name="Lslash" unicode="&#x141;" horiz-adv-x="1258" 
d="M304 0v705l-162 -128v124l162 128v821h153v-701l214 168v-124l-214 -169v-690h689v-134h-842z" />
    <glyph glyph-name="lslash" unicode="&#x142;" horiz-adv-x="653" 
d="M284 0v803l-180 -141v132l180 141v785h146v-669l180 140v-131l-180 -141v-919h-146z" />
    <glyph glyph-name="Nacute" unicode="&#x143;" horiz-adv-x="1728" 
d="M269 0v1650h152l886 -1391v1391h152v-1650h-152l-886 1389v-1389h-152zM853 1783l-75 55l190 379l115 -82z" />
    <glyph glyph-name="nacute" unicode="&#x144;" horiz-adv-x="1286" 
d="M215 0v1024h146v-140c28 48 71.333 88.667 130 122s130.334 50 215.001 50c79.333 0 147.666 -16.333 204.999 -49s101.333 -80.167 132 -142.5s46 -137.5 46 -225.5v-639h-146v611c0 106 -24.667 186.833 -74 242.5s-119 83.5 -209 83.5
c-62.667 0 -116.167 -12.5 -160.5 -37.5s-78.5 -58 -102.5 -99s-36 -85.5 -36 -133.5v-667h-146zM655 1189l-75 55l190 379l115 -82z" />
    <glyph glyph-name="uni0145" unicode="&#x145;" horiz-adv-x="1728" 
d="M269 0v1650h152l886 -1391v1391h152v-1650h-152l-886 1389v-1389h-152zM825 -469l-24.998 20.0029c15.333 20.667 28.166 45.667 38.499 75s15.833 61.666 16.5 96.999c-18.667 2 -34.667 10 -48 24s-20 30.667 -20 50c0 22 7.16699 40.167 21.5 54.5
s33.166 21.5 56.499 21.5c24 0 42.5 -8 55.5 -24s19.5 -40.667 19.5 -74c0 -42.667 -11.167 -87.834 -33.5 -135.501s-49.5 -83.834 -81.5 -108.501z" />
    <glyph glyph-name="uni0146" unicode="&#x146;" horiz-adv-x="1286" 
d="M215 0v1024h146v-140c28 48 71.333 88.667 130 122s130.334 50 215.001 50c79.333 0 147.666 -16.333 204.999 -49s101.333 -80.167 132 -142.5s46 -137.5 46 -225.5v-639h-146v611c0 106 -24.667 186.833 -74 242.5s-119 83.5 -209 83.5
c-62.667 0 -116.167 -12.5 -160.5 -37.5s-78.5 -58 -102.5 -99s-36 -85.5 -36 -133.5v-667h-146zM605 -469l-24.998 20.0029c15.333 20.667 28.166 45.667 38.499 75s15.833 61.666 16.5 96.999c-18.667 2 -34.667 10 -48 24s-20 30.667 -20 50
c0 22 7.16699 40.167 21.5 54.5s33.166 21.5 56.499 21.5c24 0 42.5 -8 55.5 -24s19.5 -40.667 19.5 -74c0 -42.667 -11.167 -87.834 -33.5 -135.501s-49.5 -83.834 -81.5 -108.501z" />
    <glyph glyph-name="Ncaron" unicode="&#x147;" horiz-adv-x="1728" 
d="M269 0v1650h152l886 -1391v1391h152v-1650h-152l-886 1389v-1389h-152zM864 1846l-367 270l61 84l306 -224l306 224l62 -84z" />
    <glyph glyph-name="ncaron" unicode="&#x148;" horiz-adv-x="1286" 
d="M215 0v1024h146v-140c28 48 71.333 88.667 130 122s130.334 50 215.001 50c79.333 0 147.666 -16.333 204.999 -49s101.333 -80.167 132 -142.5s46 -137.5 46 -225.5v-639h-146v611c0 106 -24.667 186.833 -74 242.5s-119 83.5 -209 83.5
c-62.667 0 -116.167 -12.5 -160.5 -37.5s-78.5 -58 -102.5 -99s-36 -85.5 -36 -133.5v-667h-146zM666 1252l-367 270l61 84l306 -224l306 224l62 -84z" />
    <glyph glyph-name="Eng" unicode="&#x14a;" horiz-adv-x="1710" 
d="M967 -551c-78.667 0 -148.335 12.332 -209.002 36.999s-117.667 63.334 -171 116.001l61 127c46.667 -48 95.334 -82.5 146.001 -103.5s103.334 -31.5 158.001 -31.5c114.667 0 202.5 34 263.5 102s91.5 161.333 91.5 280v24l-886 1389v-1389h-152v1650h152l886 -1391
v1391h152v-1705c0 -156 -43.5 -277.667 -130.5 -365s-207.5 -131 -361.5 -131z" />
    <glyph glyph-name="eng" unicode="&#x14b;" horiz-adv-x="1282" 
d="M811 -550c-36 0 -70.501 4.5 -103.501 13.5s-60.167 21.5 -81.5 37.5l44 117c30.667 -25.333 69.334 -38 116.001 -38c104.667 0 157 69.333 157 208v820c0 59.333 -11 114 -33 164s-54.5 90.167 -97.5 120.5s-95.5 45.5 -157.5 45.5
c-51.333 0 -99.5 -10.833 -144.5 -32.5s-81.167 -52.834 -108.5 -93.501s-41 -89 -41 -145v-667h-146v1024h146v-140c28.667 51.333 73.5 92.833 134.5 124.5s128.167 47.5 201.5 47.5c78 0 146.5 -17.833 205.5 -53.5s104.833 -84.667 137.5 -147s49 -133.166 49 -212.499
v-868c0 -104.667 -23.667 -185 -71 -241s-116.333 -84 -207 -84z" />
    <glyph glyph-name="Omacron" unicode="&#x14c;" horiz-adv-x="2000" 
d="M1000 -32c-115.333 0 -223.333 22 -324 66s-189 105.167 -265 183.5s-135.5 169.333 -178.5 273s-64.5 214.834 -64.5 333.501c0 119.333 21.5 230.666 64.5 333.999s102.5 194.166 178.5 272.499s164.333 139.5 265 183.5s208.667 66 324 66s223.333 -22 324 -66
s189 -105.167 265 -183.5s135.5 -169.166 178.5 -272.499s64.5 -214.666 64.5 -333.999c0 -118.667 -21.5 -229.834 -64.5 -333.501s-102.5 -194.667 -178.5 -273s-164.333 -139.5 -265 -183.5s-208.667 -66 -324 -66zM1000 115c94 0 181.333 18 262 54
s151.5 86.333 212.5 151s108.5 140 142.5 226s51 178.667 51 278s-17 192 -51 278s-81.5 161.333 -142.5 226s-131.833 115 -212.5 151s-168 54 -262 54s-181.5 -18 -262.5 -54s-151.833 -86.333 -212.5 -151s-108.167 -140 -142.5 -226s-51.5 -178.667 -51.5 -278
s17.167 -192 51.5 -278s81.833 -161.333 142.5 -226s131.5 -115 212.5 -151s168.5 -54 262.5 -54zM592 1969v104h816v-104h-816z" />
    <glyph glyph-name="omacron" unicode="&#x14d;" horiz-adv-x="1408" 
d="M704 -32c-106.667 0 -202.832 23 -288.499 69s-153.5 110 -203.5 192s-75 176.333 -75 283c0 107.333 25 201.833 75 283.5s117.667 145.5 203 191.5s181.666 69 288.999 69c106.667 0 202.834 -23 288.501 -69s153.5 -109.833 203.5 -191.5s75 -176.167 75 -283.5
c0 -106.667 -25 -201 -75 -283s-117.833 -146 -203.5 -192s-181.834 -69 -288.501 -69zM704.002 98c80 0 151.333 17.668 214 53.001s112 84.166 148 146.499s54 133.833 54 214.5s-18 152.167 -54 214.5s-85.333 111.166 -148 146.499s-134 53 -214 53
s-151.333 -17.667 -214 -53s-112 -84.166 -148 -146.499s-54 -133.833 -54 -214.5c0 -80 18 -151.333 54 -214s85.333 -111.667 148 -147s134 -53 214 -53zM296.002 1368v104h816v-104h-816z" />
    <glyph glyph-name="Ohungarumlaut" unicode="&#x150;" horiz-adv-x="2000" 
d="M1000 -32c-115.333 0 -223.333 22 -324 66s-189 105.167 -265 183.5s-135.5 169.333 -178.5 273s-64.5 214.834 -64.5 333.501c0 119.333 21.5 230.666 64.5 333.999s102.5 194.166 178.5 272.499s164.333 139.5 265 183.5s208.667 66 324 66s223.333 -22 324 -66
s189 -105.167 265 -183.5s135.5 -169.166 178.5 -272.499s64.5 -214.666 64.5 -333.999c0 -118.667 -21.5 -229.834 -64.5 -333.501s-102.5 -194.667 -178.5 -273s-164.333 -139.5 -265 -183.5s-208.667 -66 -324 -66zM1000 115c94 0 181.333 18 262 54
s151.5 86.333 212.5 151s108.5 140 142.5 226s51 178.667 51 278s-17 192 -51 278s-81.5 161.333 -142.5 226s-131.833 115 -212.5 151s-168 54 -262 54s-181.5 -18 -262.5 -54s-151.833 -86.333 -212.5 -151s-108.167 -140 -142.5 -226s-51.5 -178.667 -51.5 -278
s17.167 -192 51.5 -278s81.833 -161.333 142.5 -226s131.5 -115 212.5 -151s168.5 -54 262.5 -54zM1142 2012l-69 75l224 225l109 -112zM787 2012l-69 75l226 225l107 -112z" />
    <glyph glyph-name="ohungarumlaut" unicode="&#x151;" horiz-adv-x="1408" 
d="M704 -32c-106.667 0 -202.832 23 -288.499 69s-153.5 110 -203.5 192s-75 176.333 -75 283c0 107.333 25 201.833 75 283.5s117.667 145.5 203 191.5s181.666 69 288.999 69c106.667 0 202.834 -23 288.501 -69s153.5 -109.833 203.5 -191.5s75 -176.167 75 -283.5
c0 -106.667 -25 -201 -75 -283s-117.833 -146 -203.5 -192s-181.834 -69 -288.501 -69zM704.002 98c80 0 151.333 17.668 214 53.001s112 84.166 148 146.499s54 133.833 54 214.5s-18 152.167 -54 214.5s-85.333 111.166 -148 146.499s-134 53 -214 53
s-151.333 -17.667 -214 -53s-112 -84.166 -148 -146.499s-54 -133.833 -54 -214.5c0 -80 18 -151.333 54 -214s85.333 -111.667 148 -147s134 -53 214 -53zM846.002 1411l-69 75l224 225l109 -112zM491.002 1411l-69 75l226 225l107 -112z" />
    <glyph glyph-name="OE" unicode="&#x152;" horiz-adv-x="2032" 
d="M994 0c-117.333 0 -226.167 20.8311 -326.5 62.498s-188 99.834 -263 174.501s-133.333 162.334 -175 263.001s-62.5 210 -62.5 328c0 117.333 21.167 226 63.5 326s102.5 187.167 180.5 261.5s170.667 132 278 173s226.333 61.5 357 61.5h811v-134h-680v-622h656v-134
h-656v-626h680v-134h-863zM1025 136.998l-0.000976562 1376c-99.333 0 -191.166 -17 -275.499 -51s-157.833 -81.833 -220.5 -143.5s-111.5 -134.5 -146.5 -218.5s-52.5 -176 -52.5 -276c0 -98 17 -188.833 51 -272.5s82 -156.5 144 -218.5s135.333 -110.167 220 -144.5
s178 -51.5 280 -51.5z" />
    <glyph glyph-name="oe" unicode="&#x153;" horiz-adv-x="2312" 
d="M700 -32c-106.667 0 -202.502 23.166 -287.502 69.499s-152 110.333 -201 192s-73.5 175.834 -73.5 282.501s24.5 200.834 73.5 282.501s116 145.667 201 192s180.833 69.5 287.5 69.5c111.333 0 210.333 -27 297 -81s149.334 -128 188.001 -222
c28 60 65.5 112.833 112.5 158.5s101 81.167 162 106.5s125.833 38 194.5 38c98.667 0 188 -23.5 268 -70.5s143.667 -110.667 191 -191s71.333 -170.833 72 -271.5v-10c0 -2.66699 -0.333008 -7.66699 -1 -15h-923c0 -80 17.833 -150.833 53.5 -212.5
s84.834 -109.834 147.501 -144.501s135 -52 217 -52c77.333 0 146.833 16.167 208.5 48.5s113.167 78.833 154.5 139.5l108 -58c-50 -79.333 -116.667 -141 -200 -185s-176.666 -66 -279.999 -66c-110 0 -207.833 26.667 -293.5 80s-149.834 127 -192.501 221
c-38.667 -92.667 -101 -166 -187 -220s-185 -81 -297 -81zM704.998 94.999c80.667 0 152.667 18 216 54s113 85.333 149 148s54 134.334 54 215.001s-18 152.334 -54 215.001s-85.667 112 -149 148s-135.333 54 -216 54s-152.5 -18 -215.5 -54s-112.667 -85.333 -149 -148
s-54.5 -134.334 -54.5 -215.001s18.167 -152.334 54.5 -215.001s86 -112 149 -148s134.833 -54 215.5 -54zM1265 588.999h777.002c-7.33301 68.667 -28.833 130 -64.5 184s-81.334 96.667 -137.001 128s-117.5 47 -185.5 47c-68.667 0 -131.334 -15.667 -188.001 -47
s-103 -74 -139 -128s-57 -115.333 -63 -184z" />
    <glyph glyph-name="Racute" unicode="&#x154;" horiz-adv-x="1398" 
d="M269 0l-0.00195312 1650h428c108 0 201.333 -18.667 280 -56s139.5 -90.833 182.5 -160.5s64.5 -152.834 64.5 -249.501c0 -88.667 -18.167 -166.834 -54.5 -234.501s-87.666 -122.334 -153.999 -164.001s-145.166 -67.167 -236.499 -76.5l549 -709h-193l-526 695h-188
v-695h-152zM420.998 827.003h240c84 0 156.333 14.333 217 43s107.5 69.5 140.5 122.5s49.5 115.5 49.5 187.5c0 108 -36 192.667 -108 254s-171.667 92 -299 92h-240v-699zM687.998 1783l-75 55l190 379l115 -82z" />
    <glyph glyph-name="racute" unicode="&#x155;" horiz-adv-x="893" 
d="M215 0l-0.000976562 1024h146v-151c32.667 60 74.834 105.5 126.501 136.5s111.5 46.5 179.5 46.5c30 0 60.5 -3.33301 91.5 -10s57.833 -15.334 80.5 -26.001l-60 -123c-20 10 -42.833 17.667 -68.5 23s-50.167 8 -73.5 8c-47.333 0 -92 -12 -134 -36
s-76.167 -55.167 -102.5 -93.5s-39.5 -79.166 -39.5 -122.499v-676h-146zM457.999 1189l-75 55l190 379l115 -82z" />
    <glyph glyph-name="uni0156" unicode="&#x156;" horiz-adv-x="1398" 
d="M269 0l-0.00195312 1650h428c108 0 201.333 -18.667 280 -56s139.5 -90.833 182.5 -160.5s64.5 -152.834 64.5 -249.501c0 -88.667 -18.167 -166.834 -54.5 -234.501s-87.666 -122.334 -153.999 -164.001s-145.166 -67.167 -236.499 -76.5l549 -709h-193l-526 695h-188
v-695h-152zM420.998 827.003h240c84 0 156.333 14.333 217 43s107.5 69.5 140.5 122.5s49.5 115.5 49.5 187.5c0 108 -36 192.667 -108 254s-171.667 92 -299 92h-240v-699zM660.998 -468.997l-24.998 20.0029c15.333 20.667 28.166 45.667 38.499 75
s15.833 61.666 16.5 96.999c-18.667 2 -34.667 10 -48 24s-20 30.667 -20 50c0 22 7.16699 40.167 21.5 54.5s33.166 21.5 56.499 21.5c24 0 42.5 -8 55.5 -24s19.5 -40.667 19.5 -74c0 -42.667 -11.167 -87.834 -33.5 -135.501s-49.5 -83.834 -81.5 -108.501z" />
    <glyph glyph-name="uni0157" unicode="&#x157;" horiz-adv-x="893" 
d="M215 0l-0.000976562 1024h146v-151c32.667 60 74.834 105.5 126.501 136.5s111.5 46.5 179.5 46.5c30 0 60.5 -3.33301 91.5 -10s57.833 -15.334 80.5 -26.001l-60 -123c-20 10 -42.833 17.667 -68.5 23s-50.167 8 -73.5 8c-47.333 0 -92 -12 -134 -36
s-76.167 -55.167 -102.5 -93.5s-39.5 -79.166 -39.5 -122.499v-676h-146zM415.999 -469l-24.998 20.0029c15.333 20.667 28.166 45.667 38.499 75s15.833 61.666 16.5 96.999c-18.667 2 -34.667 10 -48 24s-20 30.667 -20 50c0 22 7.16699 40.167 21.5 54.5
s33.166 21.5 56.499 21.5c24 0 42.5 -8 55.5 -24s19.5 -40.667 19.5 -74c0 -42.667 -11.167 -87.834 -33.5 -135.501s-49.5 -83.834 -81.5 -108.501z" />
    <glyph glyph-name="Rcaron" unicode="&#x158;" horiz-adv-x="1398" 
d="M269 0l-0.00195312 1650h428c108 0 201.333 -18.667 280 -56s139.5 -90.833 182.5 -160.5s64.5 -152.834 64.5 -249.501c0 -88.667 -18.167 -166.834 -54.5 -234.501s-87.666 -122.334 -153.999 -164.001s-145.166 -67.167 -236.499 -76.5l549 -709h-193l-526 695h-188
v-695h-152zM420.998 827.003h240c84 0 156.333 14.333 217 43s107.5 69.5 140.5 122.5s49.5 115.5 49.5 187.5c0 108 -36 192.667 -108 254s-171.667 92 -299 92h-240v-699zM698.998 1846l-367 270l61 84l306 -224l306 224l62 -84z" />
    <glyph glyph-name="rcaron" unicode="&#x159;" horiz-adv-x="893" 
d="M215 0l-0.000976562 1024h146v-151c32.667 60 74.834 105.5 126.501 136.5s111.5 46.5 179.5 46.5c30 0 60.5 -3.33301 91.5 -10s57.833 -15.334 80.5 -26.001l-60 -123c-20 10 -42.833 17.667 -68.5 23s-50.167 8 -73.5 8c-47.333 0 -92 -12 -134 -36
s-76.167 -55.167 -102.5 -93.5s-39.5 -79.166 -39.5 -122.499v-676h-146zM468.999 1252l-367 270l61 84l306 -224l306 224l62 -84z" />
    <glyph glyph-name="Sacute" unicode="&#x15a;" horiz-adv-x="1367" 
d="M681 -32c-85.333 0 -160.339 12.832 -225.006 38.499s-119.5 56.667 -164.5 93s-81 71.833 -108 106.5s-45.833 60.667 -56.5 78l87 112c12 -18.667 30.167 -43.834 54.5 -75.501s55.5 -63.667 93.5 -96s83.667 -59.666 137 -81.999s115 -33.5 185 -33.5
c66.667 0 127.5 12 182.5 36s99.167 59.667 132.5 107s50 106 50 176c0 58.667 -11.5 108.5 -34.5 149.5s-54.833 75.833 -95.5 104.5s-87.167 54.167 -139.5 76.5s-107.166 44.166 -164.499 65.499c-40 15.333 -81.833 33.5 -125.5 54.5s-84.5 47.333 -122.5 79
s-68.833 70.167 -92.5 115.5s-35.5 100 -35.5 164c0 60 11.333 116.667 34 170s54.334 100.5 95.001 141.5s89.334 73.167 146.001 96.5s119.334 35 188.001 35c66 0 126.667 -10.833 182 -32.5s103.833 -49 145.5 -82s73.834 -67.167 96.501 -102.5l-78 -105
c-18.667 30.667 -44.667 60 -78 88s-72.5 50.833 -117.5 68.5s-94.833 26.5 -149.5 26.5c-68 0 -125.833 -14.667 -173.5 -44s-83.834 -67.166 -108.501 -113.499s-37 -95.166 -37 -146.499c0 -46.667 9.66699 -86.334 29 -119.001s45 -60.167 77 -82.5
s67.167 -41.5 105.5 -57.5s76.833 -31 115.5 -45c64.667 -24 126.834 -49.5 186.501 -76.5s112.834 -59 159.501 -96s83.667 -82 111 -135s41 -117.167 41 -192.5c0 -98.667 -23.333 -182.667 -70 -252s-109.667 -122.166 -189 -158.499s-169 -54.5 -269 -54.5z
M690.994 1798l-75 55l190 379l115 -82z" />
    <glyph glyph-name="sacute" unicode="&#x15b;" horiz-adv-x="991" 
d="M481 -32c-84.667 0 -159.332 20.5 -223.999 61.5s-115 99.167 -151 174.5l78 84c32 -65.333 73.667 -116.166 125 -152.499s108.333 -54.5 171 -54.5c42 0 80.5 8.66699 115.5 26s63 42.166 84 74.499s31.5 70.833 31.5 115.5c0 40.667 -9.83301 72.667 -29.5 96
s-48.334 43.5 -86.001 60.5s-84.5 36.167 -140.5 57.5c-43.333 17.333 -85.333 37 -126 59s-74.167 49.833 -100.5 83.5s-39.5 76.5 -39.5 128.5c0 52.667 14 99.5 42 140.5s66.667 73.333 116 97s105.333 35.5 168 35.5c57.333 0 111.166 -12.333 161.499 -37
s95.5 -59.667 135.5 -105l-67 -85c-61.333 80.667 -137.666 121 -228.999 121c-56 0 -101.5 -14.667 -136.5 -44s-52.5 -67.666 -52.5 -114.999c0 -34 11 -62.333 33 -85s50.833 -42 86.5 -58s74.167 -32 115.5 -48c60 -22.667 112.167 -45.334 156.5 -68.001
s78.833 -51.5 103.5 -86.5s37 -82.5 37 -142.5c0 -68.667 -16 -128 -48 -178s-76.5 -88.5 -133.5 -115.5s-122.5 -40.5 -196.5 -40.5zM489.002 1181l-75 55l190 379l115 -82z" />
    <glyph glyph-name="Scedilla" unicode="&#x15e;" horiz-adv-x="1367" 
d="M681 -32c-85.333 0 -160.339 12.832 -225.006 38.499s-119.5 56.667 -164.5 93s-81 71.833 -108 106.5s-45.833 60.667 -56.5 78l87 112c12 -18.667 30.167 -43.834 54.5 -75.501s55.5 -63.667 93.5 -96s83.667 -59.666 137 -81.999s115 -33.5 185 -33.5
c66.667 0 127.5 12 182.5 36s99.167 59.667 132.5 107s50 106 50 176c0 58.667 -11.5 108.5 -34.5 149.5s-54.833 75.833 -95.5 104.5s-87.167 54.167 -139.5 76.5s-107.166 44.166 -164.499 65.499c-40 15.333 -81.833 33.5 -125.5 54.5s-84.5 47.333 -122.5 79
s-68.833 70.167 -92.5 115.5s-35.5 100 -35.5 164c0 60 11.333 116.667 34 170s54.334 100.5 95.001 141.5s89.334 73.167 146.001 96.5s119.334 35 188.001 35c66 0 126.667 -10.833 182 -32.5s103.833 -49 145.5 -82s73.834 -67.167 96.501 -102.5l-78 -105
c-18.667 30.667 -44.667 60 -78 88s-72.5 50.833 -117.5 68.5s-94.833 26.5 -149.5 26.5c-68 0 -125.833 -14.667 -173.5 -44s-83.834 -67.166 -108.501 -113.499s-37 -95.166 -37 -146.499c0 -46.667 9.66699 -86.334 29 -119.001s45 -60.167 77 -82.5
s67.167 -41.5 105.5 -57.5s76.833 -31 115.5 -45c64.667 -24 126.834 -49.5 186.501 -76.5s112.834 -59 159.501 -96s83.667 -82 111 -135s41 -117.167 41 -192.5c0 -98.667 -23.333 -182.667 -70 -252s-109.667 -122.166 -189 -158.499s-169 -54.5 -269 -54.5z
M673.994 -560.001c-54.667 0 -104.166 12.498 -148.499 37.498s-80.833 60.167 -109.5 105.5l69 46c41.333 -69.333 104 -104 188 -104c46 0 83.167 11.667 111.5 35s42.5 53.666 42.5 90.999c0 35.333 -12.833 63.833 -38.5 85.5s-59.167 32.5 -100.5 32.5
c-22 0 -45.833 -3.16699 -71.5 -9.5s-46.834 -14.5 -63.501 -24.5l-8 6l84 259h80l-56 -171c21.333 2.66699 39.5 3.83398 54.5 3.50098s29.167 -2.16602 42.5 -5.49902c50 -4.66699 90.5 -23.167 121.5 -55.5s46.5 -72.833 46.5 -121.5
c0 -61.333 -22.833 -111.666 -68.5 -150.999s-104.167 -59 -175.5 -59z" />
    <glyph glyph-name="scedilla" unicode="&#x15f;" horiz-adv-x="991" 
d="M481 -32c-84.667 0 -159.332 20.5 -223.999 61.5s-115 99.167 -151 174.5l78 84c32 -65.333 73.667 -116.166 125 -152.499s108.333 -54.5 171 -54.5c42 0 80.5 8.66699 115.5 26s63 42.166 84 74.499s31.5 70.833 31.5 115.5c0 40.667 -9.83301 72.667 -29.5 96
s-48.334 43.5 -86.001 60.5s-84.5 36.167 -140.5 57.5c-43.333 17.333 -85.333 37 -126 59s-74.167 49.833 -100.5 83.5s-39.5 76.5 -39.5 128.5c0 52.667 14 99.5 42 140.5s66.667 73.333 116 97s105.333 35.5 168 35.5c57.333 0 111.166 -12.333 161.499 -37
s95.5 -59.667 135.5 -105l-67 -85c-61.333 80.667 -137.666 121 -228.999 121c-56 0 -101.5 -14.667 -136.5 -44s-52.5 -67.666 -52.5 -114.999c0 -34 11 -62.333 33 -85s50.833 -42 86.5 -58s74.167 -32 115.5 -48c60 -22.667 112.167 -45.334 156.5 -68.001
s78.833 -51.5 103.5 -86.5s37 -82.5 37 -142.5c0 -68.667 -16 -128 -48 -178s-76.5 -88.5 -133.5 -115.5s-122.5 -40.5 -196.5 -40.5zM499.002 -560c-54.667 0 -104.166 12.498 -148.499 37.498s-80.833 60.167 -109.5 105.5l69 46c41.333 -69.333 104 -104 188 -104
c46 0 83.167 11.667 111.5 35s42.5 53.666 42.5 90.999c0 35.333 -12.833 63.833 -38.5 85.5s-59.167 32.5 -100.5 32.5c-22 0 -45.833 -3.16699 -71.5 -9.5s-46.834 -14.5 -63.501 -24.5l-8 6l84 259h80l-56 -171c21.333 2.66699 39.5 3.83398 54.5 3.50098
s29.167 -2.16602 42.5 -5.49902c50 -4.66699 90.5 -23.167 121.5 -55.5s46.5 -72.833 46.5 -121.5c0 -61.333 -22.833 -111.666 -68.5 -150.999s-104.167 -59 -175.5 -59z" />
    <glyph glyph-name="Scaron" unicode="&#x160;" horiz-adv-x="1367" 
d="M681 -32c-85.333 0 -160.339 12.832 -225.006 38.499s-119.5 56.667 -164.5 93s-81 71.833 -108 106.5s-45.833 60.667 -56.5 78l87 112c12 -18.667 30.167 -43.834 54.5 -75.501s55.5 -63.667 93.5 -96s83.667 -59.666 137 -81.999s115 -33.5 185 -33.5
c66.667 0 127.5 12 182.5 36s99.167 59.667 132.5 107s50 106 50 176c0 58.667 -11.5 108.5 -34.5 149.5s-54.833 75.833 -95.5 104.5s-87.167 54.167 -139.5 76.5s-107.166 44.166 -164.499 65.499c-40 15.333 -81.833 33.5 -125.5 54.5s-84.5 47.333 -122.5 79
s-68.833 70.167 -92.5 115.5s-35.5 100 -35.5 164c0 60 11.333 116.667 34 170s54.334 100.5 95.001 141.5s89.334 73.167 146.001 96.5s119.334 35 188.001 35c66 0 126.667 -10.833 182 -32.5s103.833 -49 145.5 -82s73.834 -67.167 96.501 -102.5l-78 -105
c-18.667 30.667 -44.667 60 -78 88s-72.5 50.833 -117.5 68.5s-94.833 26.5 -149.5 26.5c-68 0 -125.833 -14.667 -173.5 -44s-83.834 -67.166 -108.501 -113.499s-37 -95.166 -37 -146.499c0 -46.667 9.66699 -86.334 29 -119.001s45 -60.167 77 -82.5
s67.167 -41.5 105.5 -57.5s76.833 -31 115.5 -45c64.667 -24 126.834 -49.5 186.501 -76.5s112.834 -59 159.501 -96s83.667 -82 111 -135s41 -117.167 41 -192.5c0 -98.667 -23.333 -182.667 -70 -252s-109.667 -122.166 -189 -158.499s-169 -54.5 -269 -54.5z
M700.994 1861l-367 270l61 84l306 -224l306 224l62 -84z" />
    <glyph glyph-name="scaron" unicode="&#x161;" horiz-adv-x="991" 
d="M481 -32c-84.667 0 -159.332 20.5 -223.999 61.5s-115 99.167 -151 174.5l78 84c32 -65.333 73.667 -116.166 125 -152.499s108.333 -54.5 171 -54.5c42 0 80.5 8.66699 115.5 26s63 42.166 84 74.499s31.5 70.833 31.5 115.5c0 40.667 -9.83301 72.667 -29.5 96
s-48.334 43.5 -86.001 60.5s-84.5 36.167 -140.5 57.5c-43.333 17.333 -85.333 37 -126 59s-74.167 49.833 -100.5 83.5s-39.5 76.5 -39.5 128.5c0 52.667 14 99.5 42 140.5s66.667 73.333 116 97s105.333 35.5 168 35.5c57.333 0 111.166 -12.333 161.499 -37
s95.5 -59.667 135.5 -105l-67 -85c-61.333 80.667 -137.666 121 -228.999 121c-56 0 -101.5 -14.667 -136.5 -44s-52.5 -67.666 -52.5 -114.999c0 -34 11 -62.333 33 -85s50.833 -42 86.5 -58s74.167 -32 115.5 -48c60 -22.667 112.167 -45.334 156.5 -68.001
s78.833 -51.5 103.5 -86.5s37 -82.5 37 -142.5c0 -68.667 -16 -128 -48 -178s-76.5 -88.5 -133.5 -115.5s-122.5 -40.5 -196.5 -40.5zM500.002 1244l-367 270l61 84l306 -224l306 224l62 -84z" />
    <glyph glyph-name="uni0162" unicode="&#x162;" horiz-adv-x="1382" 
d="M615 0v1512h-503v138h1160v-138h-505v-1512h-152zM682 -560c-54.667 0 -104.166 12.498 -148.499 37.498s-80.833 60.167 -109.5 105.5l69 46c41.333 -69.333 104 -104 188 -104c46 0 83.167 11.667 111.5 35s42.5 53.666 42.5 90.999
c0 35.333 -12.833 63.833 -38.5 85.5s-59.167 32.5 -100.5 32.5c-22 0 -45.833 -3.16699 -71.5 -9.5s-46.834 -14.5 -63.501 -24.5l-8 6l84 259h80l-56 -171c21.333 2.66699 39.5 3.83398 54.5 3.50098s29.167 -2.16602 42.5 -5.49902c50 -4.66699 90.5 -23.167 121.5 -55.5
s46.5 -72.833 46.5 -121.5c0 -61.333 -22.833 -111.666 -68.5 -150.999s-104.167 -59 -175.5 -59z" />
    <glyph glyph-name="uni0163" unicode="&#x163;" horiz-adv-x="746" 
d="M470 -32c-76.667 0 -136.165 25.833 -178.498 77.5s-63.5 124.5 -63.5 218.5v650h-104v110h104v383h146v-383h255v-110h-255v-642c0 -56.667 11 -100 33 -130s53.333 -45 94 -45c39.333 0 74 11 104 33l37 -116c-22.667 -14 -49.334 -25.167 -80.001 -33.5
s-61.334 -12.5 -92.001 -12.5zM434.002 -560c-54.667 0 -104.166 12.498 -148.499 37.498s-80.833 60.167 -109.5 105.5l69 46c41.333 -69.333 104 -104 188 -104c46 0 83.167 11.667 111.5 35s42.5 53.666 42.5 90.999c0 35.333 -12.833 63.833 -38.5 85.5
s-59.167 32.5 -100.5 32.5c-22 0 -45.833 -3.16699 -71.5 -9.5s-46.834 -14.5 -63.501 -24.5l-8 6l84 259h80l-56 -171c21.333 2.66699 39.5 3.83398 54.5 3.50098s29.167 -2.16602 42.5 -5.49902c50 -4.66699 90.5 -23.167 121.5 -55.5s46.5 -72.833 46.5 -121.5
c0 -61.333 -22.833 -111.666 -68.5 -150.999s-104.167 -59 -175.5 -59z" />
    <glyph glyph-name="Tcaron" unicode="&#x164;" horiz-adv-x="1382" 
d="M615 0v1512h-503v138h1160v-138h-505v-1512h-152zM691 1846l-367 270l61 84l306 -224l306 224l62 -84z" />
    <glyph glyph-name="tcaron" unicode="&#x165;" horiz-adv-x="746" 
d="M470 -32c-76.667 0 -136.165 25.833 -178.498 77.5s-63.5 124.5 -63.5 218.5v650h-104v110h104v383h146v-383h255v-110h-255v-642c0 -56.667 11 -100 33 -130s53.333 -45 94 -45c39.333 0 74 11 104 33l37 -116c-22.667 -14 -49.334 -25.167 -80.001 -33.5
s-61.334 -12.5 -92.001 -12.5zM389.002 1460l-367 270l61 84l306 -224l306 224l62 -84z" />
    <glyph glyph-name="Tbar" unicode="&#x166;" horiz-adv-x="1382" 
d="M615 0v1512h-503v138h1160v-138h-505v-1512h-152zM321 946v111h741v-111h-741z" />
    <glyph glyph-name="tbar" unicode="&#x167;" horiz-adv-x="746" 
d="M470 -32c-76.667 0 -136.165 25.833 -178.498 77.5s-63.5 124.5 -63.5 218.5v474h-104v86h104v140h-104v85h104v358h146v-358h255v-85h-255v-140h255v-86h-255v-466c0 -56.667 11 -100 33 -130s53.333 -45 94 -45c39.333 0 74 11 104 33l37 -116
c-22.667 -14 -49.334 -25.167 -80.001 -33.5s-61.334 -12.5 -92.001 -12.5z" />
    <glyph glyph-name="Umacron" unicode="&#x16a;" horiz-adv-x="1633" 
d="M817 -32c-190 0 -332.834 52 -428.501 156s-143.5 259.667 -143.5 467v1059h152v-1026c0 -170 34.833 -296.833 104.5 -380.5s174.834 -125.5 315.501 -125.5c140 0 244.833 41.833 314.5 125.5s104.5 210.5 104.5 380.5v1026h153v-1059
c0 -207.333 -47.833 -363 -143.5 -467s-238.5 -156 -428.5 -156zM408.999 1962v104h816v-104h-816z" />
    <glyph glyph-name="umacron" unicode="&#x16b;" horiz-adv-x="1259" 
d="M629 -32c-155.333 0 -266.333 35 -333 105s-100 187 -100 351v600h146v-574c0 -129.333 22 -221.5 66 -276.5s117.667 -82.5 221 -82.5c104 0 177.833 27.5 221.5 82.5s65.5 147.167 65.5 276.5v574h146v-600c0 -164 -33.167 -281 -99.5 -351s-177.5 -105 -333.5 -105z
M222 1337v104h816v-104h-816z" />
    <glyph glyph-name="Uring" unicode="&#x16e;" horiz-adv-x="1633" 
d="M817 -32c-190 0 -332.834 52 -428.501 156s-143.5 259.667 -143.5 467v1059h152v-1026c0 -170 34.833 -296.833 104.5 -380.5s174.834 -125.5 315.501 -125.5c140 0 244.833 41.833 314.5 125.5s104.5 210.5 104.5 380.5v1026h153v-1059
c0 -207.333 -47.833 -363 -143.5 -467s-238.5 -156 -428.5 -156zM817.999 1884c-43.333 0 -82.666 8.66699 -117.999 26s-63.333 41.666 -84 72.999s-31 67 -31 107v0c0 39.333 10.333 74.5 31 105.5s48.667 55.333 84 73s74.666 26.5 117.999 26.5
s82.5 -8.83301 117.5 -26.5s62.833 -42 83.5 -73s31 -66.167 31 -105.5c0 -40 -10.333 -75.667 -31 -107s-48.667 -55.666 -84 -72.999s-74.333 -26 -117 -26zM817.999 1968c38.667 0 71 11.667 97 35s39 52 39 86c0 35.333 -13 64.333 -39 87s-58.333 34 -97 34
s-71.167 -11.333 -97.5 -34s-39.5 -51.667 -39.5 -87v0c0 -34 13.167 -62.667 39.5 -86s58.833 -35 97.5 -35z" />
    <glyph glyph-name="uring" unicode="&#x16f;" horiz-adv-x="1259" 
d="M629 -32c-155.333 0 -266.333 35 -333 105s-100 187 -100 351v600h146v-574c0 -129.333 22 -221.5 66 -276.5s117.667 -82.5 221 -82.5c104 0 177.833 27.5 221.5 82.5s65.5 147.167 65.5 276.5v574h146v-600c0 -164 -33.167 -281 -99.5 -351s-177.5 -105 -333.5 -105z
M630 1259c-43.333 0 -82.666 8.66699 -117.999 26s-63.333 41.666 -84 72.999s-31 67 -31 107v0c0 39.333 10.333 74.5 31 105.5s48.667 55.333 84 73s74.666 26.5 117.999 26.5s82.5 -8.83301 117.5 -26.5s62.833 -42 83.5 -73s31 -66.167 31 -105.5
c0 -40 -10.333 -75.667 -31 -107s-48.667 -55.666 -84 -72.999s-74.333 -26 -117 -26zM630 1343c38.667 0 71 11.667 97 35s39 52 39 86c0 35.333 -13 64.333 -39 87s-58.333 34 -97 34s-71.167 -11.333 -97.5 -34s-39.5 -51.667 -39.5 -87v0c0 -34 13.167 -62.667 39.5 -86
s58.833 -35 97.5 -35z" />
    <glyph glyph-name="Uhungarumlaut" unicode="&#x170;" horiz-adv-x="1633" 
d="M817 -32c-190 0 -332.834 52 -428.501 156s-143.5 259.667 -143.5 467v1059h152v-1026c0 -170 34.833 -296.833 104.5 -380.5s174.834 -125.5 315.501 -125.5c140 0 244.833 41.833 314.5 125.5s104.5 210.5 104.5 380.5v1026h153v-1059
c0 -207.333 -47.833 -363 -143.5 -467s-238.5 -156 -428.5 -156zM958.999 2005l-69 75l224 225l109 -112zM603.999 2005l-69 75l226 225l107 -112z" />
    <glyph glyph-name="uhungarumlaut" unicode="&#x171;" horiz-adv-x="1259" 
d="M629 -32c-155.333 0 -266.333 35 -333 105s-100 187 -100 351v600h146v-574c0 -129.333 22 -221.5 66 -276.5s117.667 -82.5 221 -82.5c104 0 177.833 27.5 221.5 82.5s65.5 147.167 65.5 276.5v574h146v-600c0 -164 -33.167 -281 -99.5 -351s-177.5 -105 -333.5 -105z
M771 1380l-69 75l224 225l109 -112zM416 1380l-69 75l226 225l107 -112z" />
    <glyph glyph-name="Uogonek" unicode="&#x172;" horiz-adv-x="1633" 
d="M817 -32c-190 0 -332.834 52 -428.501 156s-143.5 259.667 -143.5 467v1059h152v-1026c0 -170 34.833 -296.833 104.5 -380.5s174.834 -125.5 315.501 -125.5c140 0 244.833 41.833 314.5 125.5s104.5 210.5 104.5 380.5v1026h153v-1059
c0 -207.333 -47.833 -363 -143.5 -467s-238.5 -156 -428.5 -156zM862.999 -556c-73.333 0 -133.499 22.001 -180.499 66.001s-70.5 96.667 -70.5 158c0 46.667 15.667 98.5 47 155.5s76 116.833 134 179.5h85c-52.667 -58 -93.834 -115.333 -123.501 -172
s-44.5 -105.334 -44.5 -146.001c0 -39.333 14 -73.666 42 -102.999s69.333 -44 124 -44c36.667 0 71 8 103 24s62.667 41 92 75l67 -49c-30.667 -44.667 -70.667 -79.834 -120 -105.501s-101 -38.5 -155 -38.5z" />
    <glyph glyph-name="uogonek" unicode="&#x173;" horiz-adv-x="1259" 
d="M629 -32c-155.333 0 -266.333 35 -333 105s-100 187 -100 351v600h146v-574c0 -129.333 22 -221.5 66 -276.5s117.667 -82.5 221 -82.5c104 0 177.833 27.5 221.5 82.5s65.5 147.167 65.5 276.5v574h146v-600c0 -164 -33.167 -281 -99.5 -351s-177.5 -105 -333.5 -105z
M671 -548c-73.333 0 -133.499 22.001 -180.499 66.001s-70.5 96.667 -70.5 158c0 46.667 15.667 98.5 47 155.5s76 116.833 134 179.5h85c-52.667 -58 -93.834 -115.333 -123.501 -172s-44.5 -105.334 -44.5 -146.001c0 -39.333 14 -73.666 42 -102.999s69.333 -44 124 -44
c36.667 0 71 8 103 24s62.667 41 92 75l67 -49c-30.667 -44.667 -70.667 -79.834 -120 -105.501s-101 -38.5 -155 -38.5z" />
    <glyph glyph-name="Wcircumflex" unicode="&#x174;" horiz-adv-x="2489" 
d="M610 0l-490 1650h169l413 -1452l483 1452h118l485 -1452l411 1452h169l-490 -1650h-171l-462 1351l-463 -1351h-172zM938 1952l-61 84l367 269l368 -269l-62 -84l-306 224z" />
    <glyph glyph-name="wcircumflex" unicode="&#x175;" horiz-adv-x="1956" 
d="M561 0l-497 1024h167l375 -814l323 814h98l323 -814l375 814h167l-497 -1024h-97l-320 797l-321 -797h-96zM671 1327l-61 84l367 269l368 -269l-62 -84l-306 224z" />
    <glyph glyph-name="Ycircumflex" unicode="&#x176;" horiz-adv-x="1480" 
d="M664 0v715l-567 935h183l460 -773l460 773h184l-568 -935v-715h-152zM433 1952l-61 84l367 269l368 -269l-62 -84l-306 224z" />
    <glyph glyph-name="ycircumflex" unicode="&#x177;" horiz-adv-x="1232" 
d="M298 -520l252 545l-487 999h165l405 -849l368 849h165l-703 -1544h-165zM310 1327l-61 84l367 269l368 -269l-62 -84l-306 224z" />
    <glyph glyph-name="Ydieresis" unicode="&#x178;" horiz-adv-x="1480" 
d="M664 0v715l-567 935h183l460 -773l460 773h184l-568 -935v-715h-152zM976 1934c-24.667 0 -45.667 8.66602 -63 25.999s-26 38.333 -26 63s8.66699 45.667 26 63.001c17.333 17.333 38.333 26 63 26s45.667 -8.66699 63 -26s26 -38.333 26 -63s-8.66699 -45.667 -26 -63
s-38.333 -26 -63 -26zM504 1934c-24.667 0 -45.667 8.66699 -63 26s-26 38.333 -26 63s8.66699 45.667 26 63s38.333 26 63 26s45.667 -8.66699 63 -26s26 -38.333 26 -63s-8.66699 -45.667 -26 -63s-38.333 -26 -63 -26z" />
    <glyph glyph-name="Zacute" unicode="&#x179;" horiz-adv-x="1586" 
d="M111 0l1078 1512h-964v138h1240l-1078 -1512h1023v-138h-1299zM782 1783l-75 55l190 379l115 -82z" />
    <glyph glyph-name="zacute" unicode="&#x17a;" horiz-adv-x="1198" 
d="M80 0l758 904h-680v120h946l-759 -904h736v-120h-1001zM588 1158l-75 55l190 379l115 -82z" />
    <glyph glyph-name="Zdotaccent" unicode="&#x17b;" horiz-adv-x="1586" 
d="M111 0l1078 1512h-964v138h1240l-1078 -1512h1023v-138h-1299zM794 2004c-17.333 0 -33.333 4.33301 -48 13s-26.334 20.334 -35.001 35.001s-13 30.667 -13 48c0 18 4.33301 34 13 48s20.334 25.5 35.001 34.5s30.667 13.5 48 13.5c18 0 34 -4.5 48 -13.5
s25.5 -20.5 34.5 -34.5s13.5 -30 13.5 -48c0 -17.333 -4.5 -33.333 -13.5 -48s-20.5 -26.334 -34.5 -35.001s-30 -13 -48 -13z" />
    <glyph glyph-name="zdotaccent" unicode="&#x17c;" horiz-adv-x="1198" 
d="M80 0l758 904h-680v120h946l-759 -904h736v-120h-1001zM599 1379c-17.333 0 -33.333 4.33301 -48 13s-26.334 20.334 -35.001 35.001s-13 30.667 -13 48c0 18 4.33301 34 13 48s20.334 25.5 35.001 34.5s30.667 13.5 48 13.5c18 0 34 -4.5 48 -13.5
s25.5 -20.5 34.5 -34.5s13.5 -30 13.5 -48c0 -17.333 -4.5 -33.333 -13.5 -48s-20.5 -26.334 -34.5 -35.001s-30 -13 -48 -13z" />
    <glyph glyph-name="Zcaron" unicode="&#x17d;" horiz-adv-x="1586" 
d="M111 0l1078 1512h-964v138h1240l-1078 -1512h1023v-138h-1299zM793 1846l-367 270l61 84l306 -224l306 224l62 -84z" />
    <glyph glyph-name="zcaron" unicode="&#x17e;" horiz-adv-x="1198" 
d="M80 0l758 904h-680v120h946l-759 -904h736v-120h-1001zM598 1221l-367 270l61 84l306 -224l306 224l62 -84z" />
    <glyph glyph-name="florin" unicode="&#x192;" horiz-adv-x="937" 
d="M86 -551c-37.333 0 -72.001 5.16992 -104.001 15.5029s-59.333 25.166 -82 44.499l60 104c27.333 -24 65 -36 113 -36c54 0 96.667 19 128 57s50.333 94.667 57 170l114 1110h-104l11 110h103l37 367c8 77.333 25.5 142.666 52.5 195.999s63 93.833 108 121.5
s98.167 41.5 159.5 41.5c37.333 0 72 -5.16699 104 -15.5s59.333 -25.166 82 -44.499l-61 -104c-28 24 -65.333 36 -112 36c-53.333 0 -95.833 -19 -127.5 -57s-51.167 -94.667 -58.5 -170l-38 -371h261l-10 -110h-261l-113 -1106
c-7.33301 -76.667 -24.666 -141.834 -51.999 -195.501s-63.5 -94.334 -108.5 -122.001s-97.833 -41.5 -158.5 -41.5z" />
    <glyph glyph-name="uni0218" unicode="&#x218;" horiz-adv-x="1367" 
d="M681 -32c-85.333 0 -160.339 12.832 -225.006 38.499s-119.5 56.667 -164.5 93s-81 71.833 -108 106.5s-45.833 60.667 -56.5 78l87 112c12 -18.667 30.167 -43.834 54.5 -75.501s55.5 -63.667 93.5 -96s83.667 -59.666 137 -81.999s115 -33.5 185 -33.5
c66.667 0 127.5 12 182.5 36s99.167 59.667 132.5 107s50 106 50 176c0 58.667 -11.5 108.5 -34.5 149.5s-54.833 75.833 -95.5 104.5s-87.167 54.167 -139.5 76.5s-107.166 44.166 -164.499 65.499c-40 15.333 -81.833 33.5 -125.5 54.5s-84.5 47.333 -122.5 79
s-68.833 70.167 -92.5 115.5s-35.5 100 -35.5 164c0 60 11.333 116.667 34 170s54.334 100.5 95.001 141.5s89.334 73.167 146.001 96.5s119.334 35 188.001 35c66 0 126.667 -10.833 182 -32.5s103.833 -49 145.5 -82s73.834 -67.167 96.501 -102.5l-78 -105
c-18.667 30.667 -44.667 60 -78 88s-72.5 50.833 -117.5 68.5s-94.833 26.5 -149.5 26.5c-68 0 -125.833 -14.667 -173.5 -44s-83.834 -67.166 -108.501 -113.499s-37 -95.166 -37 -146.499c0 -46.667 9.66699 -86.334 29 -119.001s45 -60.167 77 -82.5
s67.167 -41.5 105.5 -57.5s76.833 -31 115.5 -45c64.667 -24 126.834 -49.5 186.501 -76.5s112.834 -59 159.501 -96s83.667 -82 111 -135s41 -117.167 41 -192.5c0 -98.667 -23.333 -182.667 -70 -252s-109.667 -122.166 -189 -158.499s-169 -54.5 -269 -54.5z
M668.994 -469.001l-24.998 20.0029c15.333 20.667 28.166 45.667 38.499 75s15.833 61.666 16.5 96.999c-18.667 2 -34.667 10 -48 24s-20 30.667 -20 50c0 22 7.16699 40.167 21.5 54.5s33.166 21.5 56.499 21.5c24 0 42.5 -8 55.5 -24s19.5 -40.667 19.5 -74
c0 -42.667 -11.167 -87.834 -33.5 -135.501s-49.5 -83.834 -81.5 -108.501z" />
    <glyph glyph-name="uni0219" unicode="&#x219;" horiz-adv-x="991" 
d="M481 -32c-84.667 0 -159.332 20.5 -223.999 61.5s-115 99.167 -151 174.5l78 84c32 -65.333 73.667 -116.166 125 -152.499s108.333 -54.5 171 -54.5c42 0 80.5 8.66699 115.5 26s63 42.166 84 74.499s31.5 70.833 31.5 115.5c0 40.667 -9.83301 72.667 -29.5 96
s-48.334 43.5 -86.001 60.5s-84.5 36.167 -140.5 57.5c-43.333 17.333 -85.333 37 -126 59s-74.167 49.833 -100.5 83.5s-39.5 76.5 -39.5 128.5c0 52.667 14 99.5 42 140.5s66.667 73.333 116 97s105.333 35.5 168 35.5c57.333 0 111.166 -12.333 161.499 -37
s95.5 -59.667 135.5 -105l-67 -85c-61.333 80.667 -137.666 121 -228.999 121c-56 0 -101.5 -14.667 -136.5 -44s-52.5 -67.666 -52.5 -114.999c0 -34 11 -62.333 33 -85s50.833 -42 86.5 -58s74.167 -32 115.5 -48c60 -22.667 112.167 -45.334 156.5 -68.001
s78.833 -51.5 103.5 -86.5s37 -82.5 37 -142.5c0 -68.667 -16 -128 -48 -178s-76.5 -88.5 -133.5 -115.5s-122.5 -40.5 -196.5 -40.5zM495.002 -469l-24.998 20.0029c15.333 20.667 28.166 45.667 38.499 75s15.833 61.666 16.5 96.999c-18.667 2 -34.667 10 -48 24
s-20 30.667 -20 50c0 22 7.16699 40.167 21.5 54.5s33.166 21.5 56.499 21.5c24 0 42.5 -8 55.5 -24s19.5 -40.667 19.5 -74c0 -42.667 -11.167 -87.834 -33.5 -135.501s-49.5 -83.834 -81.5 -108.501z" />
    <glyph glyph-name="uni021A" unicode="&#x21a;" horiz-adv-x="1382" 
d="M615 0v1512h-503v138h1160v-138h-505v-1512h-152zM678 -469l-24.998 20.0029c15.333 20.667 28.166 45.667 38.499 75s15.833 61.666 16.5 96.999c-18.667 2 -34.667 10 -48 24s-20 30.667 -20 50c0 22 7.16699 40.167 21.5 54.5s33.166 21.5 56.499 21.5
c24 0 42.5 -8 55.5 -24s19.5 -40.667 19.5 -74c0 -42.667 -11.167 -87.834 -33.5 -135.501s-49.5 -83.834 -81.5 -108.501z" />
    <glyph glyph-name="uni021B" unicode="&#x21b;" horiz-adv-x="746" 
d="M470 -32c-76.667 0 -136.165 25.833 -178.498 77.5s-63.5 124.5 -63.5 218.5v650h-104v110h104v383h146v-383h255v-110h-255v-642c0 -56.667 11 -100 33 -130s53.333 -45 94 -45c39.333 0 74 11 104 33l37 -116c-22.667 -14 -49.334 -25.167 -80.001 -33.5
s-61.334 -12.5 -92.001 -12.5zM430.002 -469l-24.998 20.0029c15.333 20.667 28.166 45.667 38.499 75s15.833 61.666 16.5 96.999c-18.667 2 -34.667 10 -48 24s-20 30.667 -20 50c0 22 7.16699 40.167 21.5 54.5s33.166 21.5 56.499 21.5c24 0 42.5 -8 55.5 -24
s19.5 -40.667 19.5 -74c0 -42.667 -11.167 -87.834 -33.5 -135.501s-49.5 -83.834 -81.5 -108.501z" />
    <glyph glyph-name="circumflex" unicode="&#x2c6;" horiz-adv-x="735" 
d="M61 1327l-61 84l367 269l368 -269l-62 -84l-306 224z" />
    <glyph glyph-name="caron" unicode="&#x2c7;" horiz-adv-x="735" 
d="M367 1221l-367 270l61 84l306 -224l306 224l62 -84z" />
    <glyph glyph-name="breve" unicode="&#x2d8;" horiz-adv-x="823" 
d="M412 1331c-71.333 0 -135.835 13.5 -193.502 40.5s-105.5 64.667 -143.5 113s-63 104.5 -75 168.5l111 27c8.66699 -47.333 26.334 -89.5 53.001 -126.5s61 -66.167 103 -87.5s90.333 -32 145 -32c54 0 102 10.667 144 32s76.333 50.5 103 87.5
s44.334 79.167 53.001 126.5l111 -27c-11.333 -64 -36.166 -120.167 -74.499 -168.5s-86.333 -86 -144 -113s-121.834 -40.5 -192.501 -40.5z" />
    <glyph glyph-name="dotaccent" unicode="&#x2d9;" horiz-adv-x="192" 
d="M96 1379c-17.333 0 -33.333 4.33301 -48 13s-26.334 20.334 -35.001 35.001s-13 30.667 -13 48c0 18 4.33301 34 13 48s20.334 25.5 35.001 34.5s30.667 13.5 48 13.5c18 0 34 -4.5 48 -13.5s25.5 -20.5 34.5 -34.5s13.5 -30 13.5 -48c0 -17.333 -4.5 -33.333 -13.5 -48
s-20.5 -26.334 -34.5 -35.001s-30 -13 -48 -13z" />
    <glyph glyph-name="ring" unicode="&#x2da;" horiz-adv-x="465" 
d="M233 1259c-43.333 0 -82.666 8.66699 -117.999 26s-63.333 41.666 -84 72.999s-31 67 -31 107v0c0 39.333 10.333 74.5 31 105.5s48.667 55.333 84 73s74.666 26.5 117.999 26.5s82.5 -8.83301 117.5 -26.5s62.833 -42 83.5 -73s31 -66.167 31 -105.5
c0 -40 -10.333 -75.667 -31 -107s-48.667 -55.666 -84 -72.999s-74.333 -26 -117 -26zM233 1343c38.667 0 71 11.667 97 35s39 52 39 86c0 35.333 -13 64.333 -39 87s-58.333 34 -97 34s-71.167 -11.333 -97.5 -34s-39.5 -51.667 -39.5 -87v0c0 -34 13.167 -62.667 39.5 -86
s58.833 -35 97.5 -35z" />
    <glyph glyph-name="ogonek" unicode="&#x2db;" horiz-adv-x="526" 
d="M251 -535c-73.333 0 -133.499 22.001 -180.499 66.001s-70.5 96.667 -70.5 158c0 46.667 15.667 98.5 47 155.5s76 116.833 134 179.5h85c-52.667 -58 -93.834 -115.333 -123.501 -172s-44.5 -105.334 -44.5 -146.001c0 -39.333 14 -73.666 42 -102.999
s69.333 -44 124 -44c36.667 0 71 8 103 24s62.667 41 92 75l67 -49c-30.667 -44.667 -70.667 -79.834 -120 -105.501s-101 -38.5 -155 -38.5z" />
    <glyph glyph-name="tilde" unicode="&#x2dc;" horiz-adv-x="1015" 
d="M700 1267c-42.667 0 -80.5 8.16895 -113.5 24.502s-64.167 35.166 -93.5 56.499s-59.5 40 -90.5 56s-66.167 24 -105.5 24c-52.667 0 -96.834 -15.5 -132.501 -46.5s-63.834 -66.833 -84.501 -107.5l-80 71c30.667 55.333 71.334 102.166 122.001 140.499
s108.334 57.5 173.001 57.5c44.667 0 84.5 -8.16699 119.5 -24.5s67.667 -35.166 98 -56.499s61 -40 92 -56s64.167 -24 99.5 -24c44.667 0 85.667 14 123 42s68 65.333 92 112l79 -71c-22.667 -40.667 -50.167 -75.834 -82.5 -105.501s-67 -52.5 -104 -68.5
s-74.167 -24 -111.5 -24z" />
    <glyph glyph-name="hungarumlaut" unicode="&#x2dd;" horiz-adv-x="719" 
d="M424 1380l-69 75l224 225l109 -112zM69 1380l-69 75l226 225l107 -112z" />
    <glyph glyph-name="gravecomb" unicode="&#x300;" horiz-adv-x="0" 
d="M229 1158l-229 352l115 82l190 -379z" />
    <glyph glyph-name="acutecomb" unicode="&#x301;" horiz-adv-x="0" 
d="M75 1158l-75 55l190 379l115 -82z" />
    <glyph glyph-name="uni0302" unicode="&#x302;" horiz-adv-x="0" 
d="M61 1327l-61 84l367 269l368 -269l-62 -84l-306 224z" />
    <glyph glyph-name="tildecomb" unicode="&#x303;" horiz-adv-x="0" 
d="M700 1267c-42.667 0 -80.5 8.16895 -113.5 24.502s-64.167 35.166 -93.5 56.499s-59.5 40 -90.5 56s-66.167 24 -105.5 24c-52.667 0 -96.834 -15.5 -132.501 -46.5s-63.834 -66.833 -84.501 -107.5l-80 71c30.667 55.333 71.334 102.166 122.001 140.499
s108.334 57.5 173.001 57.5c44.667 0 84.5 -8.16699 119.5 -24.5s67.667 -35.166 98 -56.499s61 -40 92 -56s64.167 -24 99.5 -24c44.667 0 85.667 14 123 42s68 65.333 92 112l79 -71c-22.667 -40.667 -50.167 -75.834 -82.5 -105.501s-67 -52.5 -104 -68.5
s-74.167 -24 -111.5 -24z" />
    <glyph glyph-name="uni0304" unicode="&#x304;" horiz-adv-x="0" 
d="M0 1337v104h816v-104h-816z" />
    <glyph glyph-name="uni0306" unicode="&#x306;" horiz-adv-x="0" 
d="M412 1331c-71.333 0 -135.835 13.5 -193.502 40.5s-105.5 64.667 -143.5 113s-63 104.5 -75 168.5l111 27c8.66699 -47.333 26.334 -89.5 53.001 -126.5s61 -66.167 103 -87.5s90.333 -32 145 -32c54 0 102 10.667 144 32s76.333 50.5 103 87.5
s44.334 79.167 53.001 126.5l111 -27c-11.333 -64 -36.166 -120.167 -74.499 -168.5s-86.333 -86 -144 -113s-121.834 -40.5 -192.501 -40.5z" />
    <glyph glyph-name="uni0307" unicode="&#x307;" horiz-adv-x="0" 
d="M96 1379c-17.333 0 -33.333 4.33301 -48 13s-26.334 20.334 -35.001 35.001s-13 30.667 -13 48c0 18 4.33301 34 13 48s20.334 25.5 35.001 34.5s30.667 13.5 48 13.5c18 0 34 -4.5 48 -13.5s25.5 -20.5 34.5 -34.5s13.5 -30 13.5 -48c0 -17.333 -4.5 -33.333 -13.5 -48
s-20.5 -26.334 -34.5 -35.001s-30 -13 -48 -13z" />
    <glyph glyph-name="uni0308" unicode="&#x308;" horiz-adv-x="0" 
d="M561 1309c-24.667 0 -45.667 8.66699 -63 26s-26 38.333 -26 63s8.66699 45.667 26 63s38.333 26 63 26s45.667 -8.66699 63 -26s26 -38.333 26 -63s-8.66699 -45.667 -26 -63s-38.333 -26 -63 -26zM89 1309c-24.667 0 -45.667 8.66699 -63 26s-26 38.333 -26 63
s8.66699 45.667 26 63s38.333 26 63 26s45.667 -8.66699 63 -26s26 -38.333 26 -63s-8.66699 -45.667 -26 -63s-38.333 -26 -63 -26z" />
    <glyph glyph-name="uni030A" unicode="&#x30a;" horiz-adv-x="0" 
d="M233 1259c-43.333 0 -82.666 8.66699 -117.999 26s-63.333 41.666 -84 72.999s-31 67 -31 107v0c0 39.333 10.333 74.5 31 105.5s48.667 55.333 84 73s74.666 26.5 117.999 26.5s82.5 -8.83301 117.5 -26.5s62.833 -42 83.5 -73s31 -66.167 31 -105.5
c0 -40 -10.333 -75.667 -31 -107s-48.667 -55.666 -84 -72.999s-74.333 -26 -117 -26zM233 1343c38.667 0 71 11.667 97 35s39 52 39 86c0 35.333 -13 64.333 -39 87s-58.333 34 -97 34s-71.167 -11.333 -97.5 -34s-39.5 -51.667 -39.5 -87v0c0 -34 13.167 -62.667 39.5 -86
s58.833 -35 97.5 -35z" />
    <glyph glyph-name="uni030B" unicode="&#x30b;" horiz-adv-x="0" 
d="M424 1380l-69 75l224 225l109 -112zM69 1380l-69 75l226 225l107 -112z" />
    <glyph glyph-name="uni030C" unicode="&#x30c;" horiz-adv-x="0" 
d="M367 1221l-367 270l61 84l306 -224l306 224l62 -84z" />
    <glyph glyph-name="uni0312" unicode="&#x312;" horiz-adv-x="0" 
d="M368 1348c-26 0 -45.999 7.16602 -59.999 21.499s-21 35.833 -21 64.5c0 37.333 11.167 76.5 33.5 117.5s50.5 72.833 84.5 95.5l35 -20c-14.667 -16.667 -27.167 -37.667 -37.5 -63s-16.5 -52.666 -18.5 -81.999c20 -1.33301 36.333 -8.33301 49 -21s19 -27.667 19 -45
c0 -20 -7.83301 -36.333 -23.5 -49s-35.834 -19 -60.501 -19z" />
    <glyph glyph-name="uni0326" unicode="&#x326;" horiz-adv-x="0" 
d="M320 -469l-24.998 20.0029c15.333 20.667 28.166 45.667 38.499 75s15.833 61.666 16.5 96.999c-18.667 2 -34.667 10 -48 24s-20 30.667 -20 50c0 22 7.16699 40.167 21.5 54.5s33.166 21.5 56.499 21.5c24 0 42.5 -8 55.5 -24s19.5 -40.667 19.5 -74
c0 -42.667 -11.167 -87.834 -33.5 -135.501s-49.5 -83.834 -81.5 -108.501z" />
    <glyph glyph-name="uni0327" unicode="&#x327;" horiz-adv-x="0" 
d="M258 -536c-54.667 0 -104.166 12.498 -148.499 37.498s-80.833 60.167 -109.5 105.5l69 46c41.333 -69.333 104 -104 188 -104c46 0 83.167 11.667 111.5 35s42.5 53.666 42.5 90.999c0 35.333 -12.833 63.833 -38.5 85.5s-59.167 32.5 -100.5 32.5
c-22 0 -45.833 -3.16699 -71.5 -9.5s-46.834 -14.5 -63.501 -24.5l-8 6l84 259h80l-56 -171c21.333 2.66699 39.5 3.83398 54.5 3.50098s29.167 -2.16602 42.5 -5.49902c50 -4.66699 90.5 -23.167 121.5 -55.5s46.5 -72.833 46.5 -121.5
c0 -61.333 -22.833 -111.666 -68.5 -150.999s-104.167 -59 -175.5 -59z" />
    <glyph glyph-name="uni0328" unicode="&#x328;" horiz-adv-x="0" 
d="M251 -535c-73.333 0 -133.499 22.001 -180.499 66.001s-70.5 96.667 -70.5 158c0 46.667 15.667 98.5 47 155.5s76 116.833 134 179.5h85c-52.667 -58 -93.834 -115.333 -123.501 -172s-44.5 -105.334 -44.5 -146.001c0 -39.333 14 -73.666 42 -102.999
s69.333 -44 124 -44c36.667 0 71 8 103 24s62.667 41 92 75l67 -49c-30.667 -44.667 -70.667 -79.834 -120 -105.501s-101 -38.5 -155 -38.5z" />
    <glyph glyph-name="uni0394" unicode="&#x394;" horiz-adv-x="1612" 
d="M302 0l-33 22l498 1273h78l498 -1273l-33 -22h-1008zM409 102h794l-398 1060h1z" />
    <glyph glyph-name="uni03A9" unicode="&#x3a9;" horiz-adv-x="1208" 
d="M146 0l-0.00195312 109.998l227 -10c-72 48 -128.833 113.667 -170.5 197s-62.5 174.333 -62.5 273c0 101.333 20.667 191.333 62 270s97 140.667 167 186s148 68 234 68c87.333 0 166 -22.833 236 -68.5s125.5 -108 166.5 -187s61.5 -168.5 61.5 -268.5
c0 -99.333 -20.833 -190.666 -62.5 -273.999s-98.167 -148.666 -169.5 -195.999l226 10v-110h-413v88l11 4c34 6.66699 66.667 23.834 98 51.501s59.5 62.834 84.5 105.501s44.833 90 59.5 142s22 105.333 22 160c0 76 -14 145 -42 207s-66 111.5 -114 148.5
s-102.333 55.5 -163 55.5c-60 0 -114.167 -18.333 -162.5 -55s-86.5 -86.167 -114.5 -148.5s-42 -131.833 -42 -208.5c0 -55.333 7.33301 -108.833 22 -160.5s34.334 -98.834 59.001 -141.501s52.834 -77.834 84.501 -105.501s64.167 -44.5 97.5 -50.5l11 -4v-88h-413z" />
    <glyph glyph-name="uni03BC" unicode="&#x3bc;" horiz-adv-x="1499" 
d="M294 -320c0 79.333 2.00098 149.665 6.00098 210.998s8.66699 119.5 14 174.5s10 112.167 14 171.5s6 126.333 6 201v587h146v-611c0 -102.667 23.5 -183 70.5 -241s119.833 -87 218.5 -87c60.667 0 113 13.5 157 40.5s77.5 61.5 100.5 103.5s34.5 85 34.5 129v666h146
v-1025h-146v140c-19.333 -39.333 -46.833 -71.666 -82.5 -96.999s-74.334 -44.166 -116.001 -56.499s-81.5 -18.5 -119.5 -18.5c-66.667 0 -121.5 11 -164.5 33s-76.167 52.333 -99.5 91v-412h-185z" />
    <glyph glyph-name="pi" unicode="&#x3c0;" horiz-adv-x="1291" 
d="M386 0v912h-171v113h879v-113h-170v-697c0 -36 6.66699 -60.667 20 -74s37.666 -20 72.999 -20v-121c-77.333 0 -132.166 15 -164.499 45s-48.5 80.333 -48.5 151v716h-298v-912h-120z" />
    <glyph glyph-name="Wgrave" unicode="&#x1e80;" horiz-adv-x="2489" 
d="M610 0l-490 1650h169l413 -1452l483 1452h118l485 -1452l411 1452h169l-490 -1650h-171l-462 1351l-463 -1351h-172zM1315 1783l-229 352l115 82l190 -379z" />
    <glyph glyph-name="wgrave" unicode="&#x1e81;" horiz-adv-x="1956" 
d="M561 0l-497 1024h167l375 -814l323 814h98l323 -814l375 814h167l-497 -1024h-97l-320 797l-321 -797h-96zM1048 1158l-229 352l115 82l190 -379z" />
    <glyph glyph-name="Wacute" unicode="&#x1e82;" horiz-adv-x="2489" 
d="M610 0l-490 1650h169l413 -1452l483 1452h118l485 -1452l411 1452h169l-490 -1650h-171l-462 1351l-463 -1351h-172zM1234 1783l-75 55l190 379l115 -82z" />
    <glyph glyph-name="wacute" unicode="&#x1e83;" horiz-adv-x="1956" 
d="M561 0l-497 1024h167l375 -814l323 814h98l323 -814l375 814h167l-497 -1024h-97l-320 797l-321 -797h-96zM966 1158l-75 55l190 379l115 -82z" />
    <glyph glyph-name="Wdieresis" unicode="&#x1e84;" horiz-adv-x="2489" 
d="M610 0l-490 1650h169l413 -1452l483 1452h118l485 -1452l411 1452h169l-490 -1650h-171l-462 1351l-463 -1351h-172zM1481 1934c-24.667 0 -45.667 8.66602 -63 25.999s-26 38.333 -26 63s8.66699 45.667 26 63.001c17.333 17.333 38.333 26 63 26
s45.667 -8.66699 63 -26s26 -38.333 26 -63s-8.66699 -45.667 -26 -63s-38.333 -26 -63 -26zM1009 1934c-24.667 0 -45.667 8.66699 -63 26s-26 38.333 -26 63s8.66699 45.667 26 63s38.333 26 63 26s45.667 -8.66699 63 -26s26 -38.333 26 -63s-8.66699 -45.667 -26 -63
s-38.333 -26 -63 -26z" />
    <glyph glyph-name="wdieresis" unicode="&#x1e85;" horiz-adv-x="1956" 
d="M561 0l-497 1024h167l375 -814l323 814h98l323 -814l375 814h167l-497 -1024h-97l-320 797l-321 -797h-96zM1213 1309c-24.667 0 -45.667 8.66699 -63 26s-26 38.333 -26 63s8.66699 45.667 26 63s38.333 26 63 26s45.667 -8.66699 63 -26s26 -38.333 26 -63
s-8.66699 -45.667 -26 -63s-38.333 -26 -63 -26zM741 1309c-24.667 0 -45.667 8.66699 -63 26s-26 38.333 -26 63s8.66699 45.667 26 63s38.333 26 63 26s45.667 -8.66699 63 -26s26 -38.333 26 -63s-8.66699 -45.667 -26 -63s-38.333 -26 -63 -26z" />
    <glyph glyph-name="uni1E9E" unicode="&#x1e9e;" horiz-adv-x="1553" 
d="M945 -30c-62.667 0 -124.502 10.8291 -185.502 32.4961s-125.167 54.834 -192.5 99.501l44 143c58.667 -41.333 113.834 -73.166 165.501 -95.499s106.5 -33.5 164.5 -33.5c56.667 0 108 11.833 154 35.5s82.333 57 109 100s40 94.167 40 153.5
c0 50.667 -9.83301 92.667 -29.5 126s-45.167 61.333 -76.5 84s-64.5 42.5 -99.5 59.5s-68.167 34.333 -99.5 52s-56.833 38.667 -76.5 63s-29.5 54.833 -29.5 91.5c0 30.667 6.83301 56.334 20.5 77.001s30.5 39.667 50.5 57s39.833 36.333 59.5 57
s36.334 45.834 50.001 75.501s20.5 67.5 20.5 113.5c0 86 -26 152.333 -78 199s-118.667 70 -200 70c-108 0 -190.833 -40.667 -248.5 -122s-86.5 -194 -86.5 -338v-1070h-152v1063c0 126 19 235.333 57 328s94 164.167 168 214.5s164.667 75.5 272 75.5
c84 0 158.5 -15.333 223.5 -46s115.833 -75.167 152.5 -133.5s55 -129.166 55 -212.499c0 -52 -6.83301 -95.5 -20.5 -130.5s-30.5 -64.5 -50.5 -88.5s-40.167 -44.833 -60.5 -62.5s-37.333 -35 -51 -52s-20.5 -36.5 -20.5 -58.5c0 -25.333 9.66699 -47 29 -65
s44.333 -34.833 75 -50.5l97 -51.5c34 -18.667 66.167 -41.667 96.5 -69s55.333 -61.5 75 -102.5s29.5 -92.167 29.5 -153.5c0 -83.333 -19.333 -157.833 -58 -223.5s-92 -117.334 -160 -155.001s-145.667 -56.5 -233 -56.5z" />
    <glyph glyph-name="Ygrave" unicode="&#x1ef2;" horiz-adv-x="1480" 
d="M664 0v715l-567 935h183l460 -773l460 773h184l-568 -935v-715h-152zM810 1783l-229 352l115 82l190 -379z" />
    <glyph glyph-name="ygrave" unicode="&#x1ef3;" horiz-adv-x="1232" 
d="M298 -520l252 545l-487 999h165l405 -849l368 849h165l-703 -1544h-165zM687 1158l-229 352l115 82l190 -379z" />
    <glyph glyph-name="endash" unicode="&#x2013;" horiz-adv-x="1298" 
d="M215 517v124h868v-124h-868z" />
    <glyph glyph-name="emdash" unicode="&#x2014;" horiz-adv-x="2130" 
d="M215 517v124h1700v-124h-1700z" />
    <glyph glyph-name="quoteleft" unicode="&#x2018;" horiz-adv-x="633" 
d="M315 1285c-30 0 -54.502 9.66797 -73.502 29.001s-28.5 47.666 -28.5 84.999c0 47.333 14.667 97.333 44 150s65 96 107 130l35 -31c-11.333 -12.667 -21.666 -28.667 -30.999 -48s-17.166 -40 -23.499 -62s-10.5 -44.333 -12.5 -67c24 -4 43.5 -14.5 58.5 -31.5
s22.5 -37.167 22.5 -60.5c0 -27.333 -9.16699 -49.833 -27.5 -67.5s-41.833 -26.5 -70.5 -26.5z" />
    <glyph glyph-name="quoteright" unicode="&#x2019;" horiz-adv-x="631" 
d="M268 1286l-34.9971 29.001c11.333 14 21.666 30.5 30.999 49.5s17.166 39.667 23.499 62s10.166 44.5 11.499 66.5c-22.667 4 -41.667 14.5 -57 31.5s-23 37.5 -23 61.5c0 28 9 50.667 27 68s41.667 26 71 26c30 0 54.5 -9.83301 73.5 -29.5s28.5 -47.834 28.5 -84.501
c0 -47.333 -14.5 -97.5 -43.5 -150.5s-64.833 -96.167 -107.5 -129.5z" />
    <glyph glyph-name="quotesinglbase" unicode="&#x201a;" horiz-adv-x="726" 
d="M265 -226l-35 29.0029c11.333 13.333 21.666 29.666 30.999 48.999s17.333 40 24 62s10.667 44.333 12 67c-23.333 3.33301 -42.666 13.666 -57.999 30.999s-23 37.666 -23 60.999c0 28 9.16699 50.833 27.5 68.5s41.833 26.5 70.5 26.5c30 0 54.5 -10 73.5 -30
s28.5 -48.333 28.5 -85c0 -47.333 -14.5 -97.333 -43.5 -150s-64.833 -95.667 -107.5 -129z" />
    <glyph glyph-name="quotedblleft" unicode="&#x201c;" horiz-adv-x="902" 
d="M578 1285c-30 0 -54.5029 9.66797 -73.5029 29.001s-28.5 47.666 -28.5 84.999c0 47.333 14.667 97.333 44 150s65 96 107 130l34 -31c-11.333 -12.667 -21.666 -28.667 -30.999 -48s-17.166 -40 -23.499 -62s-10.166 -44.333 -11.499 -67c24 -4 43.333 -14.5 58 -31.5
s22 -37.167 22 -60.5c0 -27.333 -9 -49.833 -27 -67.5s-41.333 -26.5 -70 -26.5zM319.997 1285c-30.667 0 -55.333 9.66797 -74 29.001s-28 47.666 -28 84.999c0 47.333 14.5 97.333 43.5 150s64.833 96 107.5 130l34 -31c-10.667 -12.667 -20.834 -28.667 -30.501 -48
s-17.667 -40 -24 -62s-10.166 -44.333 -11.499 -67c24 -4 43.333 -14.5 58 -31.5s22 -37.167 22 -60.5c0 -27.333 -8.83301 -49.833 -26.5 -67.5s-41.167 -26.5 -70.5 -26.5z" />
    <glyph glyph-name="quotedblright" unicode="&#x201d;" horiz-adv-x="900" 
d="M532 1286l-34.998 28.999c11.333 14 21.666 30.333 30.999 49s17.166 39.334 23.499 62.001s10.166 45 11.499 67c-23.333 4 -42.5 14.5 -57.5 31.5s-22.5 37.5 -22.5 61.5c0 28 9 50.667 27 68s41.333 26 70 26c30.667 0 55.334 -9.83301 74.001 -29.5
s28 -48.167 28 -85.5c0 -47.333 -14.5 -97.333 -43.5 -150s-64.5 -95.667 -106.5 -129zM273.002 1286l-33.9971 28.999c11.333 14 21.666 30.333 30.999 49s17.166 39.334 23.499 62.001s10.166 45 11.499 67c-23.333 4 -42.5 14.5 -57.5 31.5s-22.5 37.5 -22.5 61.5
c0 28 9 50.667 27 68s41.333 26 70 26c30 0 54.5 -9.83301 73.5 -29.5s28.5 -48.167 28.5 -85.5c0 -47.333 -14.5 -97.333 -43.5 -150s-64.833 -95.667 -107.5 -129z" />
    <glyph glyph-name="quotedblbase" unicode="&#x201e;" horiz-adv-x="873" 
d="M259 -226l-35 29.0029c11.333 13.333 21.666 29.666 30.999 48.999s17.333 40 24 62s10.667 44.333 12 67c-23.333 3.33301 -42.666 13.666 -57.999 30.999s-23 37.666 -23 60.999c0 28 9.16699 50.833 27.5 68.5s41.833 26.5 70.5 26.5c30 0 54.5 -10 73.5 -30
s28.5 -48.333 28.5 -85c0 -47.333 -14.5 -97.333 -43.5 -150s-64.833 -95.667 -107.5 -129zM517 -225.997l-34.999 29.0029c11.333 13.333 21.666 29.666 30.999 48.999s17.333 40 24 62s10.667 44.333 12 67c-24 3.33301 -43.5 13.666 -58.5 30.999
s-22.5 37.666 -22.5 60.999c0 28 9 50.833 27 68.5s41.667 26.5 71 26.5c30 0 54.5 -10 73.5 -30s28.5 -48.333 28.5 -85c0 -47.333 -14.5 -97.333 -43.5 -150s-64.833 -95.667 -107.5 -129z" />
    <glyph glyph-name="dagger" unicode="&#x2020;" horiz-adv-x="1170" 
d="M519 0v1103h-337v122h337v495h131v-495h336v-122h-336v-1103h-131z" />
    <glyph glyph-name="daggerdbl" unicode="&#x2021;" horiz-adv-x="1228" 
d="M548 0v535h-336v122h336v435h-336v120h336v508h131v-508h337v-120h-337v-435h337v-122h-337v-535h-131z" />
    <glyph glyph-name="bullet" unicode="&#x2022;" horiz-adv-x="851" 
d="M426 556c-29.333 0 -56.166 7 -80.499 21s-43.666 33 -57.999 57s-21.5 50.667 -21.5 80s7.16699 56 21.5 80s33.666 43 57.999 57s51.166 21 80.499 21s56 -7 80 -21s43 -33 57 -57s21 -50.667 21 -80s-7 -56 -21 -80s-33 -43 -57 -57s-50.667 -21 -80 -21z" />
    <glyph glyph-name="ellipsis" unicode="&#x2026;" horiz-adv-x="1471" 
d="M382 -32c-19.333 0 -36.832 4.66699 -52.499 14s-28 21.833 -37 37.5s-13.5 32.834 -13.5 51.501s4.5 35.667 13.5 51s21.5 27.666 37.5 36.999s33 14 51 14c19.333 0 36.666 -4.66699 51.999 -14s27.5 -21.666 36.5 -36.999s13.5 -32.333 13.5 -51
s-4.5 -35.834 -13.5 -51.501s-21.167 -28.167 -36.5 -37.5s-32.333 -14 -51 -14zM736.001 -32c-18.667 0 -35.834 4.66797 -51.501 14.001s-28 21.833 -37 37.5s-13.5 32.834 -13.5 51.501s4.5 35.667 13.5 51s21.333 27.666 37 36.999s32.834 14 51.501 14
c19.333 0 36.666 -4.5 51.999 -13.5s27.666 -21.5 36.999 -37.5s14 -33 14 -51c0 -18.667 -4.66699 -35.834 -14 -51.501s-21.666 -28.167 -36.999 -37.5s-32.666 -14 -51.999 -14zM1090 -31.999c-19.333 0 -36.666 4.66602 -51.999 13.999s-27.666 21.833 -36.999 37.5
s-14 32.834 -14 51.501s4.66699 35.834 14 51.501s21.666 28 36.999 37s32.666 13.5 51.999 13.5c18.667 0 35.667 -4.5 51 -13.5s27.666 -21.5 36.999 -37.5s14 -33 14 -51c0 -18.667 -4.66699 -35.834 -14 -51.501s-21.666 -28.167 -36.999 -37.5s-32.333 -14 -51 -14z
" />
    <glyph glyph-name="perthousand" unicode="&#x2030;" horiz-adv-x="3155" 
d="M599 892c-78 0 -148.001 16.667 -210.001 50s-111.167 79.666 -147.5 138.999s-54.5 127.666 -54.5 204.999s18.333 145.666 55 204.999s85.834 105.666 147.501 138.999s131.5 50 209.5 50c76.667 0 145.834 -16.667 207.501 -50s110.667 -79.666 147 -138.999
s54.5 -127.666 54.5 -204.999s-18.167 -145.666 -54.5 -204.999s-85.333 -105.666 -147 -138.999s-130.834 -50 -207.501 -50zM548.999 0l960 1650h112l-960 -1650h-112zM596.999 993c56 0 105.999 12.5 149.999 37.5s78.833 59.5 104.5 103.5s38.5 94.667 38.5 152
s-12.833 108 -38.5 152s-60.334 78.5 -104.001 103.5s-93.5 37.5 -149.5 37.5c-55.333 0 -105 -12.5 -149 -37.5s-78.667 -59.5 -104 -103.5s-38 -94.667 -38 -152c0 -58 12.833 -109 38.5 -153s60.334 -78.333 104.001 -103s92.834 -37 147.501 -37zM1574 -31
c-77.333 0 -147 16.667 -209 50s-111.167 79.666 -147.5 138.999s-54.5 127.666 -54.5 204.999s18.167 145.666 54.5 204.999s85.5 105.666 147.5 138.999s131.667 50 209 50c76.667 0 146 -16.667 208 -50s111 -79.666 147 -138.999s54 -127.666 54 -204.999
s-18 -145.666 -54 -204.999s-85 -105.666 -147 -138.999s-131.333 -50 -208 -50zM2557 -31c-77.333 0 -146.833 16.667 -208.5 50s-110.667 79.666 -147 138.999s-54.5 127.666 -54.5 204.999s18.167 145.666 54.5 204.999s85.333 105.666 147 138.999s131.167 50 208.5 50
s147 -16.667 209 -50s111.167 -79.666 147.5 -138.999s54.5 -127.666 54.5 -204.999s-18.167 -145.666 -54.5 -204.999s-85.5 -105.666 -147.5 -138.999s-131.667 -50 -209 -50zM1574 69c55.333 0 104.833 12.667 148.5 38s78.334 60 104.001 104s38.5 94.667 38.5 152
s-12.833 108 -38.5 152s-60.334 78.5 -104.001 103.5s-93.167 37.5 -148.5 37.5c-56 0 -106 -12.5 -150 -37.5s-78.667 -59.5 -104 -103.5s-38 -94.667 -38 -152s12.667 -108 38 -152s60 -78.667 104 -104s94 -38 150 -38zM2557 69c55.333 0 105 12.667 149 38
s78.667 60 104 104s38 94.667 38 152s-12.667 108 -38 152s-60 78.5 -104 103.5s-93.667 37.5 -149 37.5s-105 -12.5 -149 -37.5s-78.833 -59.5 -104.5 -103.5s-38.5 -94.667 -38.5 -152s12.833 -108 38.5 -152s60.5 -78.667 104.5 -104s93.667 -38 149 -38z" />
    <glyph glyph-name="guilsinglleft" unicode="&#x2039;" horiz-adv-x="753" 
d="M520 57l-390 500l390 500l88 -70l-337 -430l337 -432z" />
    <glyph glyph-name="guilsinglright" unicode="&#x203a;" horiz-adv-x="753" 
d="M233 57l-89 68l337 432l-337 430l89 70l390 -500z" />
    <glyph glyph-name="fraction" unicode="&#x2044;" horiz-adv-x="65" 
d="M-583 0l1111 1650h119l-1110 -1650h-120z" />
    <glyph glyph-name="uni2074" unicode="&#x2074;" horiz-adv-x="539" 
d="M363 1040v112h-338v33l338 465h72v-432h79v-66h-79v-112h-72zM126 1218h237v333z" />
    <glyph glyph-name="Euro" unicode="&#x20ac;" horiz-adv-x="1971" 
d="M1228 -31c-134.667 0 -259.502 26.6641 -374.502 79.9971s-213 127.833 -294 223.5s-137.5 206.834 -169.5 333.501h-171v97h150c-2.66699 19.333 -5 39.5 -7 60.5s-3 41.5 -3 61.5s1 40 3 60s4.33301 39.333 7 58h-150v97h171c24 94 62.667 180 116 258
s117.333 145.5 192 202.5s157.167 101.167 247.5 132.5s184.5 47 282.5 47s193 -14.833 285 -44.5s174.333 -72.167 247 -127.5l-73 -128c-62 48.667 -130.833 85.834 -206.5 111.501s-154.167 38.5 -235.5 38.5c-105.333 0 -203.666 -20.667 -294.999 -62
s-170 -98.666 -236 -171.999s-114.333 -158.666 -145 -255.999h896v-97h-929c-3.33301 -21.333 -6.16602 -41.833 -8.49902 -61.5s-3.5 -38.5 -3.5 -56.5s1.16699 -37.167 3.5 -57.5s5.16602 -41.833 8.49902 -64.5h929v-97h-897
c29.333 -98.667 76.5 -184.334 141.5 -257.001s143.333 -129.167 235 -169.5s191.834 -60.5 300.501 -60.5c82 0 161 12.833 237 38.5s144.667 61.834 206 108.501l74 -126c-71.333 -54.667 -153 -96.834 -245 -126.501s-188.333 -44.5 -289 -44.5z" />
    <glyph glyph-name="trademark" unicode="&#x2122;" horiz-adv-x="1406" 
d="M580 1134l61 516h67l142 -378l145 378h67l62 -516h-62l-52 398l-136 -372h-44l-137 372l-50 -398h-63zM355 1134v459h-150v57h363v-57h-148v-459h-65z" />
    <glyph glyph-name="uni2150" unicode="&#x2150;" horiz-adv-x="2194" 
d="M305 600v930h-76v120h196v-1050h-120zM279 0l1111 1650h119l-1110 -1650h-120zM1280 0l540 942h-526v108h706v-39l-575 -1011h-145z" />
    <glyph glyph-name="uni2151" unicode="&#x2151;" horiz-adv-x="2380" 
d="M305 600v930h-76v120h196v-1050h-120zM279 0l1111 1650h119l-1110 -1650h-120zM1404 0l375.999 392.996c-21.333 -13.333 -45.666 -23.333 -72.999 -30s-56 -10 -86 -10c-68 0 -132.167 15.333 -192.5 46s-109.333 73.334 -147 128.001s-56.5 118.334 -56.5 191.001
c0 68.667 17.667 130.334 53 185.001s84.833 97.834 148.5 129.501s137.834 47.5 222.501 47.5c83.333 0 157.166 -15.667 221.499 -47s114.833 -74.5 151.5 -129.5s55.667 -117.5 57 -187.5c1.33301 -48.667 -5.5 -93 -20.5 -133s-33.5 -75.167 -55.5 -105.5
s-42.667 -55.5 -62 -75.5l-387 -402h-150zM1650 460.996c56.667 0 107.832 11.832 153.499 35.499s81.834 55.334 108.501 95.001s40 83.5 40 131.5c0 46 -12.5 88 -37.5 126s-59.833 68.5 -104.5 91.5s-97 34.5 -157 34.5c-58 0 -109.833 -11 -155.5 -33
s-81.667 -52.167 -108 -90.5s-39.5 -82.166 -39.5 -131.499c0 -50.667 13.667 -95.334 41 -134.001s63.833 -69.167 109.5 -91.5s95.5 -33.5 149.5 -33.5z" />
    <glyph glyph-name="uni2152" unicode="&#x2152;" horiz-adv-x="3054" 
d="M305 600v930h-76v120h196v-1050h-120zM279 0l1111 1650h119l-1110 -1650h-120zM1403 0v930h-76v120h195v-1050h-119zM2344 -21c-104 0 -195.167 23.167 -273.5 69.5s-139.333 111 -183 194s-65.5 178.833 -65.5 287.5c0 109.333 21.833 205.166 65.5 287.499
s104.667 146.666 183 192.999s169.5 69.5 273.5 69.5c104.667 0 196 -23.167 274 -69.5s139 -110.666 183 -192.999s66 -178.166 66 -287.499c0 -108.667 -22 -204.5 -66 -287.5s-105 -147.667 -183 -194s-169.333 -69.5 -274 -69.5zM2344 89
c78.667 0 147.334 18.167 206.001 54.5s104.167 87.5 136.5 153.5s48.5 143.667 48.5 233s-16.333 167 -49 233s-78.167 117.167 -136.5 153.5s-126.833 54.5 -205.5 54.5c-78 0 -146.333 -18.167 -205 -54.5s-104.334 -87.5 -137.001 -153.5s-49 -143.667 -49 -233
s16.167 -167 48.5 -233s78 -117.167 137 -153.5s127.5 -54.5 205.5 -54.5z" />
    <glyph glyph-name="uni2153" unicode="&#x2153;" horiz-adv-x="2329" 
d="M305 600v930h-76v120h196v-1050h-120zM279 0l1111 1650h119l-1110 -1650h-120zM1641 -21c-96.667 0 -178.83 24.502 -246.497 73.502s-107.167 115.167 -118.5 198.5l116 47c2 -61.333 26.167 -111.333 72.5 -150s105.166 -58 176.499 -58
c68.667 0 123.667 18.167 165 54.5s62 83.5 62 141.5c0 42 -10.167 79.5 -30.5 112.5s-47.5 59.167 -81.5 78.5s-71 29 -111 29c-16.667 0 -31.334 -2 -44.001 -6v88h39c40.667 0 77.5 9.16699 110.5 27.5s59 42.833 78 73.5s28.5 63.667 28.5 99
c0 36 -9.33301 68.167 -28 96.5s-43.5 50.833 -74.5 67.5s-65.5 25 -103.5 25c-37.333 0 -71.833 -8.5 -103.5 -25.5s-57.5 -39.833 -77.5 -68.5s-31 -61.334 -33 -98.001l-101 38c6 50.667 23.667 95.334 53 134.001s67.166 68.834 113.499 90.501s96.833 32.5 151.5 32.5
c61.333 0 116 -13.167 164 -39.5s85.667 -61.166 113 -104.499s41 -91 41 -143c0 -52.667 -14.667 -100.834 -44 -144.501s-69 -75.834 -119 -96.501c53.333 -19.333 97.333 -52.333 132 -99s52 -102.334 52 -167.001c0 -56.667 -14 -108.334 -42 -155.001
s-68.333 -83.667 -121 -111s-115.667 -41 -189 -41z" />
    <glyph glyph-name="uni2154" unicode="&#x2154;" horiz-adv-x="2919" 
d="M287 600v59.0039c135.333 92 248 172 338 240s161.333 127.167 214 177.5s90.167 95.5 112.5 135.5s33.5 78.333 33.5 115c0 44 -12.333 84.167 -37 120.5s-58 65.333 -100 87s-89 32.5 -141 32.5c-50.667 0 -97.167 -10.833 -139.5 -32.5s-77.166 -51.667 -104.499 -90
s-44.333 -82.5 -51 -132.5l-110 41c8.66699 63.333 31.834 119.666 69.501 168.999s86.167 88 145.5 116s124.666 42 195.999 42c76 0 144.667 -15.333 206 -46s110 -72.334 146 -125.001s54 -112.667 54 -180c0 -42.667 -9.33301 -84.834 -28 -126.501
s-50 -85.834 -94 -132.501s-103.833 -99 -179.5 -157s-170.834 -124.667 -285.501 -200h609v-113h-854zM870 0.00390625l1111 1650h119l-1110 -1650h-120zM2231 -20.9961c-96.667 0 -178.832 24.502 -246.498 73.502c-67.667 49 -107.167 115.167 -118.5 198.5l116 47
c2 -61.333 26.167 -111.333 72.5 -150s105.166 -58 176.5 -58c68.667 0 123.667 18.167 165 54.5s62 83.5 62 141.5c0 42 -10.167 79.5 -30.5 112.5s-47.5 59.167 -81.5 78.5s-71 29 -111 29c-16.667 0 -31.334 -2 -44.001 -6v88h39c40.667 0 77.5 9.16699 110.5 27.5
s59 42.833 78 73.5s28.5 63.667 28.5 99c0 36 -9.33301 68.167 -28 96.5s-43.5 50.833 -74.5 67.5s-65.5 25 -103.5 25c-37.333 0 -71.833 -8.5 -103.5 -25.5s-57.5 -39.833 -77.5 -68.5s-31 -61.334 -33 -98.001l-101 38c6 50.667 23.667 95.334 53 134.001
s67.166 68.834 113.499 90.501s96.833 32.5 151.5 32.5c61.333 0 116 -13.167 164 -39.5s85.667 -61.166 113 -104.499s41 -91 41 -143c0 -52.667 -14.667 -100.834 -44 -144.501s-69 -75.834 -119 -96.501c53.333 -19.333 97.333 -52.333 132 -99s52 -102.334 52 -167.001
c0 -56.667 -14 -108.334 -42 -155.001s-68.333 -83.667 -121 -111s-115.667 -41 -189 -41z" />
    <glyph glyph-name="uni2155" unicode="&#x2155;" horiz-adv-x="2379" 
d="M305 600v930h-76v120h196v-1050h-120zM279 0l1111 1650h119l-1110 -1650h-120zM1637 -20c-98 0 -186.001 20.1689 -264.001 60.502s-132.333 96.166 -163 167.499l104 49c23.333 -54 63.666 -95.667 120.999 -125s125.333 -44 204 -44c94 0 168.833 21.167 224.5 63.5
s83.5 102.166 83.5 179.499c0 56 -14.5 104 -43.5 144s-68.333 70.833 -118 92.5s-106.5 32.5 -170.5 32.5c-57.333 0 -114 -9.33301 -170 -28s-111.667 -46.667 -167 -84l95 562h621v-103h-520l-58 -318c48.667 22.667 98.834 37 150.501 43s103.834 5.33301 156.501 -2
c110.667 -14.667 196.5 -52 257.5 -112s91.5 -135.667 91.5 -227c0 -75.333 -19.667 -139 -59 -191s-92 -91.667 -158 -119s-138.667 -41 -218 -41z" />
    </font>
</defs>
</svg>
